<svg viewBox="0 0 500 200" width="100%" height="200" xmlns="http://www.w3.org/2000/svg" style="background:#0d131f; border-radius:8px; border:1px solid #232d45; padding:10px;">
<line x1="40" y1="30" x2="40" y2="170" stroke="#232d45" stroke-width="1" />
<line x1="40" y1="170" x2="480" y2="170" stroke="#232d45" stroke-width="1" />
<line x1="40" y1="30" x2="480" y2="30" stroke="#1e293b" stroke-dasharray="3,3" stroke-width="1" />
<line x1="40" y1="65" x2="480" y2="65" stroke="#1e293b" stroke-dasharray="3,3" stroke-width="1" />
<line x1="40" y1="100" x2="480" y2="100" stroke="#1e293b" stroke-dasharray="3,3" stroke-width="1" />
<line x1="40" y1="135" x2="480" y2="135" stroke="#1e293b" stroke-dasharray="3,3" stroke-width="1" />
<line x1="40" y1="170" x2="480" y2="170" stroke="#1e293b" stroke-dasharray="3,3" stroke-width="1" />
<path d="M 40.0,159.06259167876874 L 150.0,160.0 L 260.0,158.34856305202493 L 370.0,159.38769460184625 L 480.0,40.0" fill="none" stroke="#ef4444" stroke-width="2" stroke-linecap="round" stroke-linejoin="round" />
<rect x="45" y="5" width="8" height="8" rx="2" fill="#ef4444" />
<text x="57" y="12" fill="#94a3b8" font-family="sans-serif" font-size="9">Vibration Main Drive: 5.7</text>
<path d="M 40.0,160.0 L 150.0,67.58344436319304 L 260.0,120.55484223310941 L 370.0,40.0 L 480.0,70.87496477095365" fill="none" stroke="#3b82f6" stroke-width="2" stroke-linecap="round" stroke-linejoin="round" />
<rect x="265" y="5" width="8" height="8" rx="2" fill="#3b82f6" />
<text x="277" y="12" fill="#94a3b8" font-family="sans-serif" font-size="9">Main Motor Current: 158.6</text>
</svg>