<svg viewBox="0 0 500 200" width="100%" height="200" xmlns="http://www.w3.org/2000/svg" style="background:#0d131f; border-radius:8px; border:1px solid #232d45; padding:10px;">
<line x1="40" y1="30" x2="40" y2="170" stroke="#232d45" stroke-width="1" />
<line x1="40" y1="170" x2="480" y2="170" stroke="#232d45" stroke-width="1" />
<line x1="40" y1="30" x2="480" y2="30" stroke="#1e293b" stroke-dasharray="3,3" stroke-width="1" />
<line x1="40" y1="65" x2="480" y2="65" stroke="#1e293b" stroke-dasharray="3,3" stroke-width="1" />
<line x1="40" y1="100" x2="480" y2="100" stroke="#1e293b" stroke-dasharray="3,3" stroke-width="1" />
<line x1="40" y1="135" x2="480" y2="135" stroke="#1e293b" stroke-dasharray="3,3" stroke-width="1" />
<line x1="40" y1="170" x2="480" y2="170" stroke="#1e293b" stroke-dasharray="3,3" stroke-width="1" />
<path d="M 40.0,89.43401504947627 L 150.0,40.0 L 260.0,95.03133230766088 L 370.0,160.0 L 480.0,74.91073634140986" fill="none" stroke="#ef4444" stroke-width="2" stroke-linecap="round" stroke-linejoin="round" />
<rect x="45" y="5" width="8" height="8" rx="2" fill="#ef4444" />
<text x="57" y="12" fill="#94a3b8" font-family="sans-serif" font-size="9">Vibration Slitting Head: 1.5</text>
<path d="M 40.0,47.9103147073146 L 150.0,47.33909906440992 L 260.0,48.22678339421144 L 370.0,40.0 L 480.0,160.0" fill="none" stroke="#3b82f6" stroke-width="2" stroke-linecap="round" stroke-linejoin="round" />
<rect x="265" y="5" width="8" height="8" rx="2" fill="#3b82f6" />
<text x="277" y="12" fill="#94a3b8" font-family="sans-serif" font-size="9">Hydraulic Pressure: 112.4</text>
</svg>