<svg viewBox="0 0 500 200" width="100%" height="200" xmlns="http://www.w3.org/2000/svg" style="background:#0d131f; border-radius:8px; border:1px solid #232d45; padding:10px;">
<line x1="40" y1="30" x2="40" y2="170" stroke="#232d45" stroke-width="1" />
<line x1="40" y1="170" x2="480" y2="170" stroke="#232d45" stroke-width="1" />
<line x1="40" y1="30" x2="480" y2="30" stroke="#1e293b" stroke-dasharray="3,3" stroke-width="1" />
<line x1="40" y1="65" x2="480" y2="65" stroke="#1e293b" stroke-dasharray="3,3" stroke-width="1" />
<line x1="40" y1="100" x2="480" y2="100" stroke="#1e293b" stroke-dasharray="3,3" stroke-width="1" />
<line x1="40" y1="135" x2="480" y2="135" stroke="#1e293b" stroke-dasharray="3,3" stroke-width="1" />
<line x1="40" y1="170" x2="480" y2="170" stroke="#1e293b" stroke-dasharray="3,3" stroke-width="1" />
<path d="M 40.0,157.25106589814897 L 48.14814814814815,88.74018388972664 L 56.2962962962963,46.3290270783497 L 64.44444444444444,97.78225322182985 L 72.5925925925926,59.29920534951823 L 80.74074074074073,53.23721567611402 L 88.88888888888889,64.09573103040067 L 97.03703703703704,97.54588472966029 L 105.18518518518519,57.859800129510305 L 113.33333333333333,98.79830447894189 L 121.48148148148148,56.299178737117614 L 129.62962962962962,68.27014415067974 L 137.77777777777777,47.811112492121 L 145.92592592592592,80.57754876997517 L 154.07407407407408,80.70687895718537 L 162.22222222222223,47.070695580852856 L 170.37037037037038,85.97700535607873 L 178.5185185185185,56.04283402911203 L 186.66666666666666,67.13367530787538 L 194.8148148148148,93.41216093545978 L 202.96296296296296,59.730184940762 L 211.11111111111111,79.52511337651771 L 219.25925925925927,71.96432494413843 L 227.40740740740742,40.0 L 235.55555555555554,48.18259686067812 L 243.7037037037037,98.90913579898245 L 251.85185185185185,156.73453962741996 L 260.0,156.773151777948 L 268.14814814814815,156.36246812846701 L 276.2962962962963,156.73924824823922 L 284.44444444444446,158.052603108668 L 292.5925925925926,159.29388128543692 L 300.74074074074076,157.27185194930547 L 308.8888888888889,156.03042886615575 L 317.037037037037,158.02789290501408 L 325.18518518518516,156.09943069660957 L 333.3333333333333,156.38256647015308 L 341.48148148148147,158.07134082339215 L 349.6296296296296,156.03805301444768 L 357.77777777777777,156.14452572219673 L 365.9259259259259,157.09845022530018 L 374.0740740740741,160.0 L 382.22222222222223,158.9410052156203 L 390.3703703703704,157.47293412701245 L 398.51851851851853,156.63487606520087 L 406.6666666666667,157.00376775321473 L 414.81481481481484,155.60439426284108 L 422.962962962963,155.95148965067148 L 431.1111111111111,155.64032127689785 L 439.25925925925924,156.67888975886007 L 447.4074074074074,156.0714776914057 L 455.55555555555554,156.78947141162166 L 463.7037037037037,158.23728950019841 L 471.85185185185185,156.53855056657906 L 480.0,157.07570170300883" fill="none" stroke="#ef4444" stroke-width="2" stroke-linecap="round" stroke-linejoin="round" />
<rect x="45" y="5" width="8" height="8" rx="2" fill="#ef4444" />
<text x="57" y="12" fill="#94a3b8" font-family="sans-serif" font-size="9">Vibration Main Drive: 2.0</text>
<path d="M 40.0,72.21271010585038 L 48.14814814814815,127.90879097579588 L 56.2962962962963,59.35926724899849 L 64.44444444444444,78.83364773265791 L 72.5925925925926,88.99470550236022 L 80.74074074074073,128.651550154686 L 88.88888888888889,86.95569705125969 L 97.03703703703704,154.84146104895268 L 105.18518518518519,77.03447995926484 L 113.33333333333333,76.38917175412728 L 121.48148148148148,74.88577048280979 L 129.62962962962962,93.69836067988724 L 137.77777777777777,107.0414990897431 L 145.92592592592592,88.17616713473832 L 154.07407407407408,92.70251909666257 L 162.22222222222223,115.55041861235154 L 170.37037037037038,90.03957991659733 L 178.5185185185185,84.62143875578279 L 186.66666666666666,77.35610175379841 L 194.8148148148148,68.5603939988639 L 202.96296296296296,64.54355785939265 L 211.11111111111111,47.85195100215131 L 219.25925925925927,136.85560222025697 L 227.40740740740742,160.0 L 235.55555555555554,109.79178560017091 L 243.7037037037037,54.99464129234185 L 251.85185185185185,134.37529081173005 L 260.0,64.30721654427177 L 268.14814814814815,157.44286323497252 L 276.2962962962963,63.44203171872793 L 284.44444444444446,80.71448135114804 L 292.5925925925926,141.17843218555842 L 300.74074074074076,42.61023609330573 L 308.8888888888889,88.51295760936964 L 317.037037037037,123.821103806676 L 325.18518518518516,120.39572462712576 L 333.3333333333333,112.04676696147365 L 341.48148148148147,111.00988894939343 L 349.6296296296296,107.20468884004461 L 357.77777777777777,103.03443514871857 L 365.9259259259259,83.47703982816057 L 374.0740740740741,72.15588700558256 L 382.22222222222223,103.39148145378378 L 390.3703703703704,94.68890454393623 L 398.51851851851853,97.50213143243514 L 406.6666666666667,109.2205676237049 L 414.81481481481484,44.99707549550881 L 422.962962962963,109.09837589496736 L 431.1111111111111,97.13379944974875 L 439.25925925925924,69.57475473977279 L 447.4074074074074,95.0391499260469 L 455.55555555555554,113.5197665831817 L 463.7037037037037,63.49771862071863 L 471.85185185185185,78.36372058222531 L 480.0,40.0" fill="none" stroke="#3b82f6" stroke-width="2" stroke-linecap="round" stroke-linejoin="round" />
<rect x="265" y="5" width="8" height="8" rx="2" fill="#3b82f6" />
<text x="277" y="12" fill="#94a3b8" font-family="sans-serif" font-size="9">Main Motor Current: 166.7</text>
</svg>