<svg viewBox="0 0 650 250" width="100%" height="250" xmlns="http://www.w3.org/2000/svg" style="background:#0d131f; border-radius:8px; border:1px solid #232d45; padding: 10px;">
<line x1="40" y1="30" x2="40" y2="210" stroke="#232d45" stroke-width="1" />
<line x1="40" y1="210" x2="620" y2="210" stroke="#232d45" stroke-width="1" />
<line x1="40" y1="30" x2="620" y2="30" stroke="#1e293b" stroke-dasharray="3,3" stroke-width="1" />
<line x1="40" y1="75" x2="620" y2="75" stroke="#1e293b" stroke-dasharray="3,3" stroke-width="1" />
<line x1="40" y1="120" x2="620" y2="120" stroke="#1e293b" stroke-dasharray="3,3" stroke-width="1" />
<line x1="40" y1="165" x2="620" y2="165" stroke="#1e293b" stroke-dasharray="3,3" stroke-width="1" />
<line x1="40" y1="210" x2="620" y2="210" stroke="#1e293b" stroke-dasharray="3,3" stroke-width="1" />
<path d="M 40.0,85.46012279905126 L 49.83050847457627,132.61000664414564 L 59.66101694915254,102.354970319611 L 69.49152542372882,92.18343737968206 L 79.32203389830508,68.8187549003101 L 89.15254237288136,109.73620094469298 L 98.98305084745763,88.87618957672431 L 108.8135593220339,103.28985816290249 L 118.64406779661017,148.1778097184808 L 128.47457627118644,127.44025486647044 L 138.3050847457627,183.74994306874885 L 148.135593220339,120.69010135645138 L 157.96610169491527,152.5753121646692 L 167.79661016949154,57.047038105403146 L 177.6271186440678,93.9569646458695 L 187.45762711864407,122.48389857166836 L 197.28813559322035,122.35285111480444 L 207.11864406779662,120.35174518696186 L 216.94915254237287,57.354294190201244 L 226.77966101694915,121.99912863331554 L 236.61016949152543,125.22687482242576 L 246.4406779661017,137.45564272799936 L 256.271186440678,158.66675645044253 L 266.10169491525426,136.7928519637241 L 275.93220338983053,129.92561817828536 L 285.7627118644068,164.59536872746935 L 295.5932203389831,126.28065681940112 L 305.4237288135593,103.24813732368769 L 315.2542372881356,174.36935795368805 L 325.08474576271186,180.89713957334536 L 334.91525423728814,134.8066669059046 L 344.7457627118644,68.01929759004202 L 354.5762711864407,40.0 L 364.40677966101697,122.63059766100152 L 374.23728813559325,130.5968627579922 L 384.06779661016947,102.81654016996173 L 393.89830508474574,176.77496705910244 L 403.728813559322,134.6124753812096 L 413.5593220338983,114.25278692901597 L 423.3898305084746,64.82963935537344 L 433.22033898305085,91.0169209086778 L 443.0508474576271,94.23271251215255 L 452.8813559322034,98.60966701803177 L 462.7118644067797,153.33242480139006 L 472.54237288135596,94.56545776071466 L 482.3728813559322,95.58083117352513 L 492.20338983050846,80.99534968888511 L 502.03389830508473,129.31076253852626 L 511.864406779661,111.7444251435536 L 521.6949152542372,144.34997398653394 L 531.5254237288136,145.94153426075894 L 541.3559322033898,79.16382957093731 L 551.1864406779662,200.0 L 561.0169491525423,187.80675421129126 L 570.8474576271186,84.42436992656684 L 580.6779661016949,109.11263233123637 L 590.5084745762712,133.11779110504463 L 600.3389830508474,89.12372658620825 L 610.1694915254237,134.99697361274656 L 620.0,106.25389551053006" fill="none" stroke="#3b82f6" stroke-width="2" stroke-linecap="round" stroke-linejoin="round" />
<path d="M 40.0,95.6698772697932 L 49.83050847457627,48.508797630077424 L 59.66101694915254,111.56730046567505 L 69.49152542372882,125.72955910974322 L 79.32203389830508,127.21832963120754 L 89.15254237288136,169.96729710122221 L 98.98305084745763,80.90467167601469 L 108.8135593220339,80.92392906085385 L 118.64406779661017,149.0873738204354 L 128.47457627118644,121.0498588856028 L 138.3050847457627,118.20128107658175 L 148.135593220339,129.72450532617788 L 157.96610169491527,87.56274452807352 L 167.79661016949154,67.03979219745003 L 177.6271186440678,111.62353372004452 L 187.45762711864407,146.66063020244087 L 197.28813559322035,83.88115619731397 L 207.11864406779662,72.3770672038463 L 216.94915254237287,49.18547710318333 L 226.77966101694915,134.51562427925705 L 236.61016949152543,125.48912736175215 L 246.4406779661017,87.26300205767673 L 256.271186440678,83.4768338676008 L 266.10169491525426,63.15498327625065 L 275.93220338983053,171.835162247536 L 285.7627118644068,99.28438492409154 L 295.5932203389831,124.4067564430203 L 305.4237288135593,66.39413058473153 L 315.2542372881356,134.86385481774303 L 325.08474576271186,102.61602170954873 L 334.91525423728814,157.3218733786549 L 344.7457627118644,62.70781406635433 L 354.5762711864407,85.33731706526167 L 364.40677966101697,57.028199021123044 L 374.23728813559325,141.3707214150579 L 384.06779661016947,102.3884878638504 L 393.89830508474574,200.0 L 403.728813559322,51.51895386777292 L 413.5593220338983,134.21130210456846 L 423.3898305084746,40.0 L 433.22033898305085,135.46296242026207 L 443.0508474576271,67.47397209412975 L 452.8813559322034,59.64982043822951 L 462.7118644067797,149.6943601710468 L 472.54237288135596,142.68585109544188 L 482.3728813559322,53.14053356178886 L 492.20338983050846,77.78402928280833 L 502.03389830508473,92.92240812241135 L 511.864406779661,143.12627155955136 L 521.6949152542372,130.98501767622434 L 531.5254237288136,104.99577048562224 L 541.3559322033898,77.87049936931342 L 551.1864406779662,56.023191996995564 L 561.0169491525423,89.70025392841364 L 570.8474576271186,64.55419518660077 L 580.6779661016949,111.18559650603046 L 590.5084745762712,136.48376206328913 L 600.3389830508474,124.80268909878534 L 610.1694915254237,136.4670185762187 L 620.0,96.58818986431163" fill="none" stroke="#10b981" stroke-width="2" stroke-linecap="round" stroke-linejoin="round" />
<path d="M 40.0,71.8825264573353 L 49.83050847457627,107.64700912818529 L 59.66101694915254,172.22800196451175 L 69.49152542372882,110.80581800952348 L 79.32203389830508,135.1685220542426 L 89.15254237288136,148.15871996695665 L 98.98305084745763,133.53672646041463 L 108.8135593220339,148.97284850660714 L 118.64406779661017,98.30935638306455 L 128.47457627118644,163.41645727059756 L 138.3050847457627,143.59544910945408 L 148.135593220339,117.4708700411708 L 157.96610169491527,91.91730065126407 L 167.79661016949154,44.811896831893876 L 177.6271186440678,101.52989890662539 L 187.45762711864407,116.82930257139974 L 197.28813559322035,100.77139679499703 L 207.11864406779662,193.18948862860617 L 216.94915254237287,99.80652127231467 L 226.77966101694915,111.13581497155118 L 236.61016949152543,142.59623431270964 L 246.4406779661017,155.02781744104436 L 256.271186440678,147.39095167875647 L 266.10169491525426,149.15958862235823 L 275.93220338983053,106.11989726627539 L 285.7627118644068,109.0056378715903 L 295.5932203389831,134.49627077395778 L 305.4237288135593,145.5999322629697 L 315.2542372881356,148.53681522859983 L 325.08474576271186,84.6455729043911 L 334.91525423728814,121.28393472056585 L 344.7457627118644,171.8551422062099 L 354.5762711864407,116.99773371563155 L 364.40677966101697,200.0 L 374.23728813559325,86.91397201247759 L 384.06779661016947,130.58528423775238 L 393.89830508474574,143.34666727032297 L 403.728813559322,97.94923552386989 L 413.5593220338983,192.43704012429643 L 423.3898305084746,69.66988805743864 L 433.22033898305085,148.75996841892047 L 443.0508474576271,136.207202629013 L 452.8813559322034,121.51270813501866 L 462.7118644067797,40.0 L 472.54237288135596,66.52209361491083 L 482.3728813559322,134.20889711336042 L 492.20338983050846,177.4525118426637 L 502.03389830508473,174.15496067471543 L 511.864406779661,129.14077144243598 L 521.6949152542372,123.31064059220276 L 531.5254237288136,131.91738923609026 L 541.3559322033898,114.06671676302511 L 551.1864406779662,184.97529242540216 L 561.0169491525423,175.01598551383475 L 570.8474576271186,125.78557832526766 L 580.6779661016949,130.97111931983727 L 590.5084745762712,79.53268215060612 L 600.3389830508474,158.084183111328 L 610.1694915254237,130.6988839297943 L 620.0,182.5456736977323" fill="none" stroke="#f59e0b" stroke-width="2" stroke-linecap="round" stroke-linejoin="round" />
<path d="M 40.0,120.70236448744767 L 49.83050847457627,72.33370847098055 L 59.66101694915254,116.75021865167692 L 69.49152542372882,91.7350212664516 L 79.32203389830508,113.86206081002635 L 89.15254237288136,90.09582465222935 L 98.98305084745763,100.1836494218212 L 108.8135593220339,83.91126999872937 L 118.64406779661017,96.80269857453644 L 128.47457627118644,178.0440855825522 L 138.3050847457627,182.15791885829879 L 148.135593220339,82.53025367755329 L 157.96610169491527,117.06036297772 L 167.79661016949154,118.54245337358846 L 177.6271186440678,120.72040820543067 L 187.45762711864407,99.51962793865988 L 197.28813559322035,143.9597361901734 L 207.11864406779662,200.0 L 216.94915254237287,140.56402999109338 L 226.77966101694915,133.55079199248476 L 236.61016949152543,90.73654169644315 L 246.4406779661017,95.61089255331196 L 256.271186440678,100.16995258236821 L 266.10169491525426,146.0912440439377 L 275.93220338983053,122.47191096017023 L 285.7627118644068,94.0417317634319 L 295.5932203389831,132.0711333168973 L 305.4237288135593,126.65883667532873 L 315.2542372881356,94.46520063204618 L 325.08474576271186,145.3112791487547 L 334.91525423728814,170.65488343567347 L 344.7457627118644,101.29810821959437 L 354.5762711864407,132.20791377416208 L 364.40677966101697,124.21495835632443 L 374.23728813559325,95.23163553257564 L 384.06779661016947,40.0 L 393.89830508474574,127.04690076287724 L 403.728813559322,93.39672584196433 L 413.5593220338983,143.3574490202145 L 423.3898305084746,62.17306012697293 L 433.22033898305085,120.81825805704392 L 443.0508474576271,132.07858444123622 L 452.8813559322034,89.75915319535041 L 462.7118644067797,168.04067718836816 L 472.54237288135596,118.68769694361133 L 482.3728813559322,85.60734836767197 L 492.20338983050846,130.05754235375517 L 502.03389830508473,82.63333958208491 L 511.864406779661,138.48305165647685 L 521.6949152542372,75.32226886412673 L 531.5254237288136,90.14543532694724 L 541.3559322033898,155.4378057732865 L 551.1864406779662,123.99069785235012 L 561.0169491525423,140.68796428767968 L 570.8474576271186,140.57868017852812 L 580.6779661016949,75.00620001229214 L 590.5084745762712,137.47573351800844 L 600.3389830508474,120.62308505541742 L 610.1694915254237,107.19956878289258 L 620.0,125.635388261335" fill="none" stroke="#8b5cf6" stroke-width="2" stroke-linecap="round" stroke-linejoin="round" />
<path d="M 40.0,107.89709255900402 L 49.83050847457627,158.86146791129136 L 59.66101694915254,97.38409515728607 L 69.49152542372882,113.9954334567474 L 79.32203389830508,116.39374922448002 L 89.15254237288136,154.64569118153554 L 98.98305084745763,118.29812224123528 L 108.8135593220339,142.11133956843673 L 118.64406779661017,134.4664797635502 L 128.47457627118644,129.67647366792102 L 138.3050847457627,182.40399394298305 L 148.135593220339,125.92523470242563 L 157.96610169491527,100.03146224009288 L 167.79661016949154,152.5427651564044 L 177.6271186440678,161.66129753415083 L 187.45762711864407,140.2498052300681 L 197.28813559322035,138.36754010774104 L 207.11864406779662,116.05786062474155 L 216.94915254237287,121.92327241593043 L 226.77966101694915,153.2547611090045 L 236.61016949152543,166.46897115078775 L 246.4406779661017,125.63878818904101 L 256.271186440678,110.0197695460397 L 266.10169491525426,40.0 L 275.93220338983053,200.0 L 285.7627118644068,135.71842713884382 L 295.5932203389831,124.01796817909249 L 305.4237288135593,109.61545251155526 L 315.2542372881356,152.1367928443651 L 325.08474576271186,141.3045464576319 L 334.91525423728814,149.8902696432965 L 344.7457627118644,114.62498881010342 L 354.5762711864407,192.77695133202087 L 364.40677966101697,138.11309296790606 L 374.23728813559325,74.8367884772203 L 384.06779661016947,103.16064561504929 L 393.89830508474574,145.7029523343864 L 403.728813559322,105.88517743082721 L 413.5593220338983,181.54996603599204 L 423.3898305084746,170.26647179996633 L 433.22033898305085,147.32866207725885 L 443.0508474576271,147.64243990215647 L 452.8813559322034,175.518539479706 L 462.7118644067797,162.85413268540276 L 472.54237288135596,106.64535187905912 L 482.3728813559322,133.60887964158158 L 492.20338983050846,54.96539307674726 L 502.03389830508473,161.6333008279007 L 511.864406779661,116.84862363283295 L 521.6949152542372,166.5541874501813 L 531.5254237288136,87.67899863255458 L 541.3559322033898,143.43961017144107 L 551.1864406779662,166.22508627601178 L 561.0169491525423,152.89822730617226 L 570.8474576271186,156.15586289727716 L 580.6779661016949,123.90127987744067 L 590.5084745762712,113.99204992177006 L 600.3389830508474,140.9206559840122 L 610.1694915254237,131.76285277064943 L 620.0,120.64672683242881" fill="none" stroke="#0ea5e9" stroke-width="2" stroke-linecap="round" stroke-linejoin="round" />
<rect x="45" y="5" width="10" height="10" rx="2" fill="#3b82f6" />
<text x="60" y="14" fill="#94a3b8" font-family="Inter, sans-serif" font-size="10">M1 (Conveyor A)</text>
<rect x="160" y="5" width="10" height="10" rx="2" fill="#10b981" />
<text x="175" y="14" fill="#94a3b8" font-family="Inter, sans-serif" font-size="10">M2 (Motor Unit)</text>
<rect x="275" y="5" width="10" height="10" rx="2" fill="#f59e0b" />
<text x="290" y="14" fill="#94a3b8" font-family="Inter, sans-serif" font-size="10">M3 (Pump Unit)</text>
<rect x="390" y="5" width="10" height="10" rx="2" fill="#8b5cf6" />
<text x="405" y="14" fill="#94a3b8" font-family="Inter, sans-serif" font-size="10">M4 (Compressor)</text>
<rect x="505" y="5" width="10" height="10" rx="2" fill="#0ea5e9" />
<text x="520" y="14" fill="#94a3b8" font-family="Inter, sans-serif" font-size="10">M5 (Packaging)</text>
</svg>