<svg viewBox="0 0 650 250" width="100%" height="250" xmlns="http://www.w3.org/2000/svg" style="background:#0d131f; border-radius:8px; border:1px solid #232d45; padding: 10px;">
<line x1="40" y1="30" x2="40" y2="210" stroke="#232d45" stroke-width="1" />
<line x1="40" y1="210" x2="620" y2="210" stroke="#232d45" stroke-width="1" />
<line x1="40" y1="30" x2="620" y2="30" stroke="#1e293b" stroke-dasharray="3,3" stroke-width="1" />
<line x1="40" y1="75" x2="620" y2="75" stroke="#1e293b" stroke-dasharray="3,3" stroke-width="1" />
<line x1="40" y1="120" x2="620" y2="120" stroke="#1e293b" stroke-dasharray="3,3" stroke-width="1" />
<line x1="40" y1="165" x2="620" y2="165" stroke="#1e293b" stroke-dasharray="3,3" stroke-width="1" />
<line x1="40" y1="210" x2="620" y2="210" stroke="#1e293b" stroke-dasharray="3,3" stroke-width="1" />
<path d="M 40.0,146.02659019651597 L 49.83050847457627,113.51928351152536 L 59.66101694915254,114.43058901264587 L 69.49152542372882,163.84274152665455 L 79.32203389830508,74.29273134705838 L 89.15254237288136,86.93888366191706 L 98.98305084745763,88.97266188896384 L 108.8135593220339,134.91608056403032 L 118.64406779661017,146.3545583676885 L 128.47457627118644,143.99765362405623 L 138.3050847457627,56.67874776365224 L 148.135593220339,114.56068911562569 L 157.96610169491527,91.24570105396177 L 167.79661016949154,64.7472468635433 L 177.6271186440678,121.58550615603136 L 187.45762711864407,88.22993083278462 L 197.28813559322035,124.59341544651245 L 207.11864406779662,141.45844674256023 L 216.94915254237287,67.09118609347115 L 226.77966101694915,99.69413575446559 L 236.61016949152543,83.3030833442401 L 246.4406779661017,180.10362669952394 L 256.271186440678,152.71195551011525 L 266.10169491525426,97.63832130199687 L 275.93220338983053,124.92493711102071 L 285.7627118644068,88.44654830640528 L 295.5932203389831,109.67600465760879 L 305.4237288135593,77.64889936494882 L 315.2542372881356,110.81271339644367 L 325.08474576271186,64.77450027063188 L 334.91525423728814,127.44643367635877 L 344.7457627118644,139.21315322592056 L 354.5762711864407,124.90250725454453 L 364.40677966101697,129.05075573029555 L 374.23728813559325,141.26678889805757 L 384.06779661016947,98.64483680140209 L 393.89830508474574,200.0 L 403.728813559322,124.0873965834939 L 413.5593220338983,119.8482715906271 L 423.3898305084746,101.81354846868139 L 433.22033898305085,111.9823480191527 L 443.0508474576271,162.42523454684596 L 452.8813559322034,68.43986070019264 L 462.7118644067797,121.5239046376384 L 472.54237288135596,40.0 L 482.3728813559322,52.69659908530832 L 492.20338983050846,163.55891716648387 L 502.03389830508473,131.84062388778693 L 511.864406779661,88.06331799560019 L 521.6949152542372,123.60272700830548 L 531.5254237288136,139.5781410743332 L 541.3559322033898,78.97885603679379 L 551.1864406779662,62.06307205716581 L 561.0169491525423,88.39951787135475 L 570.8474576271186,114.79842131697367 L 580.6779661016949,166.37162544774992 L 590.5084745762712,59.457650749503415 L 600.3389830508474,91.4853575571715 L 610.1694915254237,110.77095609906857 L 620.0,96.67078218644915" fill="none" stroke="#3b82f6" stroke-width="2" stroke-linecap="round" stroke-linejoin="round" />
<path d="M 40.0,153.3269465262672 L 49.83050847457627,84.2605042186777 L 59.66101694915254,108.47256997353695 L 69.49152542372882,58.496548956888546 L 79.32203389830508,90.38367393273074 L 89.15254237288136,93.50694139347365 L 98.98305084745763,114.38498279203331 L 108.8135593220339,147.50623266576028 L 118.64406779661017,66.02108992937903 L 128.47457627118644,111.15308223338674 L 138.3050847457627,76.82629676515796 L 148.135593220339,99.98601943842088 L 157.96610169491527,74.48905970011809 L 167.79661016949154,80.39194633307147 L 177.6271186440678,92.91412430186736 L 187.45762711864407,82.79105982542261 L 197.28813559322035,61.91911093877789 L 207.11864406779662,99.73234194255552 L 216.94915254237287,122.84559098908468 L 226.77966101694915,113.75116978515395 L 236.61016949152543,130.60163957027476 L 246.4406779661017,100.56687025476452 L 256.271186440678,70.17063167910072 L 266.10169491525426,94.12788392406752 L 275.93220338983053,90.72553539997551 L 285.7627118644068,102.18023515142619 L 295.5932203389831,81.75650432506 L 305.4237288135593,85.21332823023604 L 315.2542372881356,41.6817151377588 L 325.08474576271186,40.0 L 334.91525423728814,130.51536800693287 L 344.7457627118644,97.42627075918355 L 354.5762711864407,195.38643952128348 L 364.40677966101697,115.03919962686005 L 374.23728813559325,114.50753235830449 L 384.06779661016947,67.96269702159401 L 393.89830508474574,81.82322453408553 L 403.728813559322,111.63148097610645 L 413.5593220338983,66.68019185146426 L 423.3898305084746,61.618425253336284 L 433.22033898305085,156.77850778046724 L 443.0508474576271,138.3821544598563 L 452.8813559322034,51.20157306323682 L 462.7118644067797,131.32904566915744 L 472.54237288135596,158.59204778646784 L 482.3728813559322,138.96797938811108 L 492.20338983050846,72.98573030709048 L 502.03389830508473,126.40493256853937 L 511.864406779661,100.98777466744659 L 521.6949152542372,163.1219929939232 L 531.5254237288136,101.48571359979317 L 541.3559322033898,73.24293487091508 L 551.1864406779662,75.8299055831672 L 561.0169491525423,163.33447125651435 L 570.8474576271186,84.14712270921426 L 580.6779661016949,134.53982608314817 L 590.5084745762712,130.7329094792068 L 600.3389830508474,200.0 L 610.1694915254237,108.68044223705901 L 620.0,138.1818983254051" fill="none" stroke="#10b981" stroke-width="2" stroke-linecap="round" stroke-linejoin="round" />
<path d="M 40.0,106.99121762272567 L 49.83050847457627,88.18478469370564 L 59.66101694915254,140.78902696395963 L 69.49152542372882,160.3816925511863 L 79.32203389830508,161.51142339575614 L 89.15254237288136,103.59627311965481 L 98.98305084745763,113.32935308927169 L 108.8135593220339,129.91445582331056 L 118.64406779661017,68.50722460105177 L 128.47457627118644,110.79460378136477 L 138.3050847457627,84.92385228288079 L 148.135593220339,137.46526669640826 L 157.96610169491527,115.01024739144773 L 167.79661016949154,173.05758356349742 L 177.6271186440678,66.29699034461981 L 187.45762711864407,96.18472783722379 L 197.28813559322035,71.90124982355161 L 207.11864406779662,73.21622819188559 L 216.94915254237287,162.29662391024027 L 226.77966101694915,95.87289990667935 L 236.61016949152543,64.63906240059234 L 246.4406779661017,132.9936787571887 L 256.271186440678,93.180255548903 L 266.10169491525426,185.96483737174228 L 275.93220338983053,74.69945355063119 L 285.7627118644068,130.42485197797672 L 295.5932203389831,120.9363088385359 L 305.4237288135593,133.23037159016485 L 315.2542372881356,92.34491782186336 L 325.08474576271186,159.8064303727367 L 334.91525423728814,129.33864525479402 L 344.7457627118644,90.24045483785672 L 354.5762711864407,126.8706453582588 L 364.40677966101697,151.33693723334335 L 374.23728813559325,119.84219834398718 L 384.06779661016947,127.63965316406215 L 393.89830508474574,78.7743022192316 L 403.728813559322,138.20306912706104 L 413.5593220338983,200.0 L 423.3898305084746,93.74776038691012 L 433.22033898305085,92.05193186920654 L 443.0508474576271,137.89659302697117 L 452.8813559322034,70.64058677556079 L 462.7118644067797,71.95251575924266 L 472.54237288135596,143.22261233916737 L 482.3728813559322,150.53579775160242 L 492.20338983050846,166.8766456574459 L 502.03389830508473,68.60409753146888 L 511.864406779661,108.13624566614907 L 521.6949152542372,160.0542303204582 L 531.5254237288136,130.262833871209 L 541.3559322033898,130.39824954351383 L 551.1864406779662,109.526096660327 L 561.0169491525423,125.455400602953 L 570.8474576271186,48.234730718737296 L 580.6779661016949,134.0079339102657 L 590.5084745762712,110.80644867917145 L 600.3389830508474,40.0 L 610.1694915254237,142.84485754066156 L 620.0,70.4537027054339" fill="none" stroke="#f59e0b" stroke-width="2" stroke-linecap="round" stroke-linejoin="round" />
<path d="M 40.0,192.7727641002613 L 49.83050847457627,108.90989864407756 L 59.66101694915254,97.88034149483866 L 69.49152542372882,66.14241984189954 L 79.32203389830508,118.48048337439955 L 89.15254237288136,51.20617679812182 L 98.98305084745763,88.71785756899345 L 108.8135593220339,40.0 L 118.64406779661017,68.42755493779808 L 128.47457627118644,131.93653932866286 L 138.3050847457627,110.88876181746289 L 148.135593220339,152.95625787949788 L 157.96610169491527,101.13456636102883 L 167.79661016949154,100.28820947269367 L 177.6271186440678,44.452899243237255 L 187.45762711864407,112.06181231263662 L 197.28813559322035,88.71179170692403 L 207.11864406779662,125.13897826475804 L 216.94915254237287,64.19656746302985 L 226.77966101694915,102.10762238220514 L 236.61016949152543,105.52716063058847 L 246.4406779661017,157.70712034261908 L 256.271186440678,126.00560860381401 L 266.10169491525426,104.06164651810336 L 275.93220338983053,115.33764372597965 L 285.7627118644068,107.17936536676007 L 295.5932203389831,71.49694988976569 L 305.4237288135593,67.84891402614761 L 315.2542372881356,62.7418405795062 L 325.08474576271186,76.38305909654261 L 334.91525423728814,100.44217778641872 L 344.7457627118644,85.98117393571327 L 354.5762711864407,91.30241778099547 L 364.40677966101697,82.52358655628656 L 374.23728813559325,73.78461770822882 L 384.06779661016947,50.94844353542629 L 393.89830508474574,83.22994461012325 L 403.728813559322,91.62150025043012 L 413.5593220338983,98.8088084576767 L 423.3898305084746,142.73987197495637 L 433.22033898305085,135.44298845028817 L 443.0508474576271,110.90237373072316 L 452.8813559322034,108.65338508301528 L 462.7118644067797,127.31921035938183 L 472.54237288135596,68.17930722479866 L 482.3728813559322,108.37095381374385 L 492.20338983050846,128.14059956360774 L 502.03389830508473,79.86196343420579 L 511.864406779661,121.60614608397287 L 521.6949152542372,136.4399232276548 L 531.5254237288136,134.22858505123406 L 541.3559322033898,100.79626444320583 L 551.1864406779662,84.37440450867983 L 561.0169491525423,106.30658011750087 L 570.8474576271186,92.62516698099694 L 580.6779661016949,95.66800031953863 L 590.5084745762712,51.57370162594552 L 600.3389830508474,200.0 L 610.1694915254237,71.27280077356096 L 620.0,121.70999217130249" fill="none" stroke="#8b5cf6" stroke-width="2" stroke-linecap="round" stroke-linejoin="round" />
<path d="M 40.0,156.37498843108 L 49.83050847457627,67.82769710202109 L 59.66101694915254,142.94061487738122 L 69.49152542372882,80.51539984263357 L 79.32203389830508,157.55526948976825 L 89.15254237288136,119.1658837458609 L 98.98305084745763,143.043419804755 L 108.8135593220339,156.21536067841507 L 118.64406779661017,116.06493342359136 L 128.47457627118644,134.3263733374451 L 138.3050847457627,81.12600915146075 L 148.135593220339,158.02351581269122 L 157.96610169491527,54.37162253417111 L 167.79661016949154,101.03781485177049 L 177.6271186440678,116.91101105516593 L 187.45762711864407,120.40004480193592 L 197.28813559322035,112.48165501450057 L 207.11864406779662,96.27219387345703 L 216.94915254237287,157.40234586354256 L 226.77966101694915,67.07625048230358 L 236.61016949152543,176.14748037445597 L 246.4406779661017,80.17634922828438 L 256.271186440678,92.88485069465949 L 266.10169491525426,85.3836440343971 L 275.93220338983053,147.94841463333643 L 285.7627118644068,103.83776343243704 L 295.5932203389831,116.85514723057562 L 305.4237288135593,82.81972206348524 L 315.2542372881356,127.68508006219197 L 325.08474576271186,109.09060476875986 L 334.91525423728814,106.34405136853553 L 344.7457627118644,125.12198938859474 L 354.5762711864407,96.57756833960646 L 364.40677966101697,183.47290096843548 L 374.23728813559325,132.39162725716432 L 384.06779661016947,164.54268526628522 L 393.89830508474574,150.2541942690662 L 403.728813559322,109.32721815341569 L 413.5593220338983,179.93047301036677 L 423.3898305084746,57.23274169608172 L 433.22033898305085,108.7317344389231 L 443.0508474576271,115.40044475352431 L 452.8813559322034,40.0 L 462.7118644067797,121.41881869650284 L 472.54237288135596,100.60937460107638 L 482.3728813559322,200.0 L 492.20338983050846,101.48382518753951 L 502.03389830508473,142.08795046308012 L 511.864406779661,81.32064714177234 L 521.6949152542372,78.86611524311138 L 531.5254237288136,109.82736228410008 L 541.3559322033898,63.35841142946333 L 551.1864406779662,116.4721954992502 L 561.0169491525423,59.541630786725676 L 570.8474576271186,97.54940785543292 L 580.6779661016949,143.2662087815633 L 590.5084745762712,54.39326318033281 L 600.3389830508474,181.8841813504338 L 610.1694915254237,168.60225449753003 L 620.0,108.80581313806016" fill="none" stroke="#0ea5e9" stroke-width="2" stroke-linecap="round" stroke-linejoin="round" />
<rect x="45" y="5" width="10" height="10" rx="2" fill="#3b82f6" />
<text x="60" y="14" fill="#94a3b8" font-family="Inter, sans-serif" font-size="10">M1 (Conveyor A)</text>
<rect x="160" y="5" width="10" height="10" rx="2" fill="#10b981" />
<text x="175" y="14" fill="#94a3b8" font-family="Inter, sans-serif" font-size="10">M2 (Motor Unit)</text>
<rect x="275" y="5" width="10" height="10" rx="2" fill="#f59e0b" />
<text x="290" y="14" fill="#94a3b8" font-family="Inter, sans-serif" font-size="10">M3 (Pump Unit)</text>
<rect x="390" y="5" width="10" height="10" rx="2" fill="#8b5cf6" />
<text x="405" y="14" fill="#94a3b8" font-family="Inter, sans-serif" font-size="10">M4 (Compressor)</text>
<rect x="505" y="5" width="10" height="10" rx="2" fill="#0ea5e9" />
<text x="520" y="14" fill="#94a3b8" font-family="Inter, sans-serif" font-size="10">M5 (Packaging)</text>
</svg>