<svg viewBox="0 0 650 250" width="100%" height="250" xmlns="http://www.w3.org/2000/svg" style="background:#0d131f; border-radius:8px; border:1px solid #232d45; padding: 10px;">
<line x1="40" y1="30" x2="40" y2="210" stroke="#232d45" stroke-width="1" />
<line x1="40" y1="210" x2="620" y2="210" stroke="#232d45" stroke-width="1" />
<line x1="40" y1="30" x2="620" y2="30" stroke="#1e293b" stroke-dasharray="3,3" stroke-width="1" />
<line x1="40" y1="75" x2="620" y2="75" stroke="#1e293b" stroke-dasharray="3,3" stroke-width="1" />
<line x1="40" y1="120" x2="620" y2="120" stroke="#1e293b" stroke-dasharray="3,3" stroke-width="1" />
<line x1="40" y1="165" x2="620" y2="165" stroke="#1e293b" stroke-dasharray="3,3" stroke-width="1" />
<line x1="40" y1="210" x2="620" y2="210" stroke="#1e293b" stroke-dasharray="3,3" stroke-width="1" />
<path d="M 40.0,150.31686203482803 L 49.83050847457627,40.0 L 59.66101694915254,140.3584902346801 L 69.49152542372882,137.5222740859019 L 79.32203389830508,143.6073284204519 L 89.15254237288136,76.67551029188674 L 98.98305084745763,139.17622162326515 L 108.8135593220339,80.78635778662515 L 118.64406779661017,123.02425771180224 L 128.47457627118644,98.12871020402795 L 138.3050847457627,156.16565591262383 L 148.135593220339,82.37373516969826 L 157.96610169491527,125.26482311449828 L 167.79661016949154,76.55715020913073 L 177.6271186440678,115.44048726719231 L 187.45762711864407,116.2202869864621 L 197.28813559322035,92.26090139449431 L 207.11864406779662,74.95812914647476 L 216.94915254237287,200.0 L 226.77966101694915,124.65665873352745 L 236.61016949152543,145.55730593220818 L 246.4406779661017,130.68734135636237 L 256.271186440678,121.80691327594867 L 266.10169491525426,107.52157488149459 L 275.93220338983053,114.38316651681843 L 285.7627118644068,110.60615225487412 L 295.5932203389831,135.77791888699375 L 305.4237288135593,125.43856789230287 L 315.2542372881356,111.9472873838694 L 325.08474576271186,116.35703827207811 L 334.91525423728814,132.52611351412926 L 344.7457627118644,140.41168331132064 L 354.5762711864407,87.71465878789195 L 364.40677966101697,148.5844034307234 L 374.23728813559325,93.20988571209767 L 384.06779661016947,143.05823880603114 L 393.89830508474574,120.3386845530852 L 403.728813559322,104.99612141171548 L 413.5593220338983,108.06148752762141 L 423.3898305084746,104.93544000971751 L 433.22033898305085,138.4270581072958 L 443.0508474576271,134.78940984398054 L 452.8813559322034,81.722444810851 L 462.7118644067797,109.52592590428594 L 472.54237288135596,56.45114841046987 L 482.3728813559322,101.17312722821332 L 492.20338983050846,133.4897259239363 L 502.03389830508473,105.6284152516244 L 511.864406779661,58.49836538850272 L 521.6949152542372,134.25761424018276 L 531.5254237288136,132.12680862804098 L 541.3559322033898,87.35278003422566 L 551.1864406779662,109.16314550928455 L 561.0169491525423,123.80588412782302 L 570.8474576271186,79.2628755022449 L 580.6779661016949,167.94593165426534 L 590.5084745762712,91.29760617060656 L 600.3389830508474,109.79851446766335 L 610.1694915254237,117.1621002119627 L 620.0,132.84337757200404" fill="none" stroke="#3b82f6" stroke-width="2" stroke-linecap="round" stroke-linejoin="round" />
<path d="M 40.0,129.74444596595617 L 49.83050847457627,94.46235816351572 L 59.66101694915254,128.58868719666896 L 69.49152542372882,81.26553619309142 L 79.32203389830508,126.74789905255895 L 89.15254237288136,154.39088708540413 L 98.98305084745763,141.35031054027417 L 108.8135593220339,143.70241666009508 L 118.64406779661017,66.64629747708415 L 128.47457627118644,40.0 L 138.3050847457627,122.40637994523786 L 148.135593220339,173.31560578838557 L 157.96610169491527,106.83962802664206 L 167.79661016949154,193.39860013536338 L 177.6271186440678,106.59597680674034 L 187.45762711864407,110.82118530743409 L 197.28813559322035,106.66167069574738 L 207.11864406779662,47.13177105035132 L 216.94915254237287,129.48086067994902 L 226.77966101694915,170.68475491392266 L 236.61016949152543,165.57137054150584 L 246.4406779661017,106.80393621762389 L 256.271186440678,132.98847892770533 L 266.10169491525426,127.75646028827767 L 275.93220338983053,108.57532236330975 L 285.7627118644068,105.08786266608922 L 295.5932203389831,116.47616636092509 L 305.4237288135593,113.99963061617377 L 315.2542372881356,122.13942403487444 L 325.08474576271186,107.30155787666222 L 334.91525423728814,58.63235945447536 L 344.7457627118644,107.47263932220854 L 354.5762711864407,200.0 L 364.40677966101697,149.4528645135589 L 374.23728813559325,117.04694956818172 L 384.06779661016947,198.1703481332102 L 393.89830508474574,112.88997579695368 L 403.728813559322,133.95810991834225 L 413.5593220338983,164.63066163197522 L 423.3898305084746,123.32475974801162 L 433.22033898305085,105.24138963252491 L 443.0508474576271,116.18984502496991 L 452.8813559322034,130.3740837401471 L 462.7118644067797,163.37660342352294 L 472.54237288135596,113.31341801742943 L 482.3728813559322,147.82446893049573 L 492.20338983050846,91.3198027901092 L 502.03389830508473,89.86603377863644 L 511.864406779661,110.69635471411229 L 521.6949152542372,103.30678134219589 L 531.5254237288136,162.59796080456033 L 541.3559322033898,101.20359598948723 L 551.1864406779662,129.60472151782818 L 561.0169491525423,135.08929339251256 L 570.8474576271186,140.98635274157817 L 580.6779661016949,176.83201074794675 L 590.5084745762712,133.76970696156738 L 600.3389830508474,76.73355304461042 L 610.1694915254237,86.53486658350792 L 620.0,121.00703222645647" fill="none" stroke="#10b981" stroke-width="2" stroke-linecap="round" stroke-linejoin="round" />
<path d="M 40.0,77.07556368030468 L 49.83050847457627,97.40303559954704 L 59.66101694915254,110.45560561313366 L 69.49152542372882,161.51121434218024 L 79.32203389830508,122.68473303464833 L 89.15254237288136,119.45567526914562 L 98.98305084745763,40.0 L 108.8135593220339,107.77425146471924 L 118.64406779661017,164.78993261695615 L 128.47457627118644,131.67139010300343 L 138.3050847457627,181.3363786622589 L 148.135593220339,189.49638636608398 L 157.96610169491527,103.69107171925106 L 167.79661016949154,139.22704014133504 L 177.6271186440678,78.04249396238691 L 187.45762711864407,183.8153929229475 L 197.28813559322035,173.70160513849487 L 207.11864406779662,85.36794987664578 L 216.94915254237287,100.8730265406061 L 226.77966101694915,189.84223307548868 L 236.61016949152543,163.27024180778895 L 246.4406779661017,143.51372738495138 L 256.271186440678,180.4252084667703 L 266.10169491525426,101.24992407875266 L 275.93220338983053,137.1003506935803 L 285.7627118644068,168.55296242950192 L 295.5932203389831,79.8096687233719 L 305.4237288135593,157.95731012310185 L 315.2542372881356,91.49881666965456 L 325.08474576271186,130.929761781344 L 334.91525423728814,164.51444705153682 L 344.7457627118644,158.99993204240084 L 354.5762711864407,111.95817863745759 L 364.40677966101697,200.0 L 374.23728813559325,139.5570702564153 L 384.06779661016947,92.35724317322399 L 393.89830508474574,121.34535526065702 L 403.728813559322,174.83465380163975 L 413.5593220338983,115.23687579744649 L 423.3898305084746,155.19114759329298 L 433.22033898305085,114.84587262480062 L 443.0508474576271,57.33184999445024 L 452.8813559322034,132.65503049285235 L 462.7118644067797,125.29321960941823 L 472.54237288135596,187.58244278666757 L 482.3728813559322,117.27889251760162 L 492.20338983050846,127.75813265712054 L 502.03389830508473,127.07325821879087 L 511.864406779661,112.44954739325678 L 521.6949152542372,173.92201620386408 L 531.5254237288136,94.30633105372146 L 541.3559322033898,143.46727744845097 L 551.1864406779662,167.21896708605064 L 561.0169491525423,106.46201559887203 L 570.8474576271186,144.79220542574865 L 580.6779661016949,80.27664057497793 L 590.5084745762712,126.23126085364652 L 600.3389830508474,55.396411464229004 L 610.1694915254237,130.1377439640305 L 620.0,129.08901782713474" fill="none" stroke="#f59e0b" stroke-width="2" stroke-linecap="round" stroke-linejoin="round" />
<path d="M 40.0,118.20764908762871 L 49.83050847457627,106.38411526655263 L 59.66101694915254,200.0 L 69.49152542372882,58.652526943392445 L 79.32203389830508,136.54320457595583 L 89.15254237288136,87.8841027837175 L 98.98305084745763,116.43480311297935 L 108.8135593220339,99.90545024301709 L 118.64406779661017,127.95232969664679 L 128.47457627118644,164.69126269076665 L 138.3050847457627,152.00469046630292 L 148.135593220339,74.95548271444278 L 157.96610169491527,112.06922796775456 L 167.79661016949154,139.3345745130033 L 177.6271186440678,141.2708163892879 L 187.45762711864407,127.35565710188001 L 197.28813559322035,127.27627065829498 L 207.11864406779662,153.0840571518803 L 216.94915254237287,113.62023526398632 L 226.77966101694915,135.72806697215293 L 236.61016949152543,83.45805132359035 L 246.4406779661017,109.71312825527858 L 256.271186440678,139.4804948182958 L 266.10169491525426,96.09703986071112 L 275.93220338983053,152.084930082501 L 285.7627118644068,67.32993604399701 L 295.5932203389831,108.44711388357099 L 305.4237288135593,82.34545900931779 L 315.2542372881356,117.48190067700905 L 325.08474576271186,132.07928023849215 L 334.91525423728814,137.47449032460705 L 344.7457627118644,174.06726529012002 L 354.5762711864407,125.95824294330585 L 364.40677966101697,128.76859330752984 L 374.23728813559325,184.05192723267768 L 384.06779661016947,159.02189599380293 L 393.89830508474574,138.60627155326893 L 403.728813559322,83.9562798623972 L 413.5593220338983,117.46247359597724 L 423.3898305084746,127.62360594487296 L 433.22033898305085,72.6600534036979 L 443.0508474576271,125.90544131341797 L 452.8813559322034,151.03889467008136 L 462.7118644067797,150.70210428691837 L 472.54237288135596,166.11849710294254 L 482.3728813559322,140.61824510122946 L 492.20338983050846,120.93231948007828 L 502.03389830508473,65.75807597685713 L 511.864406779661,155.08255115352475 L 521.6949152542372,119.89067782150458 L 531.5254237288136,78.03471044522442 L 541.3559322033898,152.5443859288919 L 551.1864406779662,136.95985082453436 L 561.0169491525423,73.24843761173324 L 570.8474576271186,40.0 L 580.6779661016949,180.16394361249488 L 590.5084745762712,171.3969362300737 L 600.3389830508474,84.29064438203113 L 610.1694915254237,103.78856280912998 L 620.0,124.48489413401721" fill="none" stroke="#8b5cf6" stroke-width="2" stroke-linecap="round" stroke-linejoin="round" />
<path d="M 40.0,109.86665944025084 L 49.83050847457627,98.83119780083987 L 59.66101694915254,147.05888982141343 L 69.49152542372882,91.83534416993109 L 79.32203389830508,145.98624092085038 L 89.15254237288136,170.59812572952538 L 98.98305084745763,131.6114404075596 L 108.8135593220339,105.92473565556125 L 118.64406779661017,131.53731259873362 L 128.47457627118644,128.11344620053342 L 138.3050847457627,86.94378963448285 L 148.135593220339,149.82838469840692 L 157.96610169491527,92.55844666166638 L 167.79661016949154,128.94543880136234 L 177.6271186440678,200.0 L 187.45762711864407,154.40448491961448 L 197.28813559322035,104.24093170066652 L 207.11864406779662,141.93191551481232 L 216.94915254237287,88.94025156991538 L 226.77966101694915,141.35135941497884 L 236.61016949152543,131.99935394138083 L 246.4406779661017,169.14554746277685 L 256.271186440678,83.71915329450344 L 266.10169491525426,118.64535644834477 L 275.93220338983053,162.5063905974266 L 285.7627118644068,117.66160355405363 L 295.5932203389831,77.94334952160159 L 305.4237288135593,114.00307931635864 L 315.2542372881356,176.21319402845654 L 325.08474576271186,123.96393176376475 L 334.91525423728814,132.51383920721955 L 344.7457627118644,94.71269799570216 L 354.5762711864407,146.10050635433495 L 364.40677966101697,80.04362430755215 L 374.23728813559325,101.05821521604001 L 384.06779661016947,85.53102323017174 L 393.89830508474574,148.64830730922029 L 403.728813559322,116.96052804511038 L 413.5593220338983,125.7419505125552 L 423.3898305084746,99.19850766787512 L 433.22033898305085,110.36725944720219 L 443.0508474576271,141.60713958450157 L 452.8813559322034,66.75669983708036 L 462.7118644067797,95.58009567338681 L 472.54237288135596,143.89114136983574 L 482.3728813559322,100.87657665829616 L 492.20338983050846,161.0843847716445 L 502.03389830508473,131.57171388210458 L 511.864406779661,130.82843912517396 L 521.6949152542372,80.87644961624821 L 531.5254237288136,169.21615423628114 L 541.3559322033898,150.95400095716025 L 551.1864406779662,173.98009806740512 L 561.0169491525423,89.54174835310371 L 570.8474576271186,119.03286487172836 L 580.6779661016949,40.0 L 590.5084745762712,95.69155196084046 L 600.3389830508474,128.7290794011497 L 610.1694915254237,122.2945341953063 L 620.0,197.59593276349523" fill="none" stroke="#0ea5e9" stroke-width="2" stroke-linecap="round" stroke-linejoin="round" />
<rect x="45" y="5" width="10" height="10" rx="2" fill="#3b82f6" />
<text x="60" y="14" fill="#94a3b8" font-family="Inter, sans-serif" font-size="10">M1 (Conveyor A)</text>
<rect x="160" y="5" width="10" height="10" rx="2" fill="#10b981" />
<text x="175" y="14" fill="#94a3b8" font-family="Inter, sans-serif" font-size="10">M2 (Motor Unit)</text>
<rect x="275" y="5" width="10" height="10" rx="2" fill="#f59e0b" />
<text x="290" y="14" fill="#94a3b8" font-family="Inter, sans-serif" font-size="10">M3 (Pump Unit)</text>
<rect x="390" y="5" width="10" height="10" rx="2" fill="#8b5cf6" />
<text x="405" y="14" fill="#94a3b8" font-family="Inter, sans-serif" font-size="10">M4 (Compressor)</text>
<rect x="505" y="5" width="10" height="10" rx="2" fill="#0ea5e9" />
<text x="520" y="14" fill="#94a3b8" font-family="Inter, sans-serif" font-size="10">M5 (Packaging)</text>
</svg>