<svg viewBox="0 0 650 250" width="100%" height="250" xmlns="http://www.w3.org/2000/svg" style="background:#0d131f; border-radius:8px; border:1px solid #232d45; padding: 10px;">
<line x1="40" y1="30" x2="40" y2="210" stroke="#232d45" stroke-width="1" />
<line x1="40" y1="210" x2="620" y2="210" stroke="#232d45" stroke-width="1" />
<line x1="40" y1="30" x2="620" y2="30" stroke="#1e293b" stroke-dasharray="3,3" stroke-width="1" />
<line x1="40" y1="75" x2="620" y2="75" stroke="#1e293b" stroke-dasharray="3,3" stroke-width="1" />
<line x1="40" y1="120" x2="620" y2="120" stroke="#1e293b" stroke-dasharray="3,3" stroke-width="1" />
<line x1="40" y1="165" x2="620" y2="165" stroke="#1e293b" stroke-dasharray="3,3" stroke-width="1" />
<line x1="40" y1="210" x2="620" y2="210" stroke="#1e293b" stroke-dasharray="3,3" stroke-width="1" />
<path d="M 40.0,58.98354511145081 L 49.83050847457627,104.67222508228375 L 59.66101694915254,77.27783931802361 L 69.49152542372882,40.0 L 79.32203389830508,135.5659269238185 L 89.15254237288136,132.47879701490987 L 98.98305084745763,164.87288905140923 L 108.8135593220339,183.4652214117433 L 118.64406779661017,162.99684075548907 L 128.47457627118644,165.24032972316195 L 138.3050847457627,148.10963491388105 L 148.135593220339,140.25272409219158 L 157.96610169491527,101.59459889970404 L 167.79661016949154,148.86695387501064 L 177.6271186440678,108.11466232904203 L 187.45762711864407,97.535338521322 L 197.28813559322035,127.35191449604751 L 207.11864406779662,130.36107141470532 L 216.94915254237287,200.0 L 226.77966101694915,149.23087536261784 L 236.61016949152543,116.73503350114535 L 246.4406779661017,64.22096672968851 L 256.271186440678,109.90662607129079 L 266.10169491525426,146.34038020098234 L 275.93220338983053,160.04329688144958 L 285.7627118644068,137.62218610243502 L 295.5932203389831,144.66377042549126 L 305.4237288135593,108.11405164163588 L 315.2542372881356,145.0627721348973 L 325.08474576271186,197.59633634425177 L 334.91525423728814,155.93768549435447 L 344.7457627118644,124.45373311140366 L 354.5762711864407,133.77989160559105 L 364.40677966101697,135.12483405537552 L 374.23728813559325,99.84845598254236 L 384.06779661016947,185.412210942338 L 393.89830508474574,158.32776404641353 L 403.728813559322,197.88993796130995 L 413.5593220338983,129.88814596735344 L 423.3898305084746,147.1298240155741 L 433.22033898305085,74.95178670054442 L 443.0508474576271,181.0538836816327 L 452.8813559322034,168.23685028897438 L 462.7118644067797,149.43848039519352 L 472.54237288135596,149.33849080788093 L 482.3728813559322,110.71827521043554 L 492.20338983050846,97.75524285003115 L 502.03389830508473,114.03377271015063 L 511.864406779661,151.87731985309392 L 521.6949152542372,189.30542924495893 L 531.5254237288136,134.21600811347474 L 541.3559322033898,143.73360303601274 L 551.1864406779662,181.82199217982537 L 561.0169491525423,157.24215758711784 L 570.8474576271186,152.82298275120147 L 580.6779661016949,191.3039489274427 L 590.5084745762712,105.13952421730596 L 600.3389830508474,83.78122506235593 L 610.1694915254237,158.85690218841034 L 620.0,154.91294443839234" fill="none" stroke="#3b82f6" stroke-width="2" stroke-linecap="round" stroke-linejoin="round" />
<path d="M 40.0,134.71642182667932 L 49.83050847457627,94.65731985357445 L 59.66101694915254,136.35103209060804 L 69.49152542372882,167.94721269841165 L 79.32203389830508,95.65783707671801 L 89.15254237288136,122.47138375763615 L 98.98305084745763,122.66038388081667 L 108.8135593220339,145.67008537112707 L 118.64406779661017,145.23122062153615 L 128.47457627118644,130.973145972361 L 138.3050847457627,121.7947207698557 L 148.135593220339,139.6005214680141 L 157.96610169491527,114.66993804696742 L 167.79661016949154,136.1164948414895 L 177.6271186440678,177.02541743600207 L 187.45762711864407,163.84529127718918 L 197.28813559322035,104.77491236039823 L 207.11864406779662,102.23793902160287 L 216.94915254237287,171.62465793579872 L 226.77966101694915,130.43492037237928 L 236.61016949152543,105.64699241700174 L 246.4406779661017,169.18914468267675 L 256.271186440678,75.02826234825442 L 266.10169491525426,150.35863462111445 L 275.93220338983053,154.85548734823126 L 285.7627118644068,137.94359471192723 L 295.5932203389831,139.11826015244327 L 305.4237288135593,111.38670779628315 L 315.2542372881356,159.04650987290546 L 325.08474576271186,120.83062502736072 L 334.91525423728814,136.43982444917637 L 344.7457627118644,165.43662899975448 L 354.5762711864407,92.7666856837563 L 364.40677966101697,172.42462088649393 L 374.23728813559325,190.28495216788014 L 384.06779661016947,200.0 L 393.89830508474574,139.07664474750453 L 403.728813559322,169.3858184523178 L 413.5593220338983,138.41129809868391 L 423.3898305084746,93.8742348183093 L 433.22033898305085,189.0572017344675 L 443.0508474576271,97.33619344685394 L 452.8813559322034,125.2869361493409 L 462.7118644067797,133.6204436682964 L 472.54237288135596,146.91050120028703 L 482.3728813559322,183.16650590601515 L 492.20338983050846,146.3529883031759 L 502.03389830508473,165.66230376533466 L 511.864406779661,113.44845331116845 L 521.6949152542372,126.86095269176039 L 531.5254237288136,148.53290064857072 L 541.3559322033898,74.146862010629 L 551.1864406779662,167.8816137546408 L 561.0169491525423,171.71372359458346 L 570.8474576271186,138.7543051550034 L 580.6779661016949,125.60835291737567 L 590.5084745762712,135.41130611344443 L 600.3389830508474,160.26729797375106 L 610.1694915254237,40.0 L 620.0,113.44316236305576" fill="none" stroke="#10b981" stroke-width="2" stroke-linecap="round" stroke-linejoin="round" />
<path d="M 40.0,102.96624802028163 L 49.83050847457627,127.95910436437535 L 59.66101694915254,106.7040591295713 L 69.49152542372882,150.18005014540734 L 79.32203389830508,128.37933933718568 L 89.15254237288136,113.28471955670909 L 98.98305084745763,103.47018993319122 L 108.8135593220339,107.59291179874566 L 118.64406779661017,114.03379077770774 L 128.47457627118644,137.65225619303317 L 138.3050847457627,117.79036348076872 L 148.135593220339,121.01013180876662 L 157.96610169491527,97.9294242041474 L 167.79661016949154,130.38476273471238 L 177.6271186440678,113.37738703207853 L 187.45762711864407,60.354563600506594 L 197.28813559322035,63.712417948825276 L 207.11864406779662,108.01112293862349 L 216.94915254237287,65.66331622910928 L 226.77966101694915,88.07173070975657 L 236.61016949152543,79.02807601394366 L 246.4406779661017,115.82528865763689 L 256.271186440678,160.38692749315464 L 266.10169491525426,132.854718879262 L 275.93220338983053,143.6029904889389 L 285.7627118644068,122.54115046882612 L 295.5932203389831,124.07662745730956 L 305.4237288135593,157.73947788822545 L 315.2542372881356,143.50194559806485 L 325.08474576271186,164.36339303813202 L 334.91525423728814,138.29951749359964 L 344.7457627118644,100.18876067004939 L 354.5762711864407,144.4850976650644 L 364.40677966101697,103.04827161088556 L 374.23728813559325,122.77021262474942 L 384.06779661016947,140.41687492591052 L 393.89830508474574,93.64667200008454 L 403.728813559322,126.34508599034528 L 413.5593220338983,94.85635656608862 L 423.3898305084746,95.77139486887458 L 433.22033898305085,107.85544468352684 L 443.0508474576271,126.30837242679961 L 452.8813559322034,146.59305978336522 L 462.7118644067797,117.13326301884203 L 472.54237288135596,78.12604529970778 L 482.3728813559322,145.0448491874186 L 492.20338983050846,89.64460408073579 L 502.03389830508473,90.6846461118109 L 511.864406779661,133.5960806037835 L 521.6949152542372,52.79373986603869 L 531.5254237288136,114.90834597786616 L 541.3559322033898,95.03988552958026 L 551.1864406779662,116.39340817386888 L 561.0169491525423,101.23140744522956 L 570.8474576271186,140.224070168158 L 580.6779661016949,200.0 L 590.5084745762712,132.1458403140066 L 600.3389830508474,40.0 L 610.1694915254237,173.51497952185136 L 620.0,103.75513681953964" fill="none" stroke="#f59e0b" stroke-width="2" stroke-linecap="round" stroke-linejoin="round" />
<path d="M 40.0,83.28969192578194 L 49.83050847457627,110.37111850720174 L 59.66101694915254,119.84780885656792 L 69.49152542372882,143.6853375921567 L 79.32203389830508,60.59724085609983 L 89.15254237288136,157.0997326176382 L 98.98305084745763,104.92626246831635 L 108.8135593220339,163.75771374810878 L 118.64406779661017,100.69054347283728 L 128.47457627118644,56.85261605177314 L 138.3050847457627,167.6973016527023 L 148.135593220339,149.08050685507547 L 157.96610169491527,108.0664231889566 L 167.79661016949154,91.72098507192167 L 177.6271186440678,149.81508653722963 L 187.45762711864407,112.455733685035 L 197.28813559322035,190.73209701087498 L 207.11864406779662,157.67053248581843 L 216.94915254237287,155.54131531994716 L 226.77966101694915,139.06930532641672 L 236.61016949152543,87.86645506647453 L 246.4406779661017,175.8897059587453 L 256.271186440678,95.30570685329378 L 266.10169491525426,116.85091121256698 L 275.93220338983053,175.8935145912032 L 285.7627118644068,86.55379475769274 L 295.5932203389831,122.86058941572072 L 305.4237288135593,200.0 L 315.2542372881356,167.81610456996546 L 325.08474576271186,59.718933821435456 L 334.91525423728814,100.9960944823712 L 344.7457627118644,125.69645899157481 L 354.5762711864407,123.47814630484199 L 364.40677966101697,76.41847456102212 L 374.23728813559325,112.64522225820087 L 384.06779661016947,126.80671222522136 L 393.89830508474574,160.5552220043677 L 403.728813559322,134.37219590320632 L 413.5593220338983,174.45258970511753 L 423.3898305084746,177.42552628054122 L 433.22033898305085,190.00695884945418 L 443.0508474576271,165.1081082978191 L 452.8813559322034,153.6430337648478 L 462.7118644067797,92.92251727442363 L 472.54237288135596,149.03764370997632 L 482.3728813559322,99.86546927324832 L 492.20338983050846,136.86244559209553 L 502.03389830508473,82.73341759245504 L 511.864406779661,132.14650549260543 L 521.6949152542372,142.45067022675195 L 531.5254237288136,176.00208563921356 L 541.3559322033898,176.480786508752 L 551.1864406779662,40.0 L 561.0169491525423,112.42142305503712 L 570.8474576271186,167.87887602939034 L 580.6779661016949,105.62507815253106 L 590.5084745762712,149.77642713803485 L 600.3389830508474,131.0634699271514 L 610.1694915254237,125.26620299684943 L 620.0,171.50558312860636" fill="none" stroke="#8b5cf6" stroke-width="2" stroke-linecap="round" stroke-linejoin="round" />
<path d="M 40.0,121.10430021483425 L 49.83050847457627,118.33198229454071 L 59.66101694915254,83.47176740727681 L 69.49152542372882,116.84405197721645 L 79.32203389830508,164.82147858219872 L 89.15254237288136,112.66921552299766 L 98.98305084745763,80.65679467259983 L 108.8135593220339,91.65830167611433 L 118.64406779661017,118.31409303431636 L 128.47457627118644,117.83023952362471 L 138.3050847457627,143.89409295236953 L 148.135593220339,200.0 L 157.96610169491527,91.4304580900687 L 167.79661016949154,192.96538713492865 L 177.6271186440678,182.0398259529174 L 187.45762711864407,67.77068495652219 L 197.28813559322035,77.36995757247378 L 207.11864406779662,75.12127286490187 L 216.94915254237287,193.21041228308954 L 226.77966101694915,147.39603853340057 L 236.61016949152543,92.78533694567582 L 246.4406779661017,109.2868286854509 L 256.271186440678,91.3429911169787 L 266.10169491525426,128.84998195874104 L 275.93220338983053,124.25589624885492 L 285.7627118644068,109.75753434700451 L 295.5932203389831,137.91838022101945 L 305.4237288135593,103.23512581815272 L 315.2542372881356,124.14656606931307 L 325.08474576271186,75.24649006950342 L 334.91525423728814,141.49332740007176 L 344.7457627118644,162.37504974544333 L 354.5762711864407,56.152361282775615 L 364.40677966101697,68.77192215633906 L 374.23728813559325,98.81641503091929 L 384.06779661016947,73.36952126411973 L 393.89830508474574,168.99274869207872 L 403.728813559322,102.24621952983362 L 413.5593220338983,76.48702378390223 L 423.3898305084746,142.12232925822576 L 433.22033898305085,136.25053304600527 L 443.0508474576271,121.98635064870112 L 452.8813559322034,93.17124409946216 L 462.7118644067797,139.62140298717225 L 472.54237288135596,128.439812697757 L 482.3728813559322,95.66369597640475 L 492.20338983050846,179.98930692664084 L 502.03389830508473,40.0 L 511.864406779661,84.35813275938915 L 521.6949152542372,159.55650791274846 L 531.5254237288136,59.82686623566045 L 541.3559322033898,171.531461662438 L 551.1864406779662,109.79780165453484 L 561.0169491525423,89.84185065133344 L 570.8474576271186,123.94777734139205 L 580.6779661016949,101.92511528740154 L 590.5084745762712,89.99212307322013 L 600.3389830508474,94.20629421788527 L 610.1694915254237,166.70773690775326 L 620.0,125.22762804274112" fill="none" stroke="#0ea5e9" stroke-width="2" stroke-linecap="round" stroke-linejoin="round" />
<rect x="45" y="5" width="10" height="10" rx="2" fill="#3b82f6" />
<text x="60" y="14" fill="#94a3b8" font-family="Inter, sans-serif" font-size="10">M1 (Conveyor A)</text>
<rect x="160" y="5" width="10" height="10" rx="2" fill="#10b981" />
<text x="175" y="14" fill="#94a3b8" font-family="Inter, sans-serif" font-size="10">M2 (Motor Unit)</text>
<rect x="275" y="5" width="10" height="10" rx="2" fill="#f59e0b" />
<text x="290" y="14" fill="#94a3b8" font-family="Inter, sans-serif" font-size="10">M3 (Pump Unit)</text>
<rect x="390" y="5" width="10" height="10" rx="2" fill="#8b5cf6" />
<text x="405" y="14" fill="#94a3b8" font-family="Inter, sans-serif" font-size="10">M4 (Compressor)</text>
<rect x="505" y="5" width="10" height="10" rx="2" fill="#0ea5e9" />
<text x="520" y="14" fill="#94a3b8" font-family="Inter, sans-serif" font-size="10">M5 (Packaging)</text>
</svg>