<svg viewBox="0 0 650 250" width="100%" height="250" xmlns="http://www.w3.org/2000/svg" style="background:#0d131f; border-radius:8px; border:1px solid #232d45; padding: 10px;">
<line x1="40" y1="30" x2="40" y2="210" stroke="#232d45" stroke-width="1" />
<line x1="40" y1="210" x2="620" y2="210" stroke="#232d45" stroke-width="1" />
<line x1="40" y1="30" x2="620" y2="30" stroke="#1e293b" stroke-dasharray="3,3" stroke-width="1" />
<line x1="40" y1="75" x2="620" y2="75" stroke="#1e293b" stroke-dasharray="3,3" stroke-width="1" />
<line x1="40" y1="120" x2="620" y2="120" stroke="#1e293b" stroke-dasharray="3,3" stroke-width="1" />
<line x1="40" y1="165" x2="620" y2="165" stroke="#1e293b" stroke-dasharray="3,3" stroke-width="1" />
<line x1="40" y1="210" x2="620" y2="210" stroke="#1e293b" stroke-dasharray="3,3" stroke-width="1" />
<path d="M 40.0,132.11555461474035 L 49.83050847457627,139.1026738586767 L 59.66101694915254,153.63977281920867 L 69.49152542372882,170.64794033872823 L 79.32203389830508,121.36887638814484 L 89.15254237288136,127.59610198766538 L 98.98305084745763,132.62562829470556 L 108.8135593220339,93.61594314693251 L 118.64406779661017,112.74527382006096 L 128.47457627118644,135.11203605534595 L 138.3050847457627,133.87788407031906 L 148.135593220339,107.52306278640549 L 157.96610169491527,115.5024875391916 L 167.79661016949154,123.3225697056994 L 177.6271186440678,106.40338407176483 L 187.45762711864407,123.31518540688518 L 197.28813559322035,169.90874464893807 L 207.11864406779662,122.82643750187167 L 216.94915254237287,120.88574075310675 L 226.77966101694915,115.48699926497858 L 236.61016949152543,145.33239095042447 L 246.4406779661017,139.05193332291404 L 256.271186440678,97.38729789604471 L 266.10169491525426,123.54829650802954 L 275.93220338983053,140.63700699241886 L 285.7627118644068,154.77199916693937 L 295.5932203389831,114.61110284581879 L 305.4237288135593,117.02384018046126 L 315.2542372881356,130.90078013054756 L 325.08474576271186,147.60218020356 L 334.91525423728814,127.18777809948352 L 344.7457627118644,155.70508516581776 L 354.5762711864407,126.64188987973321 L 364.40677966101697,114.3667705660524 L 374.23728813559325,106.43555320130682 L 384.06779661016947,156.59231579607163 L 393.89830508474574,122.50058395639805 L 403.728813559322,98.51201404978916 L 413.5593220338983,124.41385729991782 L 423.3898305084746,134.3075295094581 L 433.22033898305085,200.0 L 443.0508474576271,102.52964162288254 L 452.8813559322034,178.58325053498598 L 462.7118644067797,136.53771144168218 L 472.54237288135596,175.71918774295088 L 482.3728813559322,166.00239476980425 L 492.20338983050846,152.86304123670777 L 502.03389830508473,122.978975901702 L 511.864406779661,40.0 L 521.6949152542372,137.00003805363758 L 531.5254237288136,109.62159899821285 L 541.3559322033898,105.04931485765461 L 551.1864406779662,149.1664031995434 L 561.0169491525423,100.47354584303642 L 570.8474576271186,113.53294167231616 L 580.6779661016949,152.70433237928236 L 590.5084745762712,139.308638239238 L 600.3389830508474,160.65661219644554 L 610.1694915254237,164.25354259380265 L 620.0,121.61812473285367" fill="none" stroke="#3b82f6" stroke-width="2" stroke-linecap="round" stroke-linejoin="round" />
<path d="M 40.0,103.46204064507226 L 49.83050847457627,193.5691516901104 L 59.66101694915254,161.35435111041514 L 69.49152542372882,147.80432465623898 L 79.32203389830508,132.59699242586257 L 89.15254237288136,101.13624254327478 L 98.98305084745763,200.0 L 108.8135593220339,82.2493684442371 L 118.64406779661017,129.59890469423885 L 128.47457627118644,126.80922233749841 L 138.3050847457627,138.6131497074088 L 148.135593220339,75.53445457192652 L 157.96610169491527,120.170035269352 L 167.79661016949154,90.78482554358048 L 177.6271186440678,131.8582576888494 L 187.45762711864407,140.2579829930404 L 197.28813559322035,88.03560456058784 L 207.11864406779662,113.40134329520407 L 216.94915254237287,87.45747721305807 L 226.77966101694915,110.52089106335642 L 236.61016949152543,74.60402461859518 L 246.4406779661017,76.81866550683199 L 256.271186440678,164.720700365966 L 266.10169491525426,71.44401995283957 L 275.93220338983053,96.24961315895425 L 285.7627118644068,130.83822008866807 L 295.5932203389831,130.55000933886396 L 305.4237288135593,110.68149961482848 L 315.2542372881356,101.4778885690297 L 325.08474576271186,104.84548320704576 L 334.91525423728814,161.8705922715479 L 344.7457627118644,136.07239444684814 L 354.5762711864407,80.32113761430958 L 364.40677966101697,136.63765968218956 L 374.23728813559325,122.73371330772058 L 384.06779661016947,175.24034838731768 L 393.89830508474574,130.61140087202904 L 403.728813559322,81.78889460942591 L 413.5593220338983,115.05041016433509 L 423.3898305084746,140.05379584026284 L 433.22033898305085,118.64299685076259 L 443.0508474576271,154.5613860528556 L 452.8813559322034,68.13216477640637 L 462.7118644067797,98.43711827617996 L 472.54237288135596,129.798654838108 L 482.3728813559322,141.43199952127134 L 492.20338983050846,85.0133516928648 L 502.03389830508473,146.5073150063755 L 511.864406779661,129.2187631531278 L 521.6949152542372,117.08869936574409 L 531.5254237288136,153.7785599002633 L 541.3559322033898,61.758702035590176 L 551.1864406779662,137.37702679943303 L 561.0169491525423,125.49193564140315 L 570.8474576271186,40.0 L 580.6779661016949,139.70777361404578 L 590.5084745762712,139.6865511646995 L 600.3389830508474,109.20510292321794 L 610.1694915254237,137.5613784046798 L 620.0,138.12980632139556" fill="none" stroke="#10b981" stroke-width="2" stroke-linecap="round" stroke-linejoin="round" />
<path d="M 40.0,200.0 L 49.83050847457627,190.52678130464372 L 59.66101694915254,51.491213534726626 L 69.49152542372882,94.72443625380505 L 79.32203389830508,148.54687889777784 L 89.15254237288136,81.77128271183749 L 98.98305084745763,44.91172400388359 L 108.8135593220339,158.72192808406334 L 118.64406779661017,79.6802822517522 L 128.47457627118644,77.0968895886281 L 138.3050847457627,123.93202270224427 L 148.135593220339,141.06771640638704 L 157.96610169491527,87.87923673508745 L 167.79661016949154,82.48286276437638 L 177.6271186440678,55.12524417600565 L 187.45762711864407,105.88591806773714 L 197.28813559322035,96.92444469600402 L 207.11864406779662,106.55224622754466 L 216.94915254237287,76.21458036019965 L 226.77966101694915,101.31060720200823 L 236.61016949152543,150.95302094524877 L 246.4406779661017,128.04211201779444 L 256.271186440678,176.3508290354563 L 266.10169491525426,93.6807199394297 L 275.93220338983053,99.55440771372318 L 285.7627118644068,143.91489528031173 L 295.5932203389831,139.5834155268923 L 305.4237288135593,114.17469809449773 L 315.2542372881356,89.86095474363185 L 325.08474576271186,54.26466093023322 L 334.91525423728814,79.48380038817048 L 344.7457627118644,58.90584729249986 L 354.5762711864407,44.940707327912406 L 364.40677966101697,139.07143830392698 L 374.23728813559325,154.2654581078992 L 384.06779661016947,53.20851670571702 L 393.89830508474574,65.35712507777774 L 403.728813559322,102.22036036458236 L 413.5593220338983,116.39001456230316 L 423.3898305084746,139.3663357037653 L 433.22033898305085,119.79093664171616 L 443.0508474576271,40.0 L 452.8813559322034,168.92303185320424 L 462.7118644067797,55.82869586816719 L 472.54237288135596,121.45252498571823 L 482.3728813559322,132.39319015538683 L 492.20338983050846,163.82963121583938 L 502.03389830508473,129.9759129856077 L 511.864406779661,142.10557439964657 L 521.6949152542372,91.31569384186706 L 531.5254237288136,173.2034861822522 L 541.3559322033898,99.68835606454056 L 551.1864406779662,72.85701134524602 L 561.0169491525423,89.99092354234064 L 570.8474576271186,57.42156600336526 L 580.6779661016949,93.8138535482704 L 590.5084745762712,115.40261720542301 L 600.3389830508474,171.98224720364254 L 610.1694915254237,135.9889570065855 L 620.0,152.93407574524332" fill="none" stroke="#f59e0b" stroke-width="2" stroke-linecap="round" stroke-linejoin="round" />
<path d="M 40.0,146.86820170802358 L 49.83050847457627,140.75032656407762 L 59.66101694915254,107.25026445340669 L 69.49152542372882,65.13095420228225 L 79.32203389830508,136.08103930777943 L 89.15254237288136,108.24930884631534 L 98.98305084745763,96.45294990437021 L 108.8135593220339,105.0882878688119 L 118.64406779661017,82.83866804698255 L 128.47457627118644,96.48922141871465 L 138.3050847457627,91.3532722900932 L 148.135593220339,134.49833600578896 L 157.96610169491527,124.0144607433211 L 167.79661016949154,115.68263729037277 L 177.6271186440678,116.23878655768435 L 187.45762711864407,69.37598267472185 L 197.28813559322035,166.1437291611471 L 207.11864406779662,86.05260257717978 L 216.94915254237287,151.70962255211833 L 226.77966101694915,91.68364672567685 L 236.61016949152543,114.94214283824687 L 246.4406779661017,135.14094910840709 L 256.271186440678,98.47882105822939 L 266.10169491525426,44.175496879325294 L 275.93220338983053,139.651946413144 L 285.7627118644068,103.66771567610743 L 295.5932203389831,200.0 L 305.4237288135593,80.34575533796385 L 315.2542372881356,100.29592677240926 L 325.08474576271186,125.1134216936329 L 334.91525423728814,116.10923547855292 L 344.7457627118644,98.05461991218012 L 354.5762711864407,101.89660349337885 L 364.40677966101697,92.35363524976117 L 374.23728813559325,91.55446520715142 L 384.06779661016947,122.06889953820378 L 393.89830508474574,93.18879924840515 L 403.728813559322,127.54440325581666 L 413.5593220338983,127.90467151188754 L 423.3898305084746,155.0595802822591 L 433.22033898305085,155.08986981437977 L 443.0508474576271,102.99215757348003 L 452.8813559322034,107.96293058835928 L 462.7118644067797,81.52747252936025 L 472.54237288135596,40.0 L 482.3728813559322,131.03020514991064 L 492.20338983050846,86.08050005448554 L 502.03389830508473,80.73027716850152 L 511.864406779661,92.29038295057138 L 521.6949152542372,65.32278693780844 L 531.5254237288136,42.93657098381058 L 541.3559322033898,87.000131273198 L 551.1864406779662,55.33912756779125 L 561.0169491525423,106.99096160286503 L 570.8474576271186,65.93439723172696 L 580.6779661016949,124.80603002821701 L 590.5084745762712,140.5710630614413 L 600.3389830508474,78.56392300318302 L 610.1694915254237,102.00033452942293 L 620.0,91.21600332801476" fill="none" stroke="#8b5cf6" stroke-width="2" stroke-linecap="round" stroke-linejoin="round" />
<path d="M 40.0,146.2512058606721 L 49.83050847457627,74.46152185493423 L 59.66101694915254,65.831085919429 L 69.49152542372882,94.85161457576025 L 79.32203389830508,119.2323667416309 L 89.15254237288136,124.89758990233838 L 98.98305084745763,131.2352466999024 L 108.8135593220339,142.15023823120603 L 118.64406779661017,161.25655055536336 L 128.47457627118644,128.48161956547312 L 138.3050847457627,102.8864774668177 L 148.135593220339,132.17218466618533 L 157.96610169491527,95.24313860827385 L 167.79661016949154,86.83533286358704 L 177.6271186440678,49.157609287108016 L 187.45762711864407,88.7576139448937 L 197.28813559322035,124.50442000404313 L 207.11864406779662,108.59759141378191 L 216.94915254237287,200.0 L 226.77966101694915,174.8080229677681 L 236.61016949152543,46.66581157990274 L 246.4406779661017,57.414408729865215 L 256.271186440678,178.3995143958693 L 266.10169491525426,88.10003655410742 L 275.93220338983053,103.3549394899714 L 285.7627118644068,134.89522877912603 L 295.5932203389831,161.52740310272537 L 305.4237288135593,156.94093058071294 L 315.2542372881356,78.33443181068017 L 325.08474576271186,120.85693112101927 L 334.91525423728814,88.70914795652388 L 344.7457627118644,124.55082304869728 L 354.5762711864407,47.04814145366748 L 364.40677966101697,42.344385779807766 L 374.23728813559325,68.56267894679212 L 384.06779661016947,114.0780571982337 L 393.89830508474574,69.57256026686741 L 403.728813559322,124.16944987681251 L 413.5593220338983,160.88223991306012 L 423.3898305084746,134.45762624983 L 433.22033898305085,48.87649482131738 L 443.0508474576271,68.56265976325702 L 452.8813559322034,145.21312128482086 L 462.7118644067797,98.22170243524134 L 472.54237288135596,120.0561270269376 L 482.3728813559322,149.4638126692392 L 492.20338983050846,55.556756475892854 L 502.03389830508473,40.0 L 511.864406779661,125.33209822958997 L 521.6949152542372,143.56365415201967 L 531.5254237288136,116.63339601519351 L 541.3559322033898,109.43482097938269 L 551.1864406779662,90.45042659043857 L 561.0169491525423,85.54291644089942 L 570.8474576271186,118.39047267588079 L 580.6779661016949,87.8478139061224 L 590.5084745762712,128.43556031738896 L 600.3389830508474,113.48624175047715 L 610.1694915254237,102.0415182197577 L 620.0,140.9776702867149" fill="none" stroke="#0ea5e9" stroke-width="2" stroke-linecap="round" stroke-linejoin="round" />
<rect x="45" y="5" width="10" height="10" rx="2" fill="#3b82f6" />
<text x="60" y="14" fill="#94a3b8" font-family="Inter, sans-serif" font-size="10">M1 (Conveyor A)</text>
<rect x="160" y="5" width="10" height="10" rx="2" fill="#10b981" />
<text x="175" y="14" fill="#94a3b8" font-family="Inter, sans-serif" font-size="10">M2 (Motor Unit)</text>
<rect x="275" y="5" width="10" height="10" rx="2" fill="#f59e0b" />
<text x="290" y="14" fill="#94a3b8" font-family="Inter, sans-serif" font-size="10">M3 (Pump Unit)</text>
<rect x="390" y="5" width="10" height="10" rx="2" fill="#8b5cf6" />
<text x="405" y="14" fill="#94a3b8" font-family="Inter, sans-serif" font-size="10">M4 (Compressor)</text>
<rect x="505" y="5" width="10" height="10" rx="2" fill="#0ea5e9" />
<text x="520" y="14" fill="#94a3b8" font-family="Inter, sans-serif" font-size="10">M5 (Packaging)</text>
</svg>