<svg viewBox="0 0 650 250" width="100%" height="250" xmlns="http://www.w3.org/2000/svg" style="background:#0d131f; border-radius:8px; border:1px solid #232d45; padding: 10px;">
<line x1="40" y1="30" x2="40" y2="210" stroke="#232d45" stroke-width="1" />
<line x1="40" y1="210" x2="620" y2="210" stroke="#232d45" stroke-width="1" />
<line x1="40" y1="30" x2="620" y2="30" stroke="#1e293b" stroke-dasharray="3,3" stroke-width="1" />
<line x1="40" y1="75" x2="620" y2="75" stroke="#1e293b" stroke-dasharray="3,3" stroke-width="1" />
<line x1="40" y1="120" x2="620" y2="120" stroke="#1e293b" stroke-dasharray="3,3" stroke-width="1" />
<line x1="40" y1="165" x2="620" y2="165" stroke="#1e293b" stroke-dasharray="3,3" stroke-width="1" />
<line x1="40" y1="210" x2="620" y2="210" stroke="#1e293b" stroke-dasharray="3,3" stroke-width="1" />
<path d="M 40.0,84.84729823493083 L 49.83050847457627,95.78865784098903 L 59.66101694915254,105.36493875587246 L 69.49152542372882,106.53850592732915 L 79.32203389830508,178.61168549928294 L 89.15254237288136,183.65543002736072 L 98.98305084745763,181.29123201311066 L 108.8135593220339,129.1013507028709 L 118.64406779661017,136.21292847404607 L 128.47457627118644,112.16550876078665 L 138.3050847457627,119.95788424136067 L 148.135593220339,122.41698229754292 L 157.96610169491527,78.2885924815732 L 167.79661016949154,71.11023976351942 L 177.6271186440678,142.2037886220551 L 187.45762711864407,169.22047643534353 L 197.28813559322035,140.1667872079865 L 207.11864406779662,174.96307499474244 L 216.94915254237287,172.93403899004286 L 226.77966101694915,124.81902322053317 L 236.61016949152543,101.26130183625713 L 246.4406779661017,98.63191899100767 L 256.271186440678,114.65759116827212 L 266.10169491525426,186.58325485266602 L 275.93220338983053,145.65072215494706 L 285.7627118644068,151.34430319406675 L 295.5932203389831,62.464371327686536 L 305.4237288135593,153.69275267848258 L 315.2542372881356,126.6847239321591 L 325.08474576271186,125.31981248893918 L 334.91525423728814,127.0191061903669 L 344.7457627118644,98.33064893988731 L 354.5762711864407,196.2025573557782 L 364.40677966101697,138.73691199068946 L 374.23728813559325,125.73855835203285 L 384.06779661016947,121.00378057409122 L 393.89830508474574,178.8136885981938 L 403.728813559322,118.00013593118949 L 413.5593220338983,165.09401453763581 L 423.3898305084746,113.82642767926151 L 433.22033898305085,114.24877693038903 L 443.0508474576271,134.96255635606332 L 452.8813559322034,171.81823494282477 L 462.7118644067797,132.12468589096713 L 472.54237288135596,160.65403312276487 L 482.3728813559322,157.87248632632748 L 492.20338983050846,68.6148642249986 L 502.03389830508473,147.4466742203678 L 511.864406779661,171.02127949814096 L 521.6949152542372,136.98741663576465 L 531.5254237288136,79.64097456281979 L 541.3559322033898,147.04053773563493 L 551.1864406779662,200.0 L 561.0169491525423,163.99452627332786 L 570.8474576271186,156.60329228269518 L 580.6779661016949,122.6916842543238 L 590.5084745762712,40.0 L 600.3389830508474,99.95336482821023 L 610.1694915254237,124.64471884905004 L 620.0,140.57259892728922" fill="none" stroke="#3b82f6" stroke-width="2" stroke-linecap="round" stroke-linejoin="round" />
<path d="M 40.0,159.81304069439784 L 49.83050847457627,142.66039892240622 L 59.66101694915254,48.16929236289582 L 69.49152542372882,69.16285838005973 L 79.32203389830508,128.23372776180412 L 89.15254237288136,193.3342465105205 L 98.98305084745763,98.42714674059296 L 108.8135593220339,89.42050475841604 L 118.64406779661017,72.52934566857776 L 128.47457627118644,70.06805126121958 L 138.3050847457627,40.47889696452819 L 148.135593220339,128.73601380304865 L 157.96610169491527,121.79323870743431 L 167.79661016949154,85.15344574196536 L 177.6271186440678,128.26679314866652 L 187.45762711864407,134.22211888000274 L 197.28813559322035,66.16256002282594 L 207.11864406779662,162.5913007772285 L 216.94915254237287,119.58891899918297 L 226.77966101694915,126.5036581807613 L 236.61016949152543,163.4988867437678 L 246.4406779661017,175.8420368868637 L 256.271186440678,108.08185772512809 L 266.10169491525426,175.41088034297664 L 275.93220338983053,108.82760228050344 L 285.7627118644068,182.60373996621655 L 295.5932203389831,144.5424511364475 L 305.4237288135593,74.47042493349132 L 315.2542372881356,165.55495726300626 L 325.08474576271186,90.28639517791653 L 334.91525423728814,76.79243076769147 L 344.7457627118644,107.24303966785862 L 354.5762711864407,162.609931674212 L 364.40677966101697,147.13890266933086 L 374.23728813559325,154.1889685567897 L 384.06779661016947,147.5099953870864 L 393.89830508474574,108.78393436816525 L 403.728813559322,138.76588627119835 L 413.5593220338983,151.6595548973952 L 423.3898305084746,134.4936168395821 L 433.22033898305085,40.0 L 443.0508474576271,137.57786317032173 L 452.8813559322034,80.92146248014757 L 462.7118644067797,104.79828949230097 L 472.54237288135596,138.67850263472906 L 482.3728813559322,124.89031253735885 L 492.20338983050846,127.85017025896866 L 502.03389830508473,135.85480484217697 L 511.864406779661,100.42997100650442 L 521.6949152542372,114.576735508912 L 531.5254237288136,124.41871229402041 L 541.3559322033898,156.45136197889641 L 551.1864406779662,99.75930135655238 L 561.0169491525423,87.78379166279997 L 570.8474576271186,163.82524866634037 L 580.6779661016949,124.26443941469456 L 590.5084745762712,200.0 L 600.3389830508474,97.62042121865234 L 610.1694915254237,110.47446519076786 L 620.0,188.4012679744921" fill="none" stroke="#10b981" stroke-width="2" stroke-linecap="round" stroke-linejoin="round" />
<path d="M 40.0,73.8195539750316 L 49.83050847457627,136.09559909758775 L 59.66101694915254,120.33442198403046 L 69.49152542372882,103.25503722141184 L 79.32203389830508,154.2155970423086 L 89.15254237288136,142.93795024132214 L 98.98305084745763,152.60579492119618 L 108.8135593220339,149.41779172250432 L 118.64406779661017,176.17547856015142 L 128.47457627118644,83.55337005651967 L 138.3050847457627,180.95869242319336 L 148.135593220339,84.60689441187114 L 157.96610169491527,109.10227015121242 L 167.79661016949154,111.83497223919937 L 177.6271186440678,126.51583034621191 L 187.45762711864407,133.20826300141317 L 197.28813559322035,127.42538104717062 L 207.11864406779662,148.95992116295992 L 216.94915254237287,64.52188643186145 L 226.77966101694915,139.07485672780055 L 236.61016949152543,117.66218861718885 L 246.4406779661017,129.60548302126136 L 256.271186440678,155.91057038356215 L 266.10169491525426,121.9643724410143 L 275.93220338983053,151.035313864508 L 285.7627118644068,126.01858796052898 L 295.5932203389831,158.40012804453113 L 305.4237288135593,109.35022044647366 L 315.2542372881356,115.90529057330241 L 325.08474576271186,87.147066565908 L 334.91525423728814,153.2106823006033 L 344.7457627118644,177.13591892514393 L 354.5762711864407,113.27010812633945 L 364.40677966101697,71.2765374065379 L 374.23728813559325,123.99361032493871 L 384.06779661016947,129.5806819882343 L 393.89830508474574,169.47919690344347 L 403.728813559322,86.52703181024195 L 413.5593220338983,131.60582818594995 L 423.3898305084746,142.38746279630703 L 433.22033898305085,164.15403040295553 L 443.0508474576271,125.56771575275437 L 452.8813559322034,166.78880592502588 L 462.7118644067797,100.94363103081685 L 472.54237288135596,40.0 L 482.3728813559322,140.5390603908595 L 492.20338983050846,166.67385516601627 L 502.03389830508473,135.2226809639219 L 511.864406779661,130.38719047532348 L 521.6949152542372,78.78289847902968 L 531.5254237288136,114.59859469122848 L 541.3559322033898,171.3169031972503 L 551.1864406779662,189.61956580787793 L 561.0169491525423,176.92753233233776 L 570.8474576271186,200.0 L 580.6779661016949,173.74827875597273 L 590.5084745762712,159.21891768966347 L 600.3389830508474,69.0585215058129 L 610.1694915254237,103.2187597205057 L 620.0,56.78708230866968" fill="none" stroke="#f59e0b" stroke-width="2" stroke-linecap="round" stroke-linejoin="round" />
<path d="M 40.0,40.465675477249704 L 49.83050847457627,117.78735305019764 L 59.66101694915254,83.41699712901439 L 69.49152542372882,80.76785492997126 L 79.32203389830508,55.33736605286089 L 89.15254237288136,71.83182781355794 L 98.98305084745763,86.10935655814029 L 108.8135593220339,79.9290019112004 L 118.64406779661017,41.158211763944365 L 128.47457627118644,70.87845591202122 L 138.3050847457627,109.29227795163656 L 148.135593220339,42.09843616452008 L 157.96610169491527,112.27738055271928 L 167.79661016949154,132.73547478907534 L 177.6271186440678,98.77332027962939 L 187.45762711864407,86.70346476489117 L 197.28813559322035,113.73202912516236 L 207.11864406779662,57.34619698813671 L 216.94915254237287,49.74785400890585 L 226.77966101694915,54.765063663095816 L 236.61016949152543,68.49735066889008 L 246.4406779661017,133.38521072483013 L 256.271186440678,106.72993650813015 L 266.10169491525426,109.43211462867882 L 275.93220338983053,89.13637147202095 L 285.7627118644068,52.943220074784875 L 295.5932203389831,139.43261280446404 L 305.4237288135593,83.59740995138587 L 315.2542372881356,73.66549049877531 L 325.08474576271186,70.72439614860207 L 334.91525423728814,114.03929303968948 L 344.7457627118644,90.97797764329187 L 354.5762711864407,107.6388853365817 L 364.40677966101697,54.668881800684574 L 374.23728813559325,40.0 L 384.06779661016947,82.87036022758204 L 393.89830508474574,159.011104760841 L 403.728813559322,81.15441783950754 L 413.5593220338983,133.79673237979338 L 423.3898305084746,115.01524647366375 L 433.22033898305085,75.273713355208 L 443.0508474576271,62.04386245443558 L 452.8813559322034,73.68112478326572 L 462.7118644067797,106.20425895232954 L 472.54237288135596,122.20954224396014 L 482.3728813559322,102.6566798859948 L 492.20338983050846,60.961129096416585 L 502.03389830508473,55.81411682468121 L 511.864406779661,83.69453279357025 L 521.6949152542372,76.76007614492987 L 531.5254237288136,72.30569971377774 L 541.3559322033898,74.16364237056995 L 551.1864406779662,99.4024026447159 L 561.0169491525423,133.5430368524162 L 570.8474576271186,86.71372291146575 L 580.6779661016949,72.18559525966214 L 590.5084745762712,139.44022557711534 L 600.3389830508474,87.5367349276079 L 610.1694915254237,89.4626485588611 L 620.0,200.0" fill="none" stroke="#8b5cf6" stroke-width="2" stroke-linecap="round" stroke-linejoin="round" />
<path d="M 40.0,119.79489733969169 L 49.83050847457627,48.10586054180084 L 59.66101694915254,117.6471470436678 L 69.49152542372882,65.3677510656484 L 79.32203389830508,167.87495206778166 L 89.15254237288136,87.9670783332985 L 98.98305084745763,105.69301010985286 L 108.8135593220339,102.38000374563329 L 118.64406779661017,128.33830357382706 L 128.47457627118644,94.23781013483492 L 138.3050847457627,63.80160060157269 L 148.135593220339,119.66880891918883 L 157.96610169491527,93.11907331637184 L 167.79661016949154,171.65101643409014 L 177.6271186440678,159.17845555087027 L 187.45762711864407,110.56581215964636 L 197.28813559322035,176.31510829821823 L 207.11864406779662,88.20101106437399 L 216.94915254237287,174.6270381619951 L 226.77966101694915,141.9862972767139 L 236.61016949152543,107.32944451873556 L 246.4406779661017,187.01096663326666 L 256.271186440678,67.84574622850977 L 266.10169491525426,140.02417778813626 L 275.93220338983053,83.9686527444013 L 285.7627118644068,109.57106327523634 L 295.5932203389831,105.37373556278902 L 305.4237288135593,97.14760007435372 L 315.2542372881356,200.0 L 325.08474576271186,123.43427454816216 L 334.91525423728814,93.25649254682142 L 344.7457627118644,134.13800741277385 L 354.5762711864407,125.90660789119264 L 364.40677966101697,125.93554703960078 L 374.23728813559325,120.28781625257406 L 384.06779661016947,47.941518051587536 L 393.89830508474574,137.84467301978933 L 403.728813559322,72.96704418687182 L 413.5593220338983,183.3020511961923 L 423.3898305084746,170.6441876167713 L 433.22033898305085,151.42758859180725 L 443.0508474576271,78.46692794615748 L 452.8813559322034,105.7612459804332 L 462.7118644067797,127.38761768296615 L 472.54237288135596,133.80421311979728 L 482.3728813559322,92.70047380650479 L 492.20338983050846,105.76829768950233 L 502.03389830508473,63.22117770996485 L 511.864406779661,87.98808906759223 L 521.6949152542372,116.12616968846979 L 531.5254237288136,101.44056973153491 L 541.3559322033898,83.4538266599028 L 551.1864406779662,87.75197525590612 L 561.0169491525423,65.82498759270646 L 570.8474576271186,142.49433669708617 L 580.6779661016949,130.55024948369729 L 590.5084745762712,73.79171863529962 L 600.3389830508474,83.15690435768818 L 610.1694915254237,40.0 L 620.0,88.45492190656611" fill="none" stroke="#0ea5e9" stroke-width="2" stroke-linecap="round" stroke-linejoin="round" />
<rect x="45" y="5" width="10" height="10" rx="2" fill="#3b82f6" />
<text x="60" y="14" fill="#94a3b8" font-family="Inter, sans-serif" font-size="10">M1 (Conveyor A)</text>
<rect x="160" y="5" width="10" height="10" rx="2" fill="#10b981" />
<text x="175" y="14" fill="#94a3b8" font-family="Inter, sans-serif" font-size="10">M2 (Motor Unit)</text>
<rect x="275" y="5" width="10" height="10" rx="2" fill="#f59e0b" />
<text x="290" y="14" fill="#94a3b8" font-family="Inter, sans-serif" font-size="10">M3 (Pump Unit)</text>
<rect x="390" y="5" width="10" height="10" rx="2" fill="#8b5cf6" />
<text x="405" y="14" fill="#94a3b8" font-family="Inter, sans-serif" font-size="10">M4 (Compressor)</text>
<rect x="505" y="5" width="10" height="10" rx="2" fill="#0ea5e9" />
<text x="520" y="14" fill="#94a3b8" font-family="Inter, sans-serif" font-size="10">M5 (Packaging)</text>
</svg>