<svg viewBox="0 0 650 250" width="100%" height="250" xmlns="http://www.w3.org/2000/svg" style="background:#0d131f; border-radius:8px; border:1px solid #232d45; padding: 10px;">
<line x1="40" y1="30" x2="40" y2="210" stroke="#232d45" stroke-width="1" />
<line x1="40" y1="210" x2="620" y2="210" stroke="#232d45" stroke-width="1" />
<line x1="40" y1="30" x2="620" y2="30" stroke="#1e293b" stroke-dasharray="3,3" stroke-width="1" />
<line x1="40" y1="75" x2="620" y2="75" stroke="#1e293b" stroke-dasharray="3,3" stroke-width="1" />
<line x1="40" y1="120" x2="620" y2="120" stroke="#1e293b" stroke-dasharray="3,3" stroke-width="1" />
<line x1="40" y1="165" x2="620" y2="165" stroke="#1e293b" stroke-dasharray="3,3" stroke-width="1" />
<line x1="40" y1="210" x2="620" y2="210" stroke="#1e293b" stroke-dasharray="3,3" stroke-width="1" />
<path d="M 40.0,60.96890252452209 L 49.83050847457627,79.1612904270336 L 59.66101694915254,125.73116388261249 L 69.49152542372882,150.7860987189719 L 79.32203389830508,200.0 L 89.15254237288136,115.9460919773087 L 98.98305084745763,135.07826906718702 L 108.8135593220339,105.23139836037005 L 118.64406779661017,117.99842844537609 L 128.47457627118644,118.37722207148641 L 138.3050847457627,151.7068567988961 L 148.135593220339,184.71777951108592 L 157.96610169491527,98.5398962684607 L 167.79661016949154,112.50939649320392 L 177.6271186440678,88.01963070410653 L 187.45762711864407,112.27073934980652 L 197.28813559322035,109.78230635110936 L 207.11864406779662,114.62785649924291 L 216.94915254237287,99.39917326473476 L 226.77966101694915,66.661306071285 L 236.61016949152543,175.56595068231795 L 246.4406779661017,100.9727916073212 L 256.271186440678,138.2194803524397 L 266.10169491525426,108.0827748017967 L 275.93220338983053,121.31123328975738 L 285.7627118644068,120.66968774197578 L 295.5932203389831,170.06761130152623 L 305.4237288135593,133.56741239904207 L 315.2542372881356,140.47413552518336 L 325.08474576271186,62.96669313160581 L 334.91525423728814,76.08801027230245 L 344.7457627118644,103.11965658656602 L 354.5762711864407,139.23218136608153 L 364.40677966101697,134.37259990512962 L 374.23728813559325,107.18594197617031 L 384.06779661016947,87.52374984428576 L 393.89830508474574,54.526415524315155 L 403.728813559322,94.89385767774655 L 413.5593220338983,40.0 L 423.3898305084746,114.41571049514675 L 433.22033898305085,104.02193837828948 L 443.0508474576271,67.89446075737965 L 452.8813559322034,107.98308672911425 L 462.7118644067797,121.76595956730243 L 472.54237288135596,124.32601816249532 L 482.3728813559322,116.14233752102841 L 492.20338983050846,58.016167330816785 L 502.03389830508473,168.2870175862175 L 511.864406779661,140.58984339571583 L 521.6949152542372,75.86794797916822 L 531.5254237288136,122.74701919326401 L 541.3559322033898,65.996303847152 L 551.1864406779662,182.66833743212797 L 561.0169491525423,152.06739711984488 L 570.8474576271186,64.47319551452 L 580.6779661016949,136.6453624837848 L 590.5084745762712,111.33772648267227 L 600.3389830508474,122.38121676933018 L 610.1694915254237,159.95502409597836 L 620.0,50.82271505616643" fill="none" stroke="#3b82f6" stroke-width="2" stroke-linecap="round" stroke-linejoin="round" />
<path d="M 40.0,96.3704411224095 L 49.83050847457627,144.7545291895519 L 59.66101694915254,180.27387147620678 L 69.49152542372882,108.22436276365741 L 79.32203389830508,157.18159352385462 L 89.15254237288136,119.6485675356118 L 98.98305084745763,91.40432302838612 L 108.8135593220339,96.05476503878613 L 118.64406779661017,111.35295569136666 L 128.47457627118644,82.7364119065 L 138.3050847457627,130.72758884067827 L 148.135593220339,112.4149052438261 L 157.96610169491527,109.79738405254133 L 167.79661016949154,99.34275295387316 L 177.6271186440678,135.65476081830866 L 187.45762711864407,116.56456772484395 L 197.28813559322035,105.85808727076703 L 207.11864406779662,200.0 L 216.94915254237287,139.22224802850207 L 226.77966101694915,135.24767367415356 L 236.61016949152543,101.31349009221896 L 246.4406779661017,163.67789727105065 L 256.271186440678,135.81053875482743 L 266.10169491525426,102.40214007177754 L 275.93220338983053,120.96311754915338 L 285.7627118644068,95.65311301147946 L 295.5932203389831,110.80496117009504 L 305.4237288135593,103.27272547051751 L 315.2542372881356,89.84527193176716 L 325.08474576271186,119.56454774941923 L 334.91525423728814,154.71198230687642 L 344.7457627118644,138.45065584982115 L 354.5762711864407,110.20250355973702 L 364.40677966101697,114.18873573693676 L 374.23728813559325,83.319668521489 L 384.06779661016947,40.0 L 393.89830508474574,138.32916018976215 L 403.728813559322,131.50264206407974 L 413.5593220338983,190.5962497323252 L 423.3898305084746,87.44731937439809 L 433.22033898305085,75.52194753881176 L 443.0508474576271,110.52884243272943 L 452.8813559322034,134.87860545061727 L 462.7118644067797,166.5151886761447 L 472.54237288135596,96.41307576923175 L 482.3728813559322,135.35227364115934 L 492.20338983050846,117.11860238877259 L 502.03389830508473,97.62881069878398 L 511.864406779661,145.04850352643587 L 521.6949152542372,151.87984685720943 L 531.5254237288136,141.67279560061854 L 541.3559322033898,114.76301604928449 L 551.1864406779662,78.4143959421314 L 561.0169491525423,82.18765582352242 L 570.8474576271186,150.26794136412263 L 580.6779661016949,96.35939097489253 L 590.5084745762712,55.494453844420605 L 600.3389830508474,101.12542867450175 L 610.1694915254237,119.63977177020581 L 620.0,132.69744747633044" fill="none" stroke="#10b981" stroke-width="2" stroke-linecap="round" stroke-linejoin="round" />
<path d="M 40.0,60.63231943838568 L 49.83050847457627,65.39978171662622 L 59.66101694915254,72.9392281172831 L 69.49152542372882,136.78053727794725 L 79.32203389830508,103.19524749570165 L 89.15254237288136,129.96140720347216 L 98.98305084745763,91.60331985680935 L 108.8135593220339,166.17504341107679 L 118.64406779661017,44.993888551014265 L 128.47457627118644,101.4537326204598 L 138.3050847457627,140.93625074447812 L 148.135593220339,113.63030878696253 L 157.96610169491527,81.34888946296316 L 167.79661016949154,107.02132122244448 L 177.6271186440678,142.70064827112577 L 187.45762711864407,94.9939002651937 L 197.28813559322035,94.59206588251746 L 207.11864406779662,74.48890519645964 L 216.94915254237287,100.58030958497453 L 226.77966101694915,142.73752913478592 L 236.61016949152543,96.97386552586454 L 246.4406779661017,114.65517113352192 L 256.271186440678,106.68274380565356 L 266.10169491525426,132.97251110718804 L 275.93220338983053,122.01943415886778 L 285.7627118644068,165.19426802998467 L 295.5932203389831,127.12588786055113 L 305.4237288135593,70.67007513062484 L 315.2542372881356,113.15441816620958 L 325.08474576271186,133.8172340022524 L 334.91525423728814,106.61447076189596 L 344.7457627118644,169.4769380796613 L 354.5762711864407,99.99723837649685 L 364.40677966101697,125.54236303451314 L 374.23728813559325,126.46615752254277 L 384.06779661016947,86.98695224583867 L 393.89830508474574,104.80144924964205 L 403.728813559322,83.56030325037445 L 413.5593220338983,117.13014031627473 L 423.3898305084746,106.71659330593216 L 433.22033898305085,100.25124169577005 L 443.0508474576271,145.23655669151248 L 452.8813559322034,86.68116146110366 L 462.7118644067797,125.2143265614662 L 472.54237288135596,141.8111397562788 L 482.3728813559322,157.83416837332396 L 492.20338983050846,98.37648813071507 L 502.03389830508473,94.21139156989236 L 511.864406779661,64.83274423812384 L 521.6949152542372,71.2238243021998 L 531.5254237288136,138.73391701154856 L 541.3559322033898,108.32811418061453 L 551.1864406779662,56.0597192212162 L 561.0169491525423,40.0 L 570.8474576271186,102.32090679101896 L 580.6779661016949,77.01540914339532 L 590.5084745762712,200.0 L 600.3389830508474,94.47926307300492 L 610.1694915254237,101.00980151145144 L 620.0,119.60951940805153" fill="none" stroke="#f59e0b" stroke-width="2" stroke-linecap="round" stroke-linejoin="round" />
<path d="M 40.0,161.55218658439028 L 49.83050847457627,168.57590849122604 L 59.66101694915254,99.19067104150294 L 69.49152542372882,52.40011958000818 L 79.32203389830508,172.29040690745154 L 89.15254237288136,115.48301563170939 L 98.98305084745763,169.6708758702603 L 108.8135593220339,161.15809913512763 L 118.64406779661017,146.7497104398701 L 128.47457627118644,142.1074487643998 L 138.3050847457627,103.71864849801624 L 148.135593220339,104.32090780768249 L 157.96610169491527,98.81791878119971 L 167.79661016949154,199.5039207399731 L 177.6271186440678,143.32105585167133 L 187.45762711864407,169.02635308494143 L 197.28813559322035,115.97282253783156 L 207.11864406779662,66.27665771708871 L 216.94915254237287,146.51830180015827 L 226.77966101694915,66.97087780792418 L 236.61016949152543,200.0 L 246.4406779661017,117.6771067662999 L 256.271186440678,131.901504362479 L 266.10169491525426,126.3491636647527 L 275.93220338983053,127.82187006911192 L 285.7627118644068,94.31126073150611 L 295.5932203389831,111.25691408955475 L 305.4237288135593,182.59583680917578 L 315.2542372881356,197.5928712772837 L 325.08474576271186,157.07105285033668 L 334.91525423728814,64.19201527998862 L 344.7457627118644,97.09158837432628 L 354.5762711864407,109.33165773700907 L 364.40677966101697,123.82279695810833 L 374.23728813559325,78.59659934453796 L 384.06779661016947,152.33884928630093 L 393.89830508474574,160.11715850367474 L 403.728813559322,165.39619635294707 L 413.5593220338983,148.2521643085239 L 423.3898305084746,121.95682897492685 L 433.22033898305085,85.66135906390217 L 443.0508474576271,137.74647720340886 L 452.8813559322034,152.9793335945156 L 462.7118644067797,80.47118305986054 L 472.54237288135596,101.95182994186379 L 482.3728813559322,114.94413447040469 L 492.20338983050846,147.91295209262466 L 502.03389830508473,107.19147788532078 L 511.864406779661,108.1398385276156 L 521.6949152542372,122.441833073776 L 531.5254237288136,173.00172613850305 L 541.3559322033898,82.96886119943346 L 551.1864406779662,112.08690144858828 L 561.0169491525423,111.64417344318126 L 570.8474576271186,40.0 L 580.6779661016949,138.8612844913476 L 590.5084745762712,151.45376409982217 L 600.3389830508474,180.32904998465798 L 610.1694915254237,97.46883267632879 L 620.0,90.26546110826048" fill="none" stroke="#8b5cf6" stroke-width="2" stroke-linecap="round" stroke-linejoin="round" />
<path d="M 40.0,124.750039762244 L 49.83050847457627,144.8070547604363 L 59.66101694915254,102.13509044774355 L 69.49152542372882,146.86640304442363 L 79.32203389830508,192.40501882392584 L 89.15254237288136,138.43364463421955 L 98.98305084745763,124.71037997814322 L 108.8135593220339,155.4192113528094 L 118.64406779661017,159.54178250414998 L 128.47457627118644,107.3802564922477 L 138.3050847457627,194.70308300053708 L 148.135593220339,65.2125838476685 L 157.96610169491527,141.66246819455228 L 167.79661016949154,153.2395011343487 L 177.6271186440678,111.52953691698809 L 187.45762711864407,160.64953297623958 L 197.28813559322035,147.1351559033905 L 207.11864406779662,133.20359592744296 L 216.94915254237287,154.98747679354486 L 226.77966101694915,115.06545437983226 L 236.61016949152543,199.20702996231455 L 246.4406779661017,200.0 L 256.271186440678,147.35222691855907 L 266.10169491525426,142.96343780410263 L 275.93220338983053,86.82768037904196 L 285.7627118644068,130.7308825617224 L 295.5932203389831,93.3772405138768 L 305.4237288135593,175.38120490375516 L 315.2542372881356,129.59930378478228 L 325.08474576271186,174.27368005062658 L 334.91525423728814,146.1863184908671 L 344.7457627118644,135.9359642738062 L 354.5762711864407,118.50242776666704 L 364.40677966101697,40.0 L 374.23728813559325,191.67803651711372 L 384.06779661016947,154.89061277355637 L 393.89830508474574,120.57077056782207 L 403.728813559322,139.10301398086818 L 413.5593220338983,81.26217842784159 L 423.3898305084746,193.04719319127082 L 433.22033898305085,166.12085082860372 L 443.0508474576271,118.35649153635626 L 452.8813559322034,118.35665788562994 L 462.7118644067797,117.60451742904765 L 472.54237288135596,136.6026970355179 L 482.3728813559322,186.24285071677903 L 492.20338983050846,194.43782461113824 L 502.03389830508473,127.61414875986517 L 511.864406779661,100.62398581092212 L 521.6949152542372,120.06399767672042 L 531.5254237288136,127.34185172557409 L 541.3559322033898,190.4425264467122 L 551.1864406779662,175.14041238741575 L 561.0169491525423,151.99467388848015 L 570.8474576271186,144.57521430586593 L 580.6779661016949,127.97406389471678 L 590.5084745762712,129.26128328721595 L 600.3389830508474,140.5561699661707 L 610.1694915254237,155.98048304659002 L 620.0,112.46701336869134" fill="none" stroke="#0ea5e9" stroke-width="2" stroke-linecap="round" stroke-linejoin="round" />
<rect x="45" y="5" width="10" height="10" rx="2" fill="#3b82f6" />
<text x="60" y="14" fill="#94a3b8" font-family="Inter, sans-serif" font-size="10">M1 (Conveyor A)</text>
<rect x="160" y="5" width="10" height="10" rx="2" fill="#10b981" />
<text x="175" y="14" fill="#94a3b8" font-family="Inter, sans-serif" font-size="10">M2 (Motor Unit)</text>
<rect x="275" y="5" width="10" height="10" rx="2" fill="#f59e0b" />
<text x="290" y="14" fill="#94a3b8" font-family="Inter, sans-serif" font-size="10">M3 (Pump Unit)</text>
<rect x="390" y="5" width="10" height="10" rx="2" fill="#8b5cf6" />
<text x="405" y="14" fill="#94a3b8" font-family="Inter, sans-serif" font-size="10">M4 (Compressor)</text>
<rect x="505" y="5" width="10" height="10" rx="2" fill="#0ea5e9" />
<text x="520" y="14" fill="#94a3b8" font-family="Inter, sans-serif" font-size="10">M5 (Packaging)</text>
</svg>