<svg viewBox="0 0 650 250" width="100%" height="250" xmlns="http://www.w3.org/2000/svg" style="background:#0d131f; border-radius:8px; border:1px solid #232d45; padding: 10px;">
<line x1="40" y1="30" x2="40" y2="210" stroke="#232d45" stroke-width="1" />
<line x1="40" y1="210" x2="620" y2="210" stroke="#232d45" stroke-width="1" />
<line x1="40" y1="30" x2="620" y2="30" stroke="#1e293b" stroke-dasharray="3,3" stroke-width="1" />
<line x1="40" y1="75" x2="620" y2="75" stroke="#1e293b" stroke-dasharray="3,3" stroke-width="1" />
<line x1="40" y1="120" x2="620" y2="120" stroke="#1e293b" stroke-dasharray="3,3" stroke-width="1" />
<line x1="40" y1="165" x2="620" y2="165" stroke="#1e293b" stroke-dasharray="3,3" stroke-width="1" />
<line x1="40" y1="210" x2="620" y2="210" stroke="#1e293b" stroke-dasharray="3,3" stroke-width="1" />
<path d="M 40.0,152.34168046001952 L 49.83050847457627,149.32792414432978 L 59.66101694915254,139.72856189752682 L 69.49152542372882,40.0 L 79.32203389830508,191.87218890857312 L 89.15254237288136,144.86360723295064 L 98.98305084745763,118.65007954750445 L 108.8135593220339,131.6379763718129 L 118.64406779661017,47.64780972787099 L 128.47457627118644,194.1884682234777 L 138.3050847457627,199.94884789418276 L 148.135593220339,121.8296642676166 L 157.96610169491527,200.0 L 167.79661016949154,129.90964405611751 L 177.6271186440678,129.80699483475928 L 187.45762711864407,146.46992880702265 L 197.28813559322035,99.45579208850874 L 207.11864406779662,110.62678019852454 L 216.94915254237287,78.86877131975808 L 226.77966101694915,178.68653372652784 L 236.61016949152543,87.23316618182928 L 246.4406779661017,69.51188194400888 L 256.271186440678,132.5545189284056 L 266.10169491525426,77.63027079176209 L 275.93220338983053,78.04073734722495 L 285.7627118644068,51.900468675402095 L 295.5932203389831,133.12572646765756 L 305.4237288135593,95.48881466033654 L 315.2542372881356,118.57522933289664 L 325.08474576271186,46.38916049881624 L 334.91525423728814,107.07092090762077 L 344.7457627118644,186.61524153137478 L 354.5762711864407,121.4488235221916 L 364.40677966101697,126.65390793096903 L 374.23728813559325,70.03257295425624 L 384.06779661016947,103.5515261361232 L 393.89830508474574,72.98584114919973 L 403.728813559322,121.67707627649267 L 413.5593220338983,61.03901519573614 L 423.3898305084746,94.14494639097698 L 433.22033898305085,118.13004778306579 L 443.0508474576271,97.84827198160588 L 452.8813559322034,117.70598823084462 L 462.7118644067797,101.52843009177694 L 472.54237288135596,104.96077551006792 L 482.3728813559322,100.45113330075908 L 492.20338983050846,137.00872379996014 L 502.03389830508473,110.71708421420828 L 511.864406779661,110.28943908330474 L 521.6949152542372,109.1294943649507 L 531.5254237288136,106.7336862886583 L 541.3559322033898,79.50225913305474 L 551.1864406779662,130.40629903415794 L 561.0169491525423,133.61384177219622 L 570.8474576271186,73.61790840276336 L 580.6779661016949,73.02289589785877 L 590.5084745762712,86.089874317686 L 600.3389830508474,89.72476958870772 L 610.1694915254237,111.50281922446791 L 620.0,84.5612988394515" fill="none" stroke="#3b82f6" stroke-width="2" stroke-linecap="round" stroke-linejoin="round" />
<path d="M 40.0,125.96150673793802 L 49.83050847457627,169.02027300153532 L 59.66101694915254,124.02138900307351 L 69.49152542372882,95.76514235828405 L 79.32203389830508,86.64461687993978 L 89.15254237288136,149.5730661529062 L 98.98305084745763,59.81975584074456 L 108.8135593220339,143.32056844141366 L 118.64406779661017,89.73838257615854 L 128.47457627118644,123.05657616743449 L 138.3050847457627,44.0570420685537 L 148.135593220339,100.6040972962904 L 157.96610169491527,149.21865450605023 L 167.79661016949154,81.65224089663758 L 177.6271186440678,96.93410452746207 L 187.45762711864407,55.557076749648644 L 197.28813559322035,152.99636206557602 L 207.11864406779662,80.75278988039605 L 216.94915254237287,108.90362733007107 L 226.77966101694915,106.35284312044563 L 236.61016949152543,129.80703500623326 L 246.4406779661017,155.06581879469962 L 256.271186440678,40.0 L 266.10169491525426,120.66266418537492 L 275.93220338983053,181.3475589060078 L 285.7627118644068,88.73449396554636 L 295.5932203389831,186.98958752659104 L 305.4237288135593,108.51717282478322 L 315.2542372881356,55.58913297615251 L 325.08474576271186,105.82864804045491 L 334.91525423728814,70.89122793526252 L 344.7457627118644,161.6311220666543 L 354.5762711864407,130.90097035044846 L 364.40677966101697,134.82330350295427 L 374.23728813559325,105.98653466528498 L 384.06779661016947,109.1185252190494 L 393.89830508474574,115.14076844646783 L 403.728813559322,135.0105618043841 L 413.5593220338983,96.05916795339895 L 423.3898305084746,137.81723670599925 L 433.22033898305085,153.76945148007746 L 443.0508474576271,84.72211484372568 L 452.8813559322034,68.51792269811165 L 462.7118644067797,139.22163320241225 L 472.54237288135596,168.55675397895058 L 482.3728813559322,124.40149900196141 L 492.20338983050846,157.9662296540858 L 502.03389830508473,194.285052890192 L 511.864406779661,162.11030700330755 L 521.6949152542372,165.1665927363469 L 531.5254237288136,137.24704949520873 L 541.3559322033898,73.66943293954547 L 551.1864406779662,188.77220900799014 L 561.0169491525423,200.0 L 570.8474576271186,148.42538449354933 L 580.6779661016949,152.1376538574567 L 590.5084745762712,159.29284924755189 L 600.3389830508474,119.33796464837968 L 610.1694915254237,111.91367226433208 L 620.0,147.67489431164387" fill="none" stroke="#10b981" stroke-width="2" stroke-linecap="round" stroke-linejoin="round" />
<path d="M 40.0,135.3870181686046 L 49.83050847457627,73.14944509634714 L 59.66101694915254,96.68874043700647 L 69.49152542372882,141.5102761846969 L 79.32203389830508,59.13854898052719 L 89.15254237288136,138.0533138030206 L 98.98305084745763,75.77958048827746 L 108.8135593220339,144.3168218977332 L 118.64406779661017,106.95216748680676 L 128.47457627118644,156.11942555649847 L 138.3050847457627,51.42326043362257 L 148.135593220339,64.64372191880588 L 157.96610169491527,59.342781093997246 L 167.79661016949154,109.57462352967943 L 177.6271186440678,109.70385399607716 L 187.45762711864407,42.371987767610364 L 197.28813559322035,49.21145541810341 L 207.11864406779662,141.55584838060656 L 216.94915254237287,186.92489961597067 L 226.77966101694915,99.94093035953513 L 236.61016949152543,109.50917856033216 L 246.4406779661017,158.67057977134868 L 256.271186440678,129.15100850062635 L 266.10169491525426,127.02337949070147 L 275.93220338983053,82.35018143554402 L 285.7627118644068,90.43939421334588 L 295.5932203389831,149.49136221172228 L 305.4237288135593,116.58938559979318 L 315.2542372881356,99.37058627250123 L 325.08474576271186,142.64256884491368 L 334.91525423728814,40.0 L 344.7457627118644,82.16395660606369 L 354.5762711864407,112.56605110675778 L 364.40677966101697,98.15516640680494 L 374.23728813559325,125.71421593272707 L 384.06779661016947,187.60752213574804 L 393.89830508474574,51.08164438094897 L 403.728813559322,158.30233230350788 L 413.5593220338983,90.85522618222753 L 423.3898305084746,97.4502497265221 L 433.22033898305085,143.17618383471523 L 443.0508474576271,78.46149013487309 L 452.8813559322034,58.023583601966834 L 462.7118644067797,85.78196869728518 L 472.54237288135596,87.90921917514005 L 482.3728813559322,144.65105644794156 L 492.20338983050846,77.60123007777304 L 502.03389830508473,83.52443226823901 L 511.864406779661,89.84848636973442 L 521.6949152542372,200.0 L 531.5254237288136,157.8481395898426 L 541.3559322033898,159.49216895972185 L 551.1864406779662,79.83582452322231 L 561.0169491525423,174.23371810612002 L 570.8474576271186,178.41412019478116 L 580.6779661016949,64.41838992346129 L 590.5084745762712,139.60824584734058 L 600.3389830508474,194.18723754617068 L 610.1694915254237,84.60597361463329 L 620.0,123.51445855670985" fill="none" stroke="#f59e0b" stroke-width="2" stroke-linecap="round" stroke-linejoin="round" />
<path d="M 40.0,106.2317161720481 L 49.83050847457627,95.81966198505197 L 59.66101694915254,168.91389374375734 L 69.49152542372882,116.60423776376048 L 79.32203389830508,57.40828680231158 L 89.15254237288136,136.74153466018194 L 98.98305084745763,141.89309848056934 L 108.8135593220339,142.51570754034145 L 118.64406779661017,118.43079569414493 L 128.47457627118644,114.0114542380779 L 138.3050847457627,144.11904867747276 L 148.135593220339,140.52081947668748 L 157.96610169491527,62.45640371830922 L 167.79661016949154,134.73113946131252 L 177.6271186440678,115.70681987515756 L 187.45762711864407,134.19275987741446 L 197.28813559322035,140.56694708513686 L 207.11864406779662,142.2227357083766 L 216.94915254237287,164.51409161381457 L 226.77966101694915,86.3744492364412 L 236.61016949152543,130.93917365808693 L 246.4406779661017,117.68155871668122 L 256.271186440678,53.15495485710926 L 266.10169491525426,148.21218943807682 L 275.93220338983053,40.0 L 285.7627118644068,166.91754620596527 L 295.5932203389831,163.478875947613 L 305.4237288135593,89.63834899980908 L 315.2542372881356,147.15945900047677 L 325.08474576271186,200.0 L 334.91525423728814,54.35586535595394 L 344.7457627118644,145.66821016394945 L 354.5762711864407,122.02153633750699 L 364.40677966101697,96.99978032094519 L 374.23728813559325,134.76727699869093 L 384.06779661016947,116.71943177927338 L 393.89830508474574,117.22196076036936 L 403.728813559322,172.15197355443846 L 413.5593220338983,118.15179784703307 L 423.3898305084746,107.4814388119119 L 433.22033898305085,164.6021542443798 L 443.0508474576271,100.74992753839992 L 452.8813559322034,187.65457598960677 L 462.7118644067797,153.87597999838545 L 472.54237288135596,89.1561782187793 L 482.3728813559322,100.72606273470473 L 492.20338983050846,180.39583698632688 L 502.03389830508473,147.04427823617232 L 511.864406779661,161.60720177209677 L 521.6949152542372,159.33807917896252 L 531.5254237288136,157.84738256877688 L 541.3559322033898,67.35481582226885 L 551.1864406779662,161.53330563214175 L 561.0169491525423,92.21135047101546 L 570.8474576271186,93.83414047883605 L 580.6779661016949,126.37125346831736 L 590.5084745762712,163.50872653955656 L 600.3389830508474,116.21001178307199 L 610.1694915254237,157.4812079433474 L 620.0,112.43693995602092" fill="none" stroke="#8b5cf6" stroke-width="2" stroke-linecap="round" stroke-linejoin="round" />
<path d="M 40.0,127.52597034485832 L 49.83050847457627,200.0 L 59.66101694915254,167.4538574366074 L 69.49152542372882,183.751617445787 L 79.32203389830508,138.25137600047975 L 89.15254237288136,171.82272858996672 L 98.98305084745763,41.779453939477975 L 108.8135593220339,117.77519226104539 L 118.64406779661017,125.14172785491357 L 128.47457627118644,135.89322591527045 L 138.3050847457627,97.6179997124453 L 148.135593220339,40.0 L 157.96610169491527,108.84908732828934 L 167.79661016949154,129.5522409391267 L 177.6271186440678,94.66744481813944 L 187.45762711864407,98.97744595651659 L 197.28813559322035,122.8868568127397 L 207.11864406779662,100.273054955714 L 216.94915254237287,91.84308413613405 L 226.77966101694915,108.77461172329637 L 236.61016949152543,120.08129787469832 L 246.4406779661017,138.49620029429735 L 256.271186440678,77.97493463314623 L 266.10169491525426,142.42891832734267 L 275.93220338983053,136.71530732957615 L 285.7627118644068,105.85492453475806 L 295.5932203389831,119.34963860052002 L 305.4237288135593,60.99862586068741 L 315.2542372881356,155.3613335538644 L 325.08474576271186,102.35534307856426 L 334.91525423728814,123.17486817832298 L 344.7457627118644,152.44574626104068 L 354.5762711864407,138.51369809249113 L 364.40677966101697,148.8657504629888 L 374.23728813559325,123.22106195743905 L 384.06779661016947,107.57946761329282 L 393.89830508474574,139.0562511859683 L 403.728813559322,121.44555266500126 L 413.5593220338983,107.02099489338539 L 423.3898305084746,99.29368641448002 L 433.22033898305085,149.7300591987024 L 443.0508474576271,98.43038887898109 L 452.8813559322034,51.390139781512914 L 462.7118644067797,79.26715447090456 L 472.54237288135596,119.00013296750126 L 482.3728813559322,48.49530182635834 L 492.20338983050846,61.20477882531446 L 502.03389830508473,129.9819811279565 L 511.864406779661,109.87346167277566 L 521.6949152542372,141.89447367756992 L 531.5254237288136,87.51720442936096 L 541.3559322033898,58.13087002095648 L 551.1864406779662,87.59288094317299 L 561.0169491525423,119.55652117327489 L 570.8474576271186,157.0203203453485 L 580.6779661016949,114.31809502652364 L 590.5084745762712,150.30775996867703 L 600.3389830508474,91.76478340204979 L 610.1694915254237,99.88035410221914 L 620.0,58.27986625078955" fill="none" stroke="#0ea5e9" stroke-width="2" stroke-linecap="round" stroke-linejoin="round" />
<rect x="45" y="5" width="10" height="10" rx="2" fill="#3b82f6" />
<text x="60" y="14" fill="#94a3b8" font-family="Inter, sans-serif" font-size="10">M1 (Conveyor A)</text>
<rect x="160" y="5" width="10" height="10" rx="2" fill="#10b981" />
<text x="175" y="14" fill="#94a3b8" font-family="Inter, sans-serif" font-size="10">M2 (Motor Unit)</text>
<rect x="275" y="5" width="10" height="10" rx="2" fill="#f59e0b" />
<text x="290" y="14" fill="#94a3b8" font-family="Inter, sans-serif" font-size="10">M3 (Pump Unit)</text>
<rect x="390" y="5" width="10" height="10" rx="2" fill="#8b5cf6" />
<text x="405" y="14" fill="#94a3b8" font-family="Inter, sans-serif" font-size="10">M4 (Compressor)</text>
<rect x="505" y="5" width="10" height="10" rx="2" fill="#0ea5e9" />
<text x="520" y="14" fill="#94a3b8" font-family="Inter, sans-serif" font-size="10">M5 (Packaging)</text>
</svg>