<svg viewBox="0 0 650 250" width="100%" height="250" xmlns="http://www.w3.org/2000/svg" style="background:#0d131f; border-radius:8px; border:1px solid #232d45; padding: 10px;">
<line x1="40" y1="30" x2="40" y2="210" stroke="#232d45" stroke-width="1" />
<line x1="40" y1="210" x2="620" y2="210" stroke="#232d45" stroke-width="1" />
<line x1="40" y1="30" x2="620" y2="30" stroke="#1e293b" stroke-dasharray="3,3" stroke-width="1" />
<line x1="40" y1="75" x2="620" y2="75" stroke="#1e293b" stroke-dasharray="3,3" stroke-width="1" />
<line x1="40" y1="120" x2="620" y2="120" stroke="#1e293b" stroke-dasharray="3,3" stroke-width="1" />
<line x1="40" y1="165" x2="620" y2="165" stroke="#1e293b" stroke-dasharray="3,3" stroke-width="1" />
<line x1="40" y1="210" x2="620" y2="210" stroke="#1e293b" stroke-dasharray="3,3" stroke-width="1" />
<path d="M 40.0,103.14019367685837 L 49.83050847457627,40.0 L 59.66101694915254,80.09089012175997 L 69.49152542372882,67.29397727936606 L 79.32203389830508,127.34958278856062 L 89.15254237288136,83.00008577713155 L 98.98305084745763,91.73099372701685 L 108.8135593220339,133.6817082200085 L 118.64406779661017,113.02290798216939 L 128.47457627118644,108.6196023017643 L 138.3050847457627,151.5862282536111 L 148.135593220339,119.21624256677052 L 157.96610169491527,129.6650339392912 L 167.79661016949154,163.8059243718294 L 177.6271186440678,84.2623133554334 L 187.45762711864407,200.0 L 197.28813559322035,198.2641685065363 L 207.11864406779662,170.08312726607994 L 216.94915254237287,133.34321274550933 L 226.77966101694915,70.80944658240276 L 236.61016949152543,127.97489641168602 L 246.4406779661017,118.23777888635009 L 256.271186440678,147.6799291152608 L 266.10169491525426,155.40291239246616 L 275.93220338983053,108.24219848009827 L 285.7627118644068,124.72765750067458 L 295.5932203389831,142.65167299338776 L 305.4237288135593,187.4380594465986 L 315.2542372881356,106.54984595289275 L 325.08474576271186,111.39373967179398 L 334.91525423728814,134.78017280455254 L 344.7457627118644,82.18627868777469 L 354.5762711864407,103.15197152515455 L 364.40677966101697,98.74549881970624 L 374.23728813559325,185.88216739308683 L 384.06779661016947,50.24077808738329 L 393.89830508474574,109.34115734946067 L 403.728813559322,99.689494934958 L 413.5593220338983,97.21127112600671 L 423.3898305084746,132.68456489087515 L 433.22033898305085,123.37312374272707 L 443.0508474576271,82.72690586429222 L 452.8813559322034,60.812358894012675 L 462.7118644067797,199.18839311529902 L 472.54237288135596,153.92474146958466 L 482.3728813559322,134.49647804066518 L 492.20338983050846,135.10870498695417 L 502.03389830508473,178.79353643345377 L 511.864406779661,64.16781880815654 L 521.6949152542372,191.77637659578403 L 531.5254237288136,102.15075717921984 L 541.3559322033898,196.58418004060147 L 551.1864406779662,91.08161965122076 L 561.0169491525423,155.04192221816203 L 570.8474576271186,121.2033949601631 L 580.6779661016949,126.18642729310712 L 590.5084745762712,134.3243119426849 L 600.3389830508474,114.46392176019916 L 610.1694915254237,129.20194756491048 L 620.0,60.43518126238064" fill="none" stroke="#3b82f6" stroke-width="2" stroke-linecap="round" stroke-linejoin="round" />
<path d="M 40.0,148.20968976251896 L 49.83050847457627,131.16602132580942 L 59.66101694915254,138.21106113420504 L 69.49152542372882,133.493034752707 L 79.32203389830508,89.51043717119498 L 89.15254237288136,130.17037774701038 L 98.98305084745763,132.78361195771575 L 108.8135593220339,145.29880651535183 L 118.64406779661017,139.60159055163837 L 128.47457627118644,139.77149005254194 L 138.3050847457627,75.5289363885956 L 148.135593220339,100.02797058265313 L 157.96610169491527,125.72348988830082 L 167.79661016949154,127.73331872035372 L 177.6271186440678,40.0 L 187.45762711864407,165.7066614824876 L 197.28813559322035,102.83651974521172 L 207.11864406779662,125.81089482204533 L 216.94915254237287,133.11739133254844 L 226.77966101694915,133.87742130408395 L 236.61016949152543,161.65599422049775 L 246.4406779661017,123.20457477788541 L 256.271186440678,84.14599498017564 L 266.10169491525426,93.64088427524175 L 275.93220338983053,183.66566420097422 L 285.7627118644068,135.5090414449897 L 295.5932203389831,72.74428212985113 L 305.4237288135593,126.34253211581614 L 315.2542372881356,149.4247774581026 L 325.08474576271186,117.61550051373064 L 334.91525423728814,190.37417182980036 L 344.7457627118644,104.3178414963184 L 354.5762711864407,104.14713879725858 L 364.40677966101697,174.53963682899544 L 374.23728813559325,128.41117437132317 L 384.06779661016947,156.01931780553525 L 393.89830508474574,112.05037910827322 L 403.728813559322,88.9657923208526 L 413.5593220338983,151.67508785278199 L 423.3898305084746,70.54292766544734 L 433.22033898305085,143.88925000256017 L 443.0508474576271,115.26615750290614 L 452.8813559322034,70.71836439743299 L 462.7118644067797,164.8884588574914 L 472.54237288135596,200.0 L 482.3728813559322,119.23676614988437 L 492.20338983050846,116.07659786685673 L 502.03389830508473,135.50324966954832 L 511.864406779661,69.91822960285731 L 521.6949152542372,97.39280213485658 L 531.5254237288136,136.71361808041934 L 541.3559322033898,83.97438787236004 L 551.1864406779662,112.5560962140043 L 561.0169491525423,112.75329646365735 L 570.8474576271186,83.51360597754598 L 580.6779661016949,127.31546990653732 L 590.5084745762712,146.61520101257355 L 600.3389830508474,130.65272393651455 L 610.1694915254237,118.63565744943133 L 620.0,124.85188250666668" fill="none" stroke="#10b981" stroke-width="2" stroke-linecap="round" stroke-linejoin="round" />
<path d="M 40.0,125.67798482935244 L 49.83050847457627,133.95322843819295 L 59.66101694915254,148.05482348776036 L 69.49152542372882,93.79098823885641 L 79.32203389830508,127.5949850862788 L 89.15254237288136,133.90424568509928 L 98.98305084745763,151.0660449813094 L 108.8135593220339,90.85598669816844 L 118.64406779661017,120.27803734074465 L 128.47457627118644,132.18201539032617 L 138.3050847457627,136.35467013347989 L 148.135593220339,112.09789881087325 L 157.96610169491527,153.37093093643125 L 167.79661016949154,137.2780992113124 L 177.6271186440678,157.34036798764106 L 187.45762711864407,186.17667679833704 L 197.28813559322035,104.89699928023182 L 207.11864406779662,118.39416986380188 L 216.94915254237287,74.6856455512197 L 226.77966101694915,143.23160289763223 L 236.61016949152543,97.76737695571627 L 246.4406779661017,156.25465276459136 L 256.271186440678,140.8464842356276 L 266.10169491525426,193.1582381233317 L 275.93220338983053,82.60655781241377 L 285.7627118644068,113.4863805317243 L 295.5932203389831,163.41962355955283 L 305.4237288135593,151.67697916493128 L 315.2542372881356,113.8913815823764 L 325.08474576271186,81.20570588082848 L 334.91525423728814,119.00316135297365 L 344.7457627118644,118.41520360498123 L 354.5762711864407,78.25685251760164 L 364.40677966101697,128.64443837422914 L 374.23728813559325,103.08894250010886 L 384.06779661016947,132.21897150108958 L 393.89830508474574,94.44553676664748 L 403.728813559322,143.8747050094414 L 413.5593220338983,200.0 L 423.3898305084746,87.13231316247419 L 433.22033898305085,176.48109715772364 L 443.0508474576271,145.73552076519297 L 452.8813559322034,104.65502307420033 L 462.7118644067797,73.28075371019017 L 472.54237288135596,120.00063187831825 L 482.3728813559322,129.29787587624875 L 492.20338983050846,142.46239352763246 L 502.03389830508473,120.02199658240639 L 511.864406779661,76.02768257213032 L 521.6949152542372,157.45681718785605 L 531.5254237288136,104.04788950084823 L 541.3559322033898,111.78817560354898 L 551.1864406779662,40.0 L 561.0169491525423,116.83275784963776 L 570.8474576271186,118.68097835347632 L 580.6779661016949,117.50533173510071 L 590.5084745762712,148.51626947977772 L 600.3389830508474,149.74557250430718 L 610.1694915254237,131.39543572392841 L 620.0,185.87312342378567" fill="none" stroke="#f59e0b" stroke-width="2" stroke-linecap="round" stroke-linejoin="round" />
<path d="M 40.0,151.4433736468401 L 49.83050847457627,116.32502128689197 L 59.66101694915254,92.07102849275682 L 69.49152542372882,133.5074679847232 L 79.32203389830508,96.2868055798746 L 89.15254237288136,125.48935759807766 L 98.98305084745763,91.4378495582697 L 108.8135593220339,170.31892156933003 L 118.64406779661017,200.0 L 128.47457627118644,134.0571449916347 L 138.3050847457627,180.15982077715654 L 148.135593220339,175.99404830866368 L 157.96610169491527,109.00670036976224 L 167.79661016949154,168.85425930838989 L 177.6271186440678,134.60893112537855 L 187.45762711864407,118.36652475448007 L 197.28813559322035,80.42842727226643 L 207.11864406779662,161.06435534086478 L 216.94915254237287,132.17402670973868 L 226.77966101694915,114.31417492018221 L 236.61016949152543,76.0113871533118 L 246.4406779661017,172.36611594111392 L 256.271186440678,80.12787979240497 L 266.10169491525426,87.87763035660704 L 275.93220338983053,133.00785332463232 L 285.7627118644068,155.4962899583068 L 295.5932203389831,89.88278073384338 L 305.4237288135593,174.496069950684 L 315.2542372881356,106.30025663908542 L 325.08474576271186,91.60054274106571 L 334.91525423728814,145.89027869047897 L 344.7457627118644,152.55782308829646 L 354.5762711864407,122.84009615592515 L 364.40677966101697,159.59996263620994 L 374.23728813559325,102.48365139973149 L 384.06779661016947,128.88406779191334 L 393.89830508474574,120.2857725451951 L 403.728813559322,184.53065764012348 L 413.5593220338983,192.77700385299775 L 423.3898305084746,177.2076624482599 L 433.22033898305085,137.0303059314286 L 443.0508474576271,126.45986489233388 L 452.8813559322034,175.8642292285641 L 462.7118644067797,153.18130327863025 L 472.54237288135596,154.69031567026227 L 482.3728813559322,110.94426888421322 L 492.20338983050846,140.62457601205256 L 502.03389830508473,162.92202104092544 L 511.864406779661,102.48905488573897 L 521.6949152542372,158.33138193279174 L 531.5254237288136,165.3894936952836 L 541.3559322033898,85.51828387991519 L 551.1864406779662,40.0 L 561.0169491525423,135.96025360065337 L 570.8474576271186,81.01600196368477 L 580.6779661016949,176.50154983994614 L 590.5084745762712,126.36794002451262 L 600.3389830508474,108.01754206527553 L 610.1694915254237,142.1799936478286 L 620.0,94.77773110504911" fill="none" stroke="#8b5cf6" stroke-width="2" stroke-linecap="round" stroke-linejoin="round" />
<path d="M 40.0,88.3331432825733 L 49.83050847457627,121.29253423864468 L 59.66101694915254,88.27074168084954 L 69.49152542372882,168.78161288259966 L 79.32203389830508,108.33684210845723 L 89.15254237288136,155.5912179741108 L 98.98305084745763,40.0 L 108.8135593220339,76.98510818482222 L 118.64406779661017,139.79585508809294 L 128.47457627118644,79.32740738925054 L 138.3050847457627,160.08291412116935 L 148.135593220339,72.87114873978635 L 157.96610169491527,127.27905867552381 L 167.79661016949154,90.49251738176473 L 177.6271186440678,80.23761385171031 L 187.45762711864407,80.38779238456846 L 197.28813559322035,186.67484414604155 L 207.11864406779662,168.10430920401305 L 216.94915254237287,118.35843593604942 L 226.77966101694915,165.1366673897773 L 236.61016949152543,145.16085026724477 L 246.4406779661017,75.58548121742666 L 256.271186440678,123.88431978173769 L 266.10169491525426,140.41397228832034 L 275.93220338983053,105.22861793518403 L 285.7627118644068,79.05136259849127 L 295.5932203389831,104.00858323787132 L 305.4237288135593,178.45541648253027 L 315.2542372881356,131.53816445580412 L 325.08474576271186,86.93999961659735 L 334.91525423728814,131.50055291331816 L 344.7457627118644,64.88106543068272 L 354.5762711864407,114.26131912963783 L 364.40677966101697,103.93155367358489 L 374.23728813559325,104.48891298362261 L 384.06779661016947,144.45346866022618 L 393.89830508474574,134.71869147278733 L 403.728813559322,121.0623388217723 L 413.5593220338983,102.19236887691899 L 423.3898305084746,54.69044293070337 L 433.22033898305085,150.33235698000345 L 443.0508474576271,99.18997499493999 L 452.8813559322034,120.51853307757011 L 462.7118644067797,200.0 L 472.54237288135596,89.435829761322 L 482.3728813559322,126.98010276513979 L 492.20338983050846,163.05227730689003 L 502.03389830508473,105.98982113440371 L 511.864406779661,79.7918263596466 L 521.6949152542372,73.82168399458698 L 531.5254237288136,101.48083836894011 L 541.3559322033898,137.69656918274038 L 551.1864406779662,90.39833021074921 L 561.0169491525423,123.49749175596075 L 570.8474576271186,95.37783444214458 L 580.6779661016949,95.32995512392596 L 590.5084745762712,180.81524439851896 L 600.3389830508474,91.00694898075619 L 610.1694915254237,46.452948496175225 L 620.0,97.92995345639977" fill="none" stroke="#0ea5e9" stroke-width="2" stroke-linecap="round" stroke-linejoin="round" />
<rect x="45" y="5" width="10" height="10" rx="2" fill="#3b82f6" />
<text x="60" y="14" fill="#94a3b8" font-family="Inter, sans-serif" font-size="10">M1 (Conveyor A)</text>
<rect x="160" y="5" width="10" height="10" rx="2" fill="#10b981" />
<text x="175" y="14" fill="#94a3b8" font-family="Inter, sans-serif" font-size="10">M2 (Motor Unit)</text>
<rect x="275" y="5" width="10" height="10" rx="2" fill="#f59e0b" />
<text x="290" y="14" fill="#94a3b8" font-family="Inter, sans-serif" font-size="10">M3 (Pump Unit)</text>
<rect x="390" y="5" width="10" height="10" rx="2" fill="#8b5cf6" />
<text x="405" y="14" fill="#94a3b8" font-family="Inter, sans-serif" font-size="10">M4 (Compressor)</text>
<rect x="505" y="5" width="10" height="10" rx="2" fill="#0ea5e9" />
<text x="520" y="14" fill="#94a3b8" font-family="Inter, sans-serif" font-size="10">M5 (Packaging)</text>
</svg>