<svg viewBox="0 0 650 250" width="100%" height="250" xmlns="http://www.w3.org/2000/svg" style="background:#0d131f; border-radius:8px; border:1px solid #232d45; padding: 10px;">
<line x1="40" y1="30" x2="40" y2="210" stroke="#232d45" stroke-width="1" />
<line x1="40" y1="210" x2="620" y2="210" stroke="#232d45" stroke-width="1" />
<line x1="40" y1="30" x2="620" y2="30" stroke="#1e293b" stroke-dasharray="3,3" stroke-width="1" />
<line x1="40" y1="75" x2="620" y2="75" stroke="#1e293b" stroke-dasharray="3,3" stroke-width="1" />
<line x1="40" y1="120" x2="620" y2="120" stroke="#1e293b" stroke-dasharray="3,3" stroke-width="1" />
<line x1="40" y1="165" x2="620" y2="165" stroke="#1e293b" stroke-dasharray="3,3" stroke-width="1" />
<line x1="40" y1="210" x2="620" y2="210" stroke="#1e293b" stroke-dasharray="3,3" stroke-width="1" />
<path d="M 40.0,111.51594931003105 L 60.0,61.69979003191355 L 80.0,154.26791370446838 L 100.0,142.13206574965864 L 120.0,117.00501800886158 L 140.0,147.99240125607156 L 160.0,108.72324392386571 L 180.0,60.718170662408625 L 200.0,138.4792388965446 L 220.0,173.38900017845114 L 240.0,40.0 L 260.0,143.53874851313424 L 280.0,135.7137058725601 L 300.0,176.21168524543486 L 320.0,118.11990941513857 L 340.0,106.65432597178511 L 360.0,106.2638053759785 L 380.0,131.42720916001366 L 400.0,74.95981207871128 L 420.0,151.30420753346363 L 440.0,200.0 L 460.0,88.62221160057274 L 480.0,141.1959478973929 L 500.0,139.50497582843553 L 520.0,92.83265679708035 L 540.0,159.67070999471002 L 560.0,96.98271513259543 L 580.0,115.4574310628391 L 600.0,101.58982292336879 L 620.0,126.45504747943167" fill="none" stroke="#3b82f6" stroke-width="2" stroke-linecap="round" stroke-linejoin="round" />
<path d="M 40.0,174.35931100915252 L 60.0,153.54813494315098 L 80.0,128.96011647526385 L 100.0,128.69179557971307 L 120.0,117.80154676431864 L 140.0,166.40058360995639 L 160.0,189.98189694201383 L 180.0,127.80611947162615 L 200.0,180.63938009611905 L 220.0,144.08590304369432 L 240.0,94.8229598789905 L 260.0,138.4221676978015 L 280.0,185.93362581587007 L 300.0,137.2273230285775 L 320.0,177.18081669392905 L 340.0,170.08115099320128 L 360.0,186.1501747726013 L 380.0,200.0 L 400.0,143.77355180544174 L 420.0,136.64905980646222 L 440.0,142.4625087157666 L 460.0,40.0 L 480.0,120.45476479637942 L 500.0,161.6861387671675 L 520.0,152.6828688305967 L 540.0,182.63741601242023 L 560.0,141.2308165198256 L 580.0,127.36174054011381 L 600.0,95.06724302751829 L 620.0,157.8997163399581" fill="none" stroke="#10b981" stroke-width="2" stroke-linecap="round" stroke-linejoin="round" />
<path d="M 40.0,132.21716799192416 L 60.0,99.81182066567912 L 80.0,82.17600301256978 L 100.0,200.0 L 120.0,93.3056826013002 L 140.0,181.6470872382023 L 160.0,143.40600463500027 L 180.0,40.0 L 200.0,83.351484480204 L 220.0,166.42617339337278 L 240.0,164.85302749523493 L 260.0,115.79288575222301 L 280.0,176.29380628723925 L 300.0,119.25976479052055 L 320.0,101.21905786983065 L 340.0,79.05489355388207 L 360.0,168.04906665858826 L 380.0,160.73509973732746 L 400.0,59.58237960774676 L 420.0,78.97016909824364 L 440.0,102.65574344570148 L 460.0,183.50242662959784 L 480.0,121.39384671999116 L 500.0,147.24411587330223 L 520.0,156.27336175724386 L 540.0,189.91309670410402 L 560.0,65.47719781021902 L 580.0,151.98569316850126 L 600.0,77.55002735803424 L 620.0,126.92969236702054" fill="none" stroke="#f59e0b" stroke-width="2" stroke-linecap="round" stroke-linejoin="round" />
<path d="M 40.0,97.75354154399014 L 60.0,150.45796936136034 L 80.0,159.4609436787047 L 100.0,193.59901182485552 L 120.0,90.47890855083784 L 140.0,150.52612459471987 L 160.0,190.05768760320805 L 180.0,133.2334076956967 L 200.0,78.95091707608975 L 220.0,130.17508380396907 L 240.0,174.16906536414112 L 260.0,95.20193245219227 L 280.0,169.97836928532382 L 300.0,132.27870509705738 L 320.0,40.0 L 340.0,151.73249882905537 L 360.0,117.84205772485366 L 380.0,141.24969990673202 L 400.0,174.24644359725184 L 420.0,145.28453147288226 L 440.0,66.3878069649216 L 460.0,60.77442904886615 L 480.0,179.0940478604427 L 500.0,120.73773408501808 L 520.0,200.0 L 540.0,138.56448678297397 L 560.0,176.18497428206092 L 580.0,104.131209550503 L 600.0,196.77964635561986 L 620.0,94.27033606506342" fill="none" stroke="#8b5cf6" stroke-width="2" stroke-linecap="round" stroke-linejoin="round" />
<path d="M 40.0,152.95895520838656 L 60.0,119.54970920220477 L 80.0,114.01051801574782 L 100.0,106.22383111459288 L 120.0,159.10798245697794 L 140.0,130.3719713738467 L 160.0,179.34413487029732 L 180.0,58.255477652129485 L 200.0,128.94723560785923 L 220.0,129.93453875189 L 240.0,198.808294372837 L 260.0,186.1432489490111 L 280.0,118.11183673841572 L 300.0,170.28406764665002 L 320.0,66.30093358648043 L 340.0,86.52447864356999 L 360.0,197.05575698169156 L 380.0,130.33410102416175 L 400.0,175.32213443088284 L 420.0,124.04526062108411 L 440.0,40.0 L 460.0,107.29638875709787 L 480.0,200.0 L 500.0,141.98754741214964 L 520.0,177.35262833849794 L 540.0,98.69962728950131 L 560.0,99.01875214209049 L 580.0,108.66107977512421 L 600.0,121.89899086354865 L 620.0,148.34548492192533" fill="none" stroke="#0ea5e9" stroke-width="2" stroke-linecap="round" stroke-linejoin="round" />
<rect x="45" y="5" width="10" height="10" rx="2" fill="#3b82f6" />
<text x="60" y="14" fill="#94a3b8" font-family="Inter, sans-serif" font-size="10">M1 (Conveyor A)</text>
<rect x="160" y="5" width="10" height="10" rx="2" fill="#10b981" />
<text x="175" y="14" fill="#94a3b8" font-family="Inter, sans-serif" font-size="10">M2 (Motor Unit)</text>
<rect x="275" y="5" width="10" height="10" rx="2" fill="#f59e0b" />
<text x="290" y="14" fill="#94a3b8" font-family="Inter, sans-serif" font-size="10">M3 (Pump Unit)</text>
<rect x="390" y="5" width="10" height="10" rx="2" fill="#8b5cf6" />
<text x="405" y="14" fill="#94a3b8" font-family="Inter, sans-serif" font-size="10">M4 (Compressor)</text>
<rect x="505" y="5" width="10" height="10" rx="2" fill="#0ea5e9" />
<text x="520" y="14" fill="#94a3b8" font-family="Inter, sans-serif" font-size="10">M5 (Packaging)</text>
</svg>