<svg viewBox="0 0 650 250" width="100%" height="250" xmlns="http://www.w3.org/2000/svg" style="background:#0d131f; border-radius:8px; border:1px solid #232d45; padding: 10px;">
<line x1="40" y1="30" x2="40" y2="210" stroke="#232d45" stroke-width="1" />
<line x1="40" y1="210" x2="620" y2="210" stroke="#232d45" stroke-width="1" />
<line x1="40" y1="30" x2="620" y2="30" stroke="#1e293b" stroke-dasharray="3,3" stroke-width="1" />
<line x1="40" y1="75" x2="620" y2="75" stroke="#1e293b" stroke-dasharray="3,3" stroke-width="1" />
<line x1="40" y1="120" x2="620" y2="120" stroke="#1e293b" stroke-dasharray="3,3" stroke-width="1" />
<line x1="40" y1="165" x2="620" y2="165" stroke="#1e293b" stroke-dasharray="3,3" stroke-width="1" />
<line x1="40" y1="210" x2="620" y2="210" stroke="#1e293b" stroke-dasharray="3,3" stroke-width="1" />
<path d="M 40.0,145.18957948134425 L 49.83050847457627,64.17963808209629 L 59.66101694915254,114.49487870602631 L 69.49152542372882,110.49195009406651 L 79.32203389830508,78.75864393365306 L 89.15254237288136,173.63419137161918 L 98.98305084745763,169.02286511499432 L 108.8135593220339,145.8712866323212 L 118.64406779661017,82.82996549221714 L 128.47457627118644,142.52157243834318 L 138.3050847457627,147.36388755214193 L 148.135593220339,101.66069661961794 L 157.96610169491527,83.16253714935098 L 167.79661016949154,127.64950610920056 L 177.6271186440678,129.33631064934315 L 187.45762711864407,151.60923692800895 L 197.28813559322035,98.39232973489456 L 207.11864406779662,122.5122462306091 L 216.94915254237287,86.7154576926197 L 226.77966101694915,152.04087649074143 L 236.61016949152543,62.34318331626082 L 246.4406779661017,148.47123934694875 L 256.271186440678,111.7938276102588 L 266.10169491525426,115.25464032599267 L 275.93220338983053,117.80955703287133 L 285.7627118644068,116.55906340948056 L 295.5932203389831,126.44874017259512 L 305.4237288135593,182.7030720280134 L 315.2542372881356,47.86135631315841 L 325.08474576271186,92.0296796064099 L 334.91525423728814,138.761731936131 L 344.7457627118644,81.80330876056036 L 354.5762711864407,111.08683565584356 L 364.40677966101697,40.0 L 374.23728813559325,116.6943892062545 L 384.06779661016947,69.08766508403963 L 393.89830508474574,105.95906211991141 L 403.728813559322,114.84296089231471 L 413.5593220338983,86.87119771670474 L 423.3898305084746,186.21033864160268 L 433.22033898305085,124.86763162433053 L 443.0508474576271,72.68066216304078 L 452.8813559322034,200.0 L 462.7118644067797,74.12779382500794 L 472.54237288135596,66.53102006358117 L 482.3728813559322,132.82369006071514 L 492.20338983050846,116.18186794284078 L 502.03389830508473,190.81716322786767 L 511.864406779661,145.28280544802735 L 521.6949152542372,56.10250621585311 L 531.5254237288136,133.46998230072884 L 541.3559322033898,97.83067377065879 L 551.1864406779662,62.51955338035148 L 561.0169491525423,164.677157303702 L 570.8474576271186,86.1648759414034 L 580.6779661016949,181.9860277996795 L 590.5084745762712,111.03360586699367 L 600.3389830508474,138.71256807589918 L 610.1694915254237,158.08601786291564 L 620.0,97.22997927191157" fill="none" stroke="#3b82f6" stroke-width="2" stroke-linecap="round" stroke-linejoin="round" />
<path d="M 40.0,118.17975693745167 L 49.83050847457627,173.19991272165117 L 59.66101694915254,98.4313468643718 L 69.49152542372882,133.9111266699838 L 79.32203389830508,82.60973194746738 L 89.15254237288136,143.957271087368 L 98.98305084745763,110.7598233973693 L 108.8135593220339,144.61032849946548 L 118.64406779661017,101.86577568051479 L 128.47457627118644,94.3146224329223 L 138.3050847457627,110.18706598069399 L 148.135593220339,194.36474933198267 L 157.96610169491527,84.9209936000493 L 167.79661016949154,64.01171087947398 L 177.6271186440678,100.02610863867417 L 187.45762711864407,188.36351604251982 L 197.28813559322035,66.4782123050496 L 207.11864406779662,91.14730227450255 L 216.94915254237287,91.340511589986 L 226.77966101694915,162.73965406490802 L 236.61016949152543,198.23727316378546 L 246.4406779661017,117.19718390896986 L 256.271186440678,137.87972424920596 L 266.10169491525426,76.68467276704345 L 275.93220338983053,112.46470380333831 L 285.7627118644068,139.43138184265666 L 295.5932203389831,80.64956417780786 L 305.4237288135593,105.21295941925842 L 315.2542372881356,73.76808045194758 L 325.08474576271186,42.87865833915106 L 334.91525423728814,200.0 L 344.7457627118644,184.07902730362332 L 354.5762711864407,177.33213138944592 L 364.40677966101697,154.89330336004855 L 374.23728813559325,75.1688817529169 L 384.06779661016947,195.40822245478236 L 393.89830508474574,121.34223920621334 L 403.728813559322,199.20172817660935 L 413.5593220338983,108.87844867057152 L 423.3898305084746,178.99227680300342 L 433.22033898305085,119.77112076017109 L 443.0508474576271,109.22526753660308 L 452.8813559322034,162.2731301854779 L 462.7118644067797,40.0 L 472.54237288135596,155.4531881002672 L 482.3728813559322,93.78773416621735 L 492.20338983050846,107.47471303669843 L 502.03389830508473,148.44211952653936 L 511.864406779661,82.62206057844564 L 521.6949152542372,174.98929844743225 L 531.5254237288136,164.56658187375967 L 541.3559322033898,153.48360712459817 L 551.1864406779662,53.930361964625774 L 561.0169491525423,154.24056827925432 L 570.8474576271186,163.10790957590135 L 580.6779661016949,144.22020274792627 L 590.5084745762712,75.13925625381447 L 600.3389830508474,108.61855323672773 L 610.1694915254237,78.89197923182032 L 620.0,51.43393206320991" fill="none" stroke="#10b981" stroke-width="2" stroke-linecap="round" stroke-linejoin="round" />
<path d="M 40.0,151.87351936709612 L 49.83050847457627,139.04477491692802 L 59.66101694915254,103.21090714464242 L 69.49152542372882,109.49954713657107 L 79.32203389830508,126.18577571677906 L 89.15254237288136,71.38622830725296 L 98.98305084745763,84.73728898280848 L 108.8135593220339,107.684062076949 L 118.64406779661017,138.65532510924723 L 128.47457627118644,147.1636793742715 L 138.3050847457627,200.0 L 148.135593220339,132.34617170752284 L 157.96610169491527,153.1382409259822 L 167.79661016949154,151.600031301677 L 177.6271186440678,160.99939864012597 L 187.45762711864407,138.4840218683943 L 197.28813559322035,156.69659719615873 L 207.11864406779662,141.65121603655402 L 216.94915254237287,142.05095810807055 L 226.77966101694915,145.8021540964874 L 236.61016949152543,107.36125345296726 L 246.4406779661017,173.89931654776052 L 256.271186440678,92.85754243016113 L 266.10169491525426,163.19347866731874 L 275.93220338983053,105.94395353102023 L 285.7627118644068,112.6516540562609 L 295.5932203389831,146.14055591765919 L 305.4237288135593,106.82035203980844 L 315.2542372881356,62.69494133186063 L 325.08474576271186,89.66495793269773 L 334.91525423728814,151.43997427610032 L 344.7457627118644,96.47830483938749 L 354.5762711864407,62.36970876548645 L 364.40677966101697,163.36621919812546 L 374.23728813559325,81.79810534118572 L 384.06779661016947,140.3944900502429 L 393.89830508474574,110.27209927504218 L 403.728813559322,45.22843874774463 L 413.5593220338983,82.17461917268567 L 423.3898305084746,103.20413521959574 L 433.22033898305085,65.11731656475777 L 443.0508474576271,79.96204130385593 L 452.8813559322034,98.56621657877588 L 462.7118644067797,109.33050008857643 L 472.54237288135596,154.06036564085247 L 482.3728813559322,191.5498225607296 L 492.20338983050846,112.2830376396858 L 502.03389830508473,110.19237282543912 L 511.864406779661,47.145027908358145 L 521.6949152542372,77.39607320896383 L 531.5254237288136,126.9284258181961 L 541.3559322033898,171.37125437151042 L 551.1864406779662,153.35817816689055 L 561.0169491525423,148.11416725868324 L 570.8474576271186,142.0217691123577 L 580.6779661016949,133.89668776753888 L 590.5084745762712,79.14897379387078 L 600.3389830508474,90.67943028207483 L 610.1694915254237,95.45647727172111 L 620.0,40.0" fill="none" stroke="#f59e0b" stroke-width="2" stroke-linecap="round" stroke-linejoin="round" />
<path d="M 40.0,138.78762967270444 L 49.83050847457627,109.49195650665024 L 59.66101694915254,112.79330677691405 L 69.49152542372882,144.56595380991126 L 79.32203389830508,184.3749788434425 L 89.15254237288136,163.0649704311224 L 98.98305084745763,189.36306480179397 L 108.8135593220339,145.24468630099287 L 118.64406779661017,186.56149719300015 L 128.47457627118644,124.19493567240626 L 138.3050847457627,114.38864776666631 L 148.135593220339,166.0871676602096 L 157.96610169491527,131.37524774468167 L 167.79661016949154,105.2409289049816 L 177.6271186440678,77.63441152473108 L 187.45762711864407,132.20587256996478 L 197.28813559322035,158.48716903845255 L 207.11864406779662,152.47236878988303 L 216.94915254237287,151.22051754183826 L 226.77966101694915,147.0562834910191 L 236.61016949152543,121.09686011738347 L 246.4406779661017,96.32742874726381 L 256.271186440678,186.34689062669798 L 266.10169491525426,87.25691356045766 L 275.93220338983053,98.40143805396416 L 285.7627118644068,141.79842934607092 L 295.5932203389831,68.40510389665567 L 305.4237288135593,179.86529714740408 L 315.2542372881356,121.19272031554333 L 325.08474576271186,75.35401851318996 L 334.91525423728814,40.0 L 344.7457627118644,164.43680110364832 L 354.5762711864407,194.53354010815877 L 364.40677966101697,155.94138594839123 L 374.23728813559325,152.4463628093608 L 384.06779661016947,42.28917105245421 L 393.89830508474574,136.5467489969004 L 403.728813559322,84.41762896414075 L 413.5593220338983,192.97721381924117 L 423.3898305084746,96.24194483486521 L 433.22033898305085,146.600769911368 L 443.0508474576271,117.28980275453551 L 452.8813559322034,139.94390744560877 L 462.7118644067797,57.53034749417199 L 472.54237288135596,152.45002869330133 L 482.3728813559322,200.0 L 492.20338983050846,77.0732589618583 L 502.03389830508473,120.46737169112872 L 511.864406779661,122.53214225161047 L 521.6949152542372,130.57168715989147 L 531.5254237288136,114.5875219652035 L 541.3559322033898,165.11050605706933 L 551.1864406779662,84.04742652430811 L 561.0169491525423,153.8597012037795 L 570.8474576271186,116.1333524264024 L 580.6779661016949,150.29093602036903 L 590.5084745762712,101.37367832783707 L 600.3389830508474,111.1383990017419 L 610.1694915254237,179.4139549790192 L 620.0,131.88685878375196" fill="none" stroke="#8b5cf6" stroke-width="2" stroke-linecap="round" stroke-linejoin="round" />
<path d="M 40.0,140.58396463030203 L 49.83050847457627,156.28088770093225 L 59.66101694915254,172.11860174245308 L 69.49152542372882,126.60238454091959 L 79.32203389830508,200.0 L 89.15254237288136,153.3441432768332 L 98.98305084745763,141.642823429132 L 108.8135593220339,170.28279785183804 L 118.64406779661017,153.08952530188014 L 128.47457627118644,142.81082074013665 L 138.3050847457627,126.62380094591363 L 148.135593220339,138.0908551827253 L 157.96610169491527,116.82542381073708 L 167.79661016949154,126.2666746359427 L 177.6271186440678,135.95864770246158 L 187.45762711864407,141.1456061457885 L 197.28813559322035,88.18556976276167 L 207.11864406779662,57.27834129397223 L 216.94915254237287,192.28423013077386 L 226.77966101694915,169.4815932443384 L 236.61016949152543,103.39173595809356 L 246.4406779661017,150.51247876057943 L 256.271186440678,163.57255100947054 L 266.10169491525426,113.68643440535695 L 275.93220338983053,101.92867758230679 L 285.7627118644068,128.56328853545915 L 295.5932203389831,149.59725392999763 L 305.4237288135593,123.42843811606835 L 315.2542372881356,126.09732667032662 L 325.08474576271186,124.72626008171284 L 334.91525423728814,169.57334970144808 L 344.7457627118644,155.57313309543503 L 354.5762711864407,145.52538390972984 L 364.40677966101697,136.6224622892102 L 374.23728813559325,114.0884021949101 L 384.06779661016947,133.25327017118218 L 393.89830508474574,170.52990279478163 L 403.728813559322,198.0450150470418 L 413.5593220338983,179.07070205082937 L 423.3898305084746,115.20918477507779 L 433.22033898305085,116.99899505819886 L 443.0508474576271,160.2811354725362 L 452.8813559322034,115.70950703391141 L 462.7118644067797,152.063687305058 L 472.54237288135596,129.32877959466936 L 482.3728813559322,171.4907822416814 L 492.20338983050846,172.68630099274176 L 502.03389830508473,142.12182248020474 L 511.864406779661,132.73189776894688 L 521.6949152542372,148.20337691524432 L 531.5254237288136,171.81668119021066 L 541.3559322033898,40.0 L 551.1864406779662,104.86098940600581 L 561.0169491525423,78.22504686244044 L 570.8474576271186,109.13680892182826 L 580.6779661016949,143.50206039832952 L 590.5084745762712,112.95596046313796 L 600.3389830508474,157.44583397440923 L 610.1694915254237,161.3546865032186 L 620.0,122.68321048538687" fill="none" stroke="#0ea5e9" stroke-width="2" stroke-linecap="round" stroke-linejoin="round" />
<rect x="45" y="5" width="10" height="10" rx="2" fill="#3b82f6" />
<text x="60" y="14" fill="#94a3b8" font-family="Inter, sans-serif" font-size="10">M1 (Conveyor A)</text>
<rect x="160" y="5" width="10" height="10" rx="2" fill="#10b981" />
<text x="175" y="14" fill="#94a3b8" font-family="Inter, sans-serif" font-size="10">M2 (Motor Unit)</text>
<rect x="275" y="5" width="10" height="10" rx="2" fill="#f59e0b" />
<text x="290" y="14" fill="#94a3b8" font-family="Inter, sans-serif" font-size="10">M3 (Pump Unit)</text>
<rect x="390" y="5" width="10" height="10" rx="2" fill="#8b5cf6" />
<text x="405" y="14" fill="#94a3b8" font-family="Inter, sans-serif" font-size="10">M4 (Compressor)</text>
<rect x="505" y="5" width="10" height="10" rx="2" fill="#0ea5e9" />
<text x="520" y="14" fill="#94a3b8" font-family="Inter, sans-serif" font-size="10">M5 (Packaging)</text>
</svg>