<svg viewBox="0 0 650 250" width="100%" height="250" xmlns="http://www.w3.org/2000/svg" style="background:#0d131f; border-radius:8px; border:1px solid #232d45; padding: 10px;">
<line x1="40" y1="30" x2="40" y2="210" stroke="#232d45" stroke-width="1" />
<line x1="40" y1="210" x2="620" y2="210" stroke="#232d45" stroke-width="1" />
<line x1="40" y1="30" x2="620" y2="30" stroke="#1e293b" stroke-dasharray="3,3" stroke-width="1" />
<line x1="40" y1="75" x2="620" y2="75" stroke="#1e293b" stroke-dasharray="3,3" stroke-width="1" />
<line x1="40" y1="120" x2="620" y2="120" stroke="#1e293b" stroke-dasharray="3,3" stroke-width="1" />
<line x1="40" y1="165" x2="620" y2="165" stroke="#1e293b" stroke-dasharray="3,3" stroke-width="1" />
<line x1="40" y1="210" x2="620" y2="210" stroke="#1e293b" stroke-dasharray="3,3" stroke-width="1" />
<path d="M 40.0,77.69406459608638 L 49.83050847457627,143.53751019726514 L 59.66101694915254,86.17313082865141 L 69.49152542372882,86.60183326891278 L 79.32203389830508,59.300225331425025 L 89.15254237288136,144.1340948951265 L 98.98305084745763,104.82508001690918 L 108.8135593220339,128.93715973519878 L 118.64406779661017,53.54406509646881 L 128.47457627118644,116.9217469572353 L 138.3050847457627,200.0 L 148.135593220339,131.93841970358392 L 157.96610169491527,137.37475150239027 L 167.79661016949154,78.23788845638477 L 177.6271186440678,113.24599528708345 L 187.45762711864407,81.32236212438158 L 197.28813559322035,132.17681309145667 L 207.11864406779662,68.84477199806244 L 216.94915254237287,103.42150742665369 L 226.77966101694915,128.47220001014492 L 236.61016949152543,107.28936144948555 L 246.4406779661017,128.0293006741726 L 256.271186440678,111.13301872528697 L 266.10169491525426,114.71785368213742 L 275.93220338983053,110.0078606410326 L 285.7627118644068,148.18960297424232 L 295.5932203389831,120.72989913509753 L 305.4237288135593,120.2832549231775 L 315.2542372881356,119.07177709457363 L 325.08474576271186,116.56952994426382 L 334.91525423728814,88.12828639339168 L 344.7457627118644,141.29385088172486 L 354.5762711864407,144.64389580192307 L 364.40677966101697,81.9825103640024 L 374.23728813559325,81.36106311222575 L 384.06779661016947,95.00857095633158 L 393.89830508474574,98.80495449121982 L 403.728813559322,121.55054216146357 L 413.5593220338983,93.4120851308205 L 423.3898305084746,168.53737978269595 L 433.22033898305085,114.68388802081391 L 443.0508474576271,94.69232802900102 L 452.8813559322034,165.38776393147492 L 462.7118644067797,110.06204463537631 L 472.54237288135596,92.20810330351982 L 482.3728813559322,111.3946880606886 L 492.20338983050846,74.97993277355845 L 502.03389830508473,117.65821349131811 L 511.864406779661,124.3038627062014 L 521.6949152542372,112.19024595072085 L 531.5254237288136,125.49301407530977 L 541.3559322033898,113.20932769892302 L 551.1864406779662,40.0 L 561.0169491525423,108.60122582489512 L 570.8474576271186,176.4383550150145 L 580.6779661016949,150.65819914043394 L 590.5084745762712,143.21773148008953 L 600.3389830508474,112.29175512334271 L 610.1694915254237,149.09988700490686 L 620.0,129.66304881006485" fill="none" stroke="#3b82f6" stroke-width="2" stroke-linecap="round" stroke-linejoin="round" />
<path d="M 40.0,161.48210627925044 L 49.83050847457627,62.84688337454409 L 59.66101694915254,131.99148205164855 L 69.49152542372882,184.01099732053902 L 79.32203389830508,104.62243171541385 L 89.15254237288136,188.84738362930784 L 98.98305084745763,121.58028209506918 L 108.8135593220339,76.20999695684402 L 118.64406779661017,119.27565988697285 L 128.47457627118644,89.32705954772287 L 138.3050847457627,167.10993006262476 L 148.135593220339,140.76782954855764 L 157.96610169491527,144.13008090049215 L 167.79661016949154,119.41100140365361 L 177.6271186440678,122.09576556421783 L 187.45762711864407,127.25807448744898 L 197.28813559322035,144.29060002333648 L 207.11864406779662,110.90119337603502 L 216.94915254237287,146.69650133653 L 226.77966101694915,160.37085116992665 L 236.61016949152543,101.18299233015998 L 246.4406779661017,87.2926457353556 L 256.271186440678,147.90035981441068 L 266.10169491525426,173.04663007120067 L 275.93220338983053,135.1964373494148 L 285.7627118644068,163.96835870962 L 295.5932203389831,195.1011074533762 L 305.4237288135593,167.52069073451202 L 315.2542372881356,170.14056019441367 L 325.08474576271186,146.20773288015565 L 334.91525423728814,91.70855626623438 L 344.7457627118644,190.37545920391645 L 354.5762711864407,200.0 L 364.40677966101697,155.78987965331703 L 374.23728813559325,158.97206285964887 L 384.06779661016947,165.10554628349666 L 393.89830508474574,130.85594036357858 L 403.728813559322,124.4917851185113 L 413.5593220338983,155.14655423178493 L 423.3898305084746,58.90836871731901 L 433.22033898305085,92.94296464694823 L 443.0508474576271,152.09402756965042 L 452.8813559322034,135.89072533094708 L 462.7118644067797,145.54520704037878 L 472.54237288135596,40.0 L 482.3728813559322,140.03595493505347 L 492.20338983050846,76.07273891721624 L 502.03389830508473,162.67941761306463 L 511.864406779661,112.85679936460825 L 521.6949152542372,136.69731229814158 L 531.5254237288136,100.47884032667412 L 541.3559322033898,143.6149937698463 L 551.1864406779662,143.22978130690058 L 561.0169491525423,152.6375018539869 L 570.8474576271186,160.64197290019777 L 580.6779661016949,129.6038852871602 L 590.5084745762712,123.12742167066854 L 600.3389830508474,155.96103062499142 L 610.1694915254237,136.5117613987117 L 620.0,119.42841498971652" fill="none" stroke="#10b981" stroke-width="2" stroke-linecap="round" stroke-linejoin="round" />
<path d="M 40.0,155.3193557293943 L 49.83050847457627,131.685138835725 L 59.66101694915254,129.9816979209276 L 69.49152542372882,94.21505204092458 L 79.32203389830508,100.69150820406763 L 89.15254237288136,147.9702104207172 L 98.98305084745763,121.62794263012748 L 108.8135593220339,107.84207717098369 L 118.64406779661017,142.48686967682175 L 128.47457627118644,60.30828000976692 L 138.3050847457627,94.06595509196958 L 148.135593220339,118.40674543955417 L 157.96610169491527,106.86897710596918 L 167.79661016949154,128.9335439625013 L 177.6271186440678,178.48710318100174 L 187.45762711864407,69.18056289070492 L 197.28813559322035,155.02452622642906 L 207.11864406779662,101.02443522572858 L 216.94915254237287,106.30460055859386 L 226.77966101694915,142.91409716908518 L 236.61016949152543,91.10165405862615 L 246.4406779661017,74.73847888167762 L 256.271186440678,96.96263952222938 L 266.10169491525426,98.66577737337587 L 275.93220338983053,144.0949225581753 L 285.7627118644068,90.4129051405608 L 295.5932203389831,95.15519099528026 L 305.4237288135593,100.21841040694838 L 315.2542372881356,188.40887701056317 L 325.08474576271186,154.66088649034197 L 334.91525423728814,155.9771436388943 L 344.7457627118644,92.20198565629026 L 354.5762711864407,167.77965142870798 L 364.40677966101697,171.1266014490884 L 374.23728813559325,79.85834455347701 L 384.06779661016947,140.05750350505696 L 393.89830508474574,183.7550123820672 L 403.728813559322,96.02110407124371 L 413.5593220338983,127.17235500547184 L 423.3898305084746,52.69347953217763 L 433.22033898305085,200.0 L 443.0508474576271,117.43007039685436 L 452.8813559322034,131.95558307858158 L 462.7118644067797,113.47016014455683 L 472.54237288135596,86.42576056526552 L 482.3728813559322,80.35140850008355 L 492.20338983050846,91.66451468801137 L 502.03389830508473,150.03630328803325 L 511.864406779661,94.23529663852464 L 521.6949152542372,40.0 L 531.5254237288136,74.90573975314479 L 541.3559322033898,141.91049757806508 L 551.1864406779662,162.26741951066091 L 561.0169491525423,65.6192441408391 L 570.8474576271186,120.74658666090059 L 580.6779661016949,100.39813523409107 L 590.5084745762712,93.30923880404822 L 600.3389830508474,93.01564934285992 L 610.1694915254237,50.063255109452314 L 620.0,128.8753394219297" fill="none" stroke="#f59e0b" stroke-width="2" stroke-linecap="round" stroke-linejoin="round" />
<path d="M 40.0,115.58901923173107 L 49.83050847457627,52.80059453123533 L 59.66101694915254,145.29723403691213 L 69.49152542372882,40.0 L 79.32203389830508,163.49871706354824 L 89.15254237288136,160.15267565315165 L 98.98305084745763,88.30122076801509 L 108.8135593220339,144.27286142379546 L 118.64406779661017,195.69001545382056 L 128.47457627118644,53.96915561950897 L 138.3050847457627,142.8217829587678 L 148.135593220339,119.81208912457856 L 157.96610169491527,95.4643542439521 L 167.79661016949154,132.21449262776676 L 177.6271186440678,114.65280949577127 L 187.45762711864407,115.14180165097643 L 197.28813559322035,168.5921425308963 L 207.11864406779662,116.04659134092773 L 216.94915254237287,105.6636640717038 L 226.77966101694915,161.24569574929265 L 236.61016949152543,99.11348223294976 L 246.4406779661017,183.67714511030752 L 256.271186440678,150.80845678604743 L 266.10169491525426,87.83203841582818 L 275.93220338983053,99.0902602850991 L 285.7627118644068,176.61393768783316 L 295.5932203389831,144.16078333020462 L 305.4237288135593,158.33141951996012 L 315.2542372881356,156.12342119751207 L 325.08474576271186,154.67288008328234 L 334.91525423728814,66.61794811315909 L 344.7457627118644,158.2595139501378 L 354.5762711864407,90.80491226060774 L 364.40677966101697,92.38398851933206 L 374.23728813559325,124.04463617030115 L 384.06779661016947,160.18172214765787 L 393.89830508474574,114.15711195151454 L 403.728813559322,154.3165692514579 L 413.5593220338983,110.48567688237732 L 423.3898305084746,107.95701008587466 L 433.22033898305085,63.24122495610487 L 443.0508474576271,103.3491971772274 L 452.8813559322034,172.14568376865432 L 462.7118644067797,91.50591066876432 L 472.54237288135596,126.38347642245712 L 482.3728813559322,106.96213838784635 L 492.20338983050846,200.0 L 502.03389830508473,56.53824649280628 L 511.864406779661,110.56134665069789 L 521.6949152542372,40.67348328938209 L 531.5254237288136,98.07683564968607 L 541.3559322033898,185.44381386629692 L 551.1864406779662,161.05822528764233 L 561.0169491525423,169.35405491807566 L 570.8474576271186,104.46215006780352 L 580.6779661016949,181.24737008746558 L 590.5084745762712,116.67981394860824 L 600.3389830508474,130.2578975313936 L 610.1694915254237,114.1808736028035 L 620.0,129.3490336060167" fill="none" stroke="#8b5cf6" stroke-width="2" stroke-linecap="round" stroke-linejoin="round" />
<path d="M 40.0,138.41663916060946 L 49.83050847457627,79.82688296439626 L 59.66101694915254,142.22384623447743 L 69.49152542372882,136.692582608343 L 79.32203389830508,106.81709530122885 L 89.15254237288136,119.88113152739332 L 98.98305084745763,63.392365588986166 L 108.8135593220339,154.74352914052213 L 118.64406779661017,103.4292014416528 L 128.47457627118644,123.58428059259671 L 138.3050847457627,151.92099152850764 L 148.135593220339,138.43357852430162 L 157.96610169491527,148.4552497152797 L 167.79661016949154,123.62900011765335 L 177.6271186440678,108.48660034904013 L 187.45762711864407,138.95881627541385 L 197.28813559322035,121.91015542014702 L 207.11864406779662,107.9459510393444 L 216.94915254237287,100.46525619785146 L 226.77966101694915,149.2919744194067 L 236.61016949152543,99.62951042193086 L 246.4406779661017,54.09053009953263 L 256.271186440678,81.07786217672904 L 266.10169491525426,119.54278021229653 L 275.93220338983053,51.28807961923934 L 285.7627118644068,63.591939272792644 L 295.5932203389831,130.17414753873896 L 305.4237288135593,110.70738260123507 L 315.2542372881356,141.7064581496698 L 325.08474576271186,89.0646154343169 L 334.91525423728814,60.61613291036335 L 344.7457627118644,89.13787676561243 L 354.5762711864407,120.08141153420642 L 364.40677966101697,156.34957010123162 L 374.23728813559325,115.01016744442796 L 384.06779661016947,149.85123812444357 L 393.89830508474574,93.17663479999497 L 403.728813559322,101.03320064543256 L 413.5593220338983,60.76037399132406 L 423.3898305084746,134.12013283045593 L 433.22033898305085,80.81938524464854 L 443.0508474576271,94.65743709527011 L 452.8813559322034,120.89259876150633 L 462.7118644067797,91.97957801016337 L 472.54237288135596,62.97664602290672 L 482.3728813559322,116.66545792085323 L 492.20338983050846,87.91838800516823 L 502.03389830508473,96.27664994601439 L 511.864406779661,117.99759131040577 L 521.6949152542372,80.09655919180943 L 531.5254237288136,200.0 L 541.3559322033898,133.50037055586995 L 551.1864406779662,114.42047878037044 L 561.0169491525423,123.25321059232539 L 570.8474576271186,40.0 L 580.6779661016949,79.23494270346342 L 590.5084745762712,164.24148686827363 L 600.3389830508474,123.60971809854615 L 610.1694915254237,124.94504756043116 L 620.0,76.18215118746484" fill="none" stroke="#0ea5e9" stroke-width="2" stroke-linecap="round" stroke-linejoin="round" />
<rect x="45" y="5" width="10" height="10" rx="2" fill="#3b82f6" />
<text x="60" y="14" fill="#94a3b8" font-family="Inter, sans-serif" font-size="10">M1 (Conveyor A)</text>
<rect x="160" y="5" width="10" height="10" rx="2" fill="#10b981" />
<text x="175" y="14" fill="#94a3b8" font-family="Inter, sans-serif" font-size="10">M2 (Motor Unit)</text>
<rect x="275" y="5" width="10" height="10" rx="2" fill="#f59e0b" />
<text x="290" y="14" fill="#94a3b8" font-family="Inter, sans-serif" font-size="10">M3 (Pump Unit)</text>
<rect x="390" y="5" width="10" height="10" rx="2" fill="#8b5cf6" />
<text x="405" y="14" fill="#94a3b8" font-family="Inter, sans-serif" font-size="10">M4 (Compressor)</text>
<rect x="505" y="5" width="10" height="10" rx="2" fill="#0ea5e9" />
<text x="520" y="14" fill="#94a3b8" font-family="Inter, sans-serif" font-size="10">M5 (Packaging)</text>
</svg>