<svg viewBox="0 0 650 250" width="100%" height="250" xmlns="http://www.w3.org/2000/svg" style="background:#0d131f; border-radius:8px; border:1px solid #232d45; padding: 10px;">
<line x1="40" y1="30" x2="40" y2="210" stroke="#232d45" stroke-width="1" />
<line x1="40" y1="210" x2="620" y2="210" stroke="#232d45" stroke-width="1" />
<line x1="40" y1="30" x2="620" y2="30" stroke="#1e293b" stroke-dasharray="3,3" stroke-width="1" />
<line x1="40" y1="75" x2="620" y2="75" stroke="#1e293b" stroke-dasharray="3,3" stroke-width="1" />
<line x1="40" y1="120" x2="620" y2="120" stroke="#1e293b" stroke-dasharray="3,3" stroke-width="1" />
<line x1="40" y1="165" x2="620" y2="165" stroke="#1e293b" stroke-dasharray="3,3" stroke-width="1" />
<line x1="40" y1="210" x2="620" y2="210" stroke="#1e293b" stroke-dasharray="3,3" stroke-width="1" />
<path d="M 40.0,66.19629514081012 L 49.83050847457627,82.176099911221 L 59.66101694915254,125.30962122641724 L 69.49152542372882,200.0 L 79.32203389830508,62.16919959741645 L 89.15254237288136,167.0667887195708 L 98.98305084745763,108.02763011955568 L 108.8135593220339,111.612764755155 L 118.64406779661017,106.95857009755855 L 128.47457627118644,103.2877104687363 L 138.3050847457627,184.81735721784392 L 148.135593220339,184.1631676830884 L 157.96610169491527,109.35412517848349 L 167.79661016949154,69.93827362900669 L 177.6271186440678,188.38417245945448 L 187.45762711864407,90.71754484780142 L 197.28813559322035,166.80092631674816 L 207.11864406779662,127.64097308090743 L 216.94915254237287,139.19142102627993 L 226.77966101694915,106.70975918414481 L 236.61016949152543,144.93810590749632 L 246.4406779661017,64.1218325462929 L 256.271186440678,114.3167860330264 L 266.10169491525426,110.32342710248246 L 275.93220338983053,78.66598480567146 L 285.7627118644068,173.3147161169581 L 295.5932203389831,168.7144140197571 L 305.4237288135593,145.61818332162653 L 315.2542372881356,82.72757317785276 L 325.08474576271186,142.2764771889402 L 334.91525423728814,147.1072159251798 L 344.7457627118644,101.51328624093459 L 354.5762711864407,83.05934976589712 L 364.40677966101697,127.43996506287293 L 374.23728813559325,129.12273700997554 L 384.06779661016947,151.34241607157895 L 393.89830508474574,98.25273294292958 L 403.728813559322,122.31498667744671 L 413.5593220338983,86.60377644854753 L 423.3898305084746,151.77302372655032 L 433.22033898305085,62.28976813780508 L 443.0508474576271,148.21192040725163 L 452.8813559322034,111.62219225912999 L 462.7118644067797,115.07473131366724 L 472.54237288135596,117.62354005777686 L 482.3728813559322,116.37603595199894 L 492.20338983050846,126.24206976139051 L 502.03389830508473,182.36191607227232 L 511.864406779661,47.84256240432154 L 521.6949152542372,91.90529381134067 L 531.5254237288136,138.52562522468824 L 541.3559322033898,81.70337084366292 L 551.1864406779662,110.91689048918298 L 561.0169491525423,40.0 L 570.8474576271186,116.5110382294479 L 580.6779661016949,69.01812607523627 L 590.5084745762712,105.8013757677011 L 600.3389830508474,114.6640360696683 L 610.1694915254237,86.75914414962642 L 620.0,185.86079796872417" fill="none" stroke="#3b82f6" stroke-width="2" stroke-linecap="round" stroke-linejoin="round" />
<path d="M 40.0,200.0 L 49.83050847457627,93.201839286063 L 59.66101694915254,90.71026702143644 L 69.49152542372882,106.97473143253978 L 79.32203389830508,172.9972315132004 L 89.15254237288136,130.85677457023826 L 98.98305084745763,130.4142619780875 L 108.8135593220339,129.87429606750337 L 118.64406779661017,109.29653187530619 L 128.47457627118644,116.326757867943 L 138.3050847457627,130.02285799492884 L 148.135593220339,135.3029196836452 L 157.96610169491527,121.23909519398515 L 167.79661016949154,92.8151728886783 L 177.6271186440678,123.20952341319126 L 187.45762711864407,130.2732976551327 L 197.28813559322035,138.2328838904737 L 207.11864406779662,110.361621178201 L 216.94915254237287,110.73047495099837 L 226.77966101694915,86.07872168318968 L 236.61016949152543,114.15705600456376 L 246.4406779661017,168.34129567461798 L 256.271186440678,94.70868169062611 L 266.10169491525426,129.64942049856876 L 275.93220338983053,79.12744309894904 L 285.7627118644068,139.54293477734598 L 295.5932203389831,106.84985282526716 L 305.4237288135593,140.18607034886605 L 315.2542372881356,98.09093154890576 L 325.08474576271186,90.6545022709218 L 334.91525423728814,106.28579725880056 L 344.7457627118644,189.18457688904655 L 354.5762711864407,81.4035899680146 L 364.40677966101697,60.81198003684216 L 374.23728813559325,96.2792143974829 L 384.06779661016947,183.2745197792929 L 393.89830508474574,63.241008135455786 L 403.728813559322,87.53530291334938 L 413.5593220338983,87.72557681765642 L 423.3898305084746,158.03995875563936 L 433.22033898305085,192.99826582612255 L 443.0508474576271,113.1894111167992 L 452.8813559322034,133.55772354354716 L 462.7118644067797,73.29240279207404 L 472.54237288135596,108.5288311416523 L 482.3728813559322,135.0858069473665 L 492.20338983050846,77.19705597606763 L 502.03389830508473,101.38726183613983 L 511.864406779661,70.42012199300049 L 521.6949152542372,40.0 L 531.5254237288136,194.73421171731383 L 541.3559322033898,179.0551248796753 L 551.1864406779662,172.41073392817452 L 561.0169491525423,150.31281692792578 L 570.8474576271186,71.799641049972 L 580.6779661016949,190.21219662165507 L 590.5084745762712,117.27149097408612 L 600.3389830508474,193.94806796355746 L 610.1694915254237,104.99706164986902 L 620.0,174.04565690673093" fill="none" stroke="#10b981" stroke-width="2" stroke-linecap="round" stroke-linejoin="round" />
<path d="M 40.0,96.41216912654292 L 49.83050847457627,200.0 L 59.66101694915254,128.7860154667901 L 69.49152542372882,91.14588309886928 L 79.32203389830508,94.63556414229353 L 89.15254237288136,107.36485550891317 L 98.98305084745763,85.70199408249533 L 108.8135593220339,109.59975583129474 L 118.64406779661017,86.70812266727256 L 128.47457627118644,84.67828203291502 L 138.3050847457627,155.798171765329 L 148.135593220339,110.50611609965601 L 157.96610169491527,73.66963384954387 L 167.79661016949154,117.12763671358088 L 177.6271186440678,89.18864736706736 L 187.45762711864407,176.7035685149496 L 197.28813559322035,102.89033128979932 L 207.11864406779662,90.37784602221792 L 216.94915254237287,135.45043716924775 L 226.77966101694915,130.314854705473 L 236.61016949152543,147.80183807654294 L 246.4406779661017,134.8339428495837 L 256.271186440678,98.61139241584881 L 266.10169491525426,104.9682440042619 L 275.93220338983053,121.83546470553595 L 285.7627118644068,66.44151777238864 L 295.5932203389831,79.93739468239372 L 305.4237288135593,103.13306674816025 L 315.2542372881356,134.44026875920164 L 325.08474576271186,143.04091140909412 L 334.91525423728814,196.45033683758908 L 344.7457627118644,128.06268125621705 L 354.5762711864407,149.08027781245153 L 364.40677966101697,147.52538354181002 L 374.23728813559325,157.02670390236267 L 384.06779661016947,134.26710742700362 L 393.89830508474574,152.67723084796376 L 403.728813559322,137.46865550489002 L 413.5593220338983,137.87273349719626 L 423.3898305084746,141.66461794407542 L 433.22033898305085,102.80675668481656 L 443.0508474576271,170.06654459077768 L 452.8813559322034,88.14572686413298 L 462.7118644067797,159.24458266849766 L 472.54237288135596,101.37408359943558 L 482.3728813559322,108.15454118536876 L 492.20338983050846,142.00669034084146 L 502.03389830508473,102.25998822425487 L 511.864406779661,57.655958178297084 L 521.6949152542372,84.91851305321502 L 531.5254237288136,147.36359041029357 L 541.3559322033898,91.80576294536809 L 551.1864406779662,57.32719788055181 L 561.0169491525423,159.4191968806407 L 570.8474576271186,76.96633031476132 L 580.6779661016949,136.19829806790278 L 590.5084745762712,105.74917585834723 L 600.3389830508474,40.0 L 610.1694915254237,77.34692811506503 L 620.0,98.60454703711115" fill="none" stroke="#f59e0b" stroke-width="2" stroke-linecap="round" stroke-linejoin="round" />
<path d="M 40.0,200.0 L 49.83050847457627,157.17096288334113 L 59.66101694915254,74.55485244343718 L 69.49152542372882,91.05148199878005 L 79.32203389830508,130.86937149514267 L 89.15254237288136,123.42610200801231 L 98.98305084745763,114.70660564583761 L 108.8135593220339,147.6608981551583 L 118.64406779661017,151.86867528786962 L 128.47457627118644,101.1451402603866 L 138.3050847457627,132.764981767096 L 148.135593220339,129.94134213752778 L 157.96610169491527,141.09917775639758 L 167.79661016949154,111.73269997735491 L 177.6271186440678,131.88491629342474 L 187.45762711864407,145.93545028188146 L 197.28813559322035,132.41485228399733 L 207.11864406779662,130.40710833000594 L 216.94915254237287,119.6306596747801 L 226.77966101694915,153.34199838491244 L 236.61016949152543,128.5136474904053 L 246.4406779661017,102.26474470565991 L 256.271186440678,105.2227522520767 L 266.10169491525426,133.6910218991299 L 275.93220338983053,169.3598806462116 L 285.7627118644068,150.2661279276275 L 295.5932203389831,173.8292021962088 L 305.4237288135593,134.29916573915247 L 315.2542372881356,171.3189995669232 L 325.08474576271186,115.43860381381191 L 334.91525423728814,106.65217666950396 L 344.7457627118644,152.97401454327144 L 354.5762711864407,121.8721584374238 L 364.40677966101697,98.45582693070448 L 374.23728813559325,73.72040655541015 L 384.06779661016947,122.61639770326583 L 393.89830508474574,146.16442106317157 L 403.728813559322,140.7751642231101 L 413.5593220338983,139.65350637539194 L 423.3898305084746,135.9223555616419 L 433.22033898305085,112.66273027089504 L 443.0508474576271,90.46933698778501 L 452.8813559322034,171.1267122327526 L 462.7118644067797,82.34216168798974 L 472.54237288135596,92.32764788433464 L 482.3728813559322,131.21132190404927 L 492.20338983050846,65.45095333866095 L 502.03389830508473,165.31920898256732 L 511.864406779661,112.74862094178566 L 521.6949152542372,71.67717600284124 L 531.5254237288136,40.0 L 541.3559322033898,151.49528725624776 L 551.1864406779662,178.4619444751935 L 561.0169491525423,143.88340118479925 L 570.8474576271186,140.75186288264655 L 580.6779661016949,42.05109567112285 L 590.5084745762712,126.50581996318016 L 600.3389830508474,79.79816466411162 L 610.1694915254237,177.06747720258346 L 620.0,90.3927434617209" fill="none" stroke="#8b5cf6" stroke-width="2" stroke-linecap="round" stroke-linejoin="round" />
<path d="M 40.0,170.87837794636084 L 49.83050847457627,128.0191519628774 L 59.66101694915254,163.05908607071052 L 69.49152542372882,113.67354845231729 L 79.32203389830508,135.41133002033564 L 89.15254237288136,90.69298509076012 L 98.98305084745763,142.34682946757482 L 108.8135593220339,115.50614738278077 L 118.64406779661017,83.6247846958564 L 128.47457627118644,129.84616144465053 L 138.3050847457627,141.88251267026163 L 148.135593220339,139.5545309471894 L 157.96610169491527,95.16148276067261 L 167.79661016949154,139.65636337418047 L 177.6271186440678,194.90879123707845 L 187.45762711864407,89.23475477619093 L 197.28813559322035,95.4906459907628 L 207.11864406779662,80.44549189088487 L 216.94915254237287,182.75287287531523 L 226.77966101694915,137.89112462284524 L 236.61016949152543,133.39086901496213 L 246.4406779661017,150.98811188665505 L 256.271186440678,168.7431903352795 L 266.10169491525426,117.71663404191587 L 275.93220338983053,200.0 L 285.7627118644068,147.69583577302265 L 295.5932203389831,134.57791665264233 L 305.4237288135593,166.68513814361168 L 315.2542372881356,147.41039293020646 L 325.08474576271186,135.8873154604692 L 334.91525423728814,117.74064318551828 L 344.7457627118644,130.59593574954994 L 354.5762711864407,106.75604311961366 L 364.40677966101697,117.34028202020248 L 374.23728813559325,128.205596399971 L 384.06779661016947,134.0205046518554 L 393.89830508474574,74.64895657632552 L 403.728813559322,40.0 L 413.5593220338983,191.3501343084934 L 423.3898305084746,165.7869371392078 L 433.22033898305085,91.69602997297426 L 443.0508474576271,144.5213608775633 L 452.8813559322034,159.16252731836732 L 462.7118644067797,103.23703759925807 L 472.54237288135596,90.0558490624647 L 482.3728813559322,119.91493135691955 L 492.20338983050846,143.49533599654148 L 502.03389830508473,114.15843949330704 L 511.864406779661,117.1504322472652 L 521.6949152542372,115.61337994443247 L 531.5254237288136,165.88980192700984 L 541.3559322033898,150.19467424091687 L 551.1864406779662,138.93051234503963 L 561.0169491525423,128.94977450750372 L 570.8474576271186,103.6876688973498 L 580.6779661016949,125.1726971965201 L 590.5084745762712,166.96215840269102 L 600.3389830508474,197.80833830471659 L 610.1694915254237,176.53693418204458 L 620.0,104.94413700774501" fill="none" stroke="#0ea5e9" stroke-width="2" stroke-linecap="round" stroke-linejoin="round" />
<rect x="45" y="5" width="10" height="10" rx="2" fill="#3b82f6" />
<text x="60" y="14" fill="#94a3b8" font-family="Inter, sans-serif" font-size="10">M1 (Conveyor A)</text>
<rect x="160" y="5" width="10" height="10" rx="2" fill="#10b981" />
<text x="175" y="14" fill="#94a3b8" font-family="Inter, sans-serif" font-size="10">M2 (Motor Unit)</text>
<rect x="275" y="5" width="10" height="10" rx="2" fill="#f59e0b" />
<text x="290" y="14" fill="#94a3b8" font-family="Inter, sans-serif" font-size="10">M3 (Pump Unit)</text>
<rect x="390" y="5" width="10" height="10" rx="2" fill="#8b5cf6" />
<text x="405" y="14" fill="#94a3b8" font-family="Inter, sans-serif" font-size="10">M4 (Compressor)</text>
<rect x="505" y="5" width="10" height="10" rx="2" fill="#0ea5e9" />
<text x="520" y="14" fill="#94a3b8" font-family="Inter, sans-serif" font-size="10">M5 (Packaging)</text>
</svg>