<svg viewBox="0 0 650 250" width="100%" height="250" xmlns="http://www.w3.org/2000/svg" style="background:#0d131f; border-radius:8px; border:1px solid #232d45; padding: 10px;">
<line x1="40" y1="30" x2="40" y2="210" stroke="#232d45" stroke-width="1" />
<line x1="40" y1="210" x2="620" y2="210" stroke="#232d45" stroke-width="1" />
<line x1="40" y1="30" x2="620" y2="30" stroke="#1e293b" stroke-dasharray="3,3" stroke-width="1" />
<line x1="40" y1="75" x2="620" y2="75" stroke="#1e293b" stroke-dasharray="3,3" stroke-width="1" />
<line x1="40" y1="120" x2="620" y2="120" stroke="#1e293b" stroke-dasharray="3,3" stroke-width="1" />
<line x1="40" y1="165" x2="620" y2="165" stroke="#1e293b" stroke-dasharray="3,3" stroke-width="1" />
<line x1="40" y1="210" x2="620" y2="210" stroke="#1e293b" stroke-dasharray="3,3" stroke-width="1" />
<path d="M 40.0,108.10236497709612 L 49.83050847457627,147.87778727104453 L 59.66101694915254,99.39831286189523 L 69.49152542372882,124.32263333252233 L 79.32203389830508,63.8179311678922 L 89.15254237288136,129.09543485490855 L 98.98305084745763,88.5755462218921 L 108.8135593220339,119.95819077861125 L 118.64406779661017,127.5196139918669 L 128.47457627118644,103.7117853785148 L 138.3050847457627,188.2630961732455 L 148.135593220339,136.05199148965812 L 157.96610169491527,91.63368231893018 L 167.79661016949154,200.0 L 177.6271186440678,92.86539096642478 L 187.45762711864407,86.39948867092122 L 197.28813559322035,142.8236945997581 L 207.11864406779662,128.65920856758277 L 216.94915254237287,192.18413931639665 L 226.77966101694915,153.4281202826464 L 236.61016949152543,77.52338497949687 L 246.4406779661017,143.37377843922815 L 256.271186440678,113.0398111431611 L 266.10169491525426,82.98517722108814 L 275.93220338983053,169.93538877866894 L 285.7627118644068,103.11060812462915 L 295.5932203389831,184.66762498672674 L 305.4237288135593,124.27732744021563 L 315.2542372881356,147.83594204480613 L 325.08474576271186,164.325419997374 L 334.91525423728814,112.52853727081447 L 344.7457627118644,60.65557646795108 L 354.5762711864407,116.54389554366391 L 364.40677966101697,163.01487189582838 L 374.23728813559325,158.17315821656985 L 384.06779661016947,147.9449170602471 L 393.89830508474574,93.057395975027 L 403.728813559322,119.92886790382605 L 413.5593220338983,101.40555181629682 L 423.3898305084746,40.0 L 433.22033898305085,148.60934195035992 L 443.0508474576271,131.17704875236493 L 452.8813559322034,128.13103076181022 L 462.7118644067797,54.15051250593788 L 472.54237288135596,128.3595061646916 L 482.3728813559322,134.61115980808543 L 492.20338983050846,145.3844308356757 L 502.03389830508473,143.5909663364732 L 511.864406779661,190.38413544222527 L 521.6949152542372,145.861703194254 L 531.5254237288136,72.37980703221774 L 541.3559322033898,140.70908281360374 L 551.1864406779662,134.0792848811384 L 561.0169491525423,125.56267152336972 L 570.8474576271186,159.07755643722692 L 580.6779661016949,173.51349315878522 L 590.5084745762712,82.60336591699985 L 600.3389830508474,124.93211641391508 L 610.1694915254237,122.84236405030902 L 620.0,184.37209299808364" fill="none" stroke="#3b82f6" stroke-width="2" stroke-linecap="round" stroke-linejoin="round" />
<path d="M 40.0,65.4128418801111 L 49.83050847457627,181.59554298320944 L 59.66101694915254,169.8228481188387 L 69.49152542372882,164.83388491953886 L 79.32203389830508,148.24158992965397 L 89.15254237288136,89.28970886570298 L 98.98305084745763,178.20017280352064 L 108.8135593220339,123.43239967534734 L 118.64406779661017,181.00526431275222 L 128.47457627118644,114.21610330779329 L 138.3050847457627,166.06147231366492 L 148.135593220339,122.27064288989357 L 157.96610169491527,114.47255702835812 L 167.79661016949154,153.69857117222904 L 177.6271186440678,63.28423033784557 L 187.45762711864407,148.65559429556257 L 197.28813559322035,103.05733929675222 L 207.11864406779662,113.17811702372707 L 216.94915254237287,143.47128975803506 L 226.77966101694915,94.80092992963384 L 236.61016949152543,163.10148716529864 L 246.4406779661017,155.39445417053741 L 256.271186440678,147.19919610435792 L 266.10169491525426,73.5849766482201 L 275.93220338983053,147.7589277782887 L 285.7627118644068,154.31584520629337 L 295.5932203389831,140.34941153330254 L 305.4237288135593,89.26780241766183 L 315.2542372881356,114.02392474573958 L 325.08474576271186,92.04273730217616 L 334.91525423728814,71.73900228219733 L 344.7457627118644,99.98933073777539 L 354.5762711864407,198.58574674654224 L 364.40677966101697,85.61786842501616 L 374.23728813559325,145.5127569387614 L 384.06779661016947,109.10297746239104 L 393.89830508474574,184.61275235964038 L 403.728813559322,40.0 L 413.5593220338983,131.43553696025822 L 423.3898305084746,125.58986764201128 L 433.22033898305085,200.0 L 443.0508474576271,103.26526724988581 L 452.8813559322034,97.65367713802945 L 462.7118644067797,88.22043840671255 L 472.54237288135596,162.49813842367206 L 482.3728813559322,164.62885156074037 L 492.20338983050846,100.53676082884705 L 502.03389830508473,123.08853779052689 L 511.864406779661,139.45339382287148 L 521.6949152542372,107.19155997759849 L 531.5254237288136,95.04400800240435 L 541.3559322033898,123.58656110622114 L 551.1864406779662,179.74384385255405 L 561.0169491525423,82.26290814434785 L 570.8474576271186,131.2305330539715 L 580.6779661016949,159.13956018523623 L 590.5084745762712,158.78600014341092 L 600.3389830508474,133.9027325636099 L 610.1694915254237,137.6384404695735 L 620.0,134.39730864097038" fill="none" stroke="#10b981" stroke-width="2" stroke-linecap="round" stroke-linejoin="round" />
<path d="M 40.0,90.96879215765831 L 49.83050847457627,154.3655632333447 L 59.66101694915254,97.96100712853752 L 69.49152542372882,62.95697175945426 L 79.32203389830508,166.60490308088393 L 89.15254237288136,82.89541423966897 L 98.98305084745763,143.03010633934463 L 108.8135593220339,112.1169245182003 L 118.64406779661017,45.36569885358543 L 128.47457627118644,83.28181253780527 L 138.3050847457627,104.8634080366596 L 148.135593220339,65.77671140448922 L 157.96610169491527,81.01114874942878 L 167.79661016949154,100.10373197756752 L 177.6271186440678,111.15060590587355 L 187.45762711864407,157.0547466818188 L 197.28813559322035,195.5283992809425 L 207.11864406779662,114.18065524134471 L 216.94915254237287,112.03510504208614 L 226.77966101694915,47.332603460880335 L 236.61016949152543,78.3778173230946 L 246.4406779661017,129.21052292290528 L 256.271186440678,174.82009123265692 L 266.10169491525426,156.33412496168015 L 275.93220338983053,150.95244513794785 L 285.7627118644068,144.70010570613832 L 295.5932203389831,136.3617198589313 L 305.4237288135593,80.17673610414406 L 315.2542372881356,92.00989704282024 L 325.08474576271186,96.91235393149002 L 334.91525423728814,40.0 L 344.7457627118644,119.62908188292273 L 354.5762711864407,165.23449231947262 L 364.40677966101697,77.81089490316815 L 374.23728813559325,117.03472030089563 L 384.06779661016947,54.854009387894195 L 393.89830508474574,71.93268761790267 L 403.728813559322,123.75737669464473 L 413.5593220338983,127.29392649423272 L 423.3898305084746,135.9985122977388 L 433.22033898305085,95.44496738536829 L 443.0508474576271,140.12565473502258 L 452.8813559322034,155.87633356955763 L 462.7118644067797,100.01395588597829 L 472.54237288135596,173.77472517687596 L 482.3728813559322,129.05642509735253 L 492.20338983050846,161.9332781451068 L 502.03389830508473,148.5856259019276 L 511.864406779661,85.117437353476 L 521.6949152542372,140.55729554389117 L 531.5254237288136,156.99809695123363 L 541.3559322033898,167.2847040064193 L 551.1864406779662,181.2588401752477 L 561.0169491525423,115.46174291556997 L 570.8474576271186,200.0 L 580.6779661016949,108.25840155687202 L 590.5084745762712,62.79763480373984 L 600.3389830508474,197.22018221788517 L 610.1694915254237,79.92314813763264 L 620.0,132.6134537847705" fill="none" stroke="#f59e0b" stroke-width="2" stroke-linecap="round" stroke-linejoin="round" />
<path d="M 40.0,75.35401851318996 L 49.83050847457627,40.0 L 59.66101694915254,164.43680110364832 L 69.49152542372882,194.53354010815877 L 79.32203389830508,155.94138594839123 L 89.15254237288136,152.4463628093608 L 98.98305084745763,42.28917105245421 L 108.8135593220339,136.5467489969004 L 118.64406779661017,84.41762896414075 L 128.47457627118644,192.97721381924117 L 138.3050847457627,96.24194483486521 L 148.135593220339,146.600769911368 L 157.96610169491527,117.28980275453551 L 167.79661016949154,139.94390744560877 L 177.6271186440678,57.53034749417199 L 187.45762711864407,152.45002869330133 L 197.28813559322035,200.0 L 207.11864406779662,77.0732589618583 L 216.94915254237287,120.46737169112872 L 226.77966101694915,122.53214225161047 L 236.61016949152543,130.57168715989147 L 246.4406779661017,114.5875219652035 L 256.271186440678,165.11050605706933 L 266.10169491525426,84.04742652430811 L 275.93220338983053,153.8597012037795 L 285.7627118644068,116.1333524264024 L 295.5932203389831,150.29093602036903 L 305.4237288135593,101.37367832783707 L 315.2542372881356,111.1383990017419 L 325.08474576271186,179.4139549790192 L 334.91525423728814,131.88685878375196 L 344.7457627118644,105.9228094380552 L 354.5762711864407,155.10977041137494 L 364.40677966101697,72.3999296041477 L 374.23728813559325,130.6399711974323 L 384.06779661016947,76.45706038091895 L 393.89830508474574,120.06415205629749 L 403.728813559322,172.01107537101174 L 413.5593220338983,145.92590965636072 L 423.3898305084746,150.8097540273227 L 433.22033898305085,91.90869697628852 L 443.0508474576271,182.12888840688055 L 452.8813559322034,154.48997488509372 L 462.7118644067797,76.25959244641984 L 472.54237288135596,145.48642965498814 L 482.3728813559322,163.84735678163236 L 492.20338983050846,130.50120656246384 L 502.03389830508473,184.549636986102 L 511.864406779661,95.9316305460782 L 521.6949152542372,160.95572925911705 L 531.5254237288136,144.59347140454483 L 541.3559322033898,130.97157345501677 L 551.1864406779662,162.19798260159376 L 561.0169491525423,139.4309106773684 L 570.8474576271186,144.14486574173134 L 580.6779661016949,181.68983318884224 L 590.5084745762712,191.1735449079991 L 600.3389830508474,142.35299754758947 L 610.1694915254237,103.27620754502072 L 620.0,110.74371962319488" fill="none" stroke="#8b5cf6" stroke-width="2" stroke-linecap="round" stroke-linejoin="round" />
<path d="M 40.0,113.98661669049812 L 49.83050847457627,153.14902544286952 L 59.66101694915254,140.92343377136126 L 69.49152542372882,132.14930675468335 L 79.32203389830508,124.37489243818143 L 89.15254237288136,104.69718135935284 L 98.98305084745763,121.43276887987992 L 108.8135593220339,153.98432877140456 L 118.64406779661017,178.01170896546313 L 128.47457627118644,161.44252225449077 L 138.3050847457627,105.67589694378064 L 148.135593220339,107.2388363115549 L 157.96610169491527,145.0346640666274 L 167.79661016949154,106.11279987269955 L 177.6271186440678,137.8588346702291 L 187.45762711864407,118.0057348090984 L 197.28813559322035,154.82341005806808 L 207.11864406779662,155.86738848336032 L 216.94915254237287,129.17717043442116 L 226.77966101694915,120.9774840598019 L 236.61016949152543,134.48784550061345 L 246.4406779661017,155.1079990457257 L 256.271186440678,40.0 L 266.10169491525426,96.63940738940258 L 275.93220338983053,73.37975602204268 L 285.7627118644068,100.37323701022858 L 295.5932203389831,130.38245358620318 L 305.4237288135593,103.70828450196596 L 315.2542372881356,142.55875677481964 L 325.08474576271186,145.9721350293276 L 334.91525423728814,112.202537855704 L 344.7457627118644,174.69286155066757 L 354.5762711864407,156.30174681768398 L 364.40677966101697,110.04819934470521 L 374.23728813559325,153.9905296828259 L 384.06779661016947,160.47792310819662 L 393.89830508474574,110.38868606536315 L 403.728813559322,141.8064419638331 L 413.5593220338983,96.39664805216619 L 423.3898305084746,124.62611334434983 L 433.22033898305085,184.31384737921374 L 443.0508474576271,200.0 L 452.8813559322034,139.64296599795483 L 462.7118644067797,152.03502223255566 L 472.54237288135596,86.57668664884307 L 482.3728813559322,157.06411156612614 L 492.20338983050846,86.43067161843099 L 502.03389830508473,84.40847891544998 L 511.864406779661,126.98245445217825 L 521.6949152542372,115.3096738913559 L 531.5254237288136,113.49456507911532 L 541.3559322033898,142.5863701678491 L 551.1864406779662,97.92012282717974 L 561.0169491525423,99.62633566831607 L 570.8474576271186,126.16149608004153 L 580.6779661016949,155.59163906844867 L 590.5084745762712,109.41212939902712 L 600.3389830508474,159.25437740423286 L 610.1694915254237,123.21319154457942 L 620.0,131.7507264875021" fill="none" stroke="#0ea5e9" stroke-width="2" stroke-linecap="round" stroke-linejoin="round" />
<rect x="45" y="5" width="10" height="10" rx="2" fill="#3b82f6" />
<text x="60" y="14" fill="#94a3b8" font-family="Inter, sans-serif" font-size="10">M1 (Conveyor A)</text>
<rect x="160" y="5" width="10" height="10" rx="2" fill="#10b981" />
<text x="175" y="14" fill="#94a3b8" font-family="Inter, sans-serif" font-size="10">M2 (Motor Unit)</text>
<rect x="275" y="5" width="10" height="10" rx="2" fill="#f59e0b" />
<text x="290" y="14" fill="#94a3b8" font-family="Inter, sans-serif" font-size="10">M3 (Pump Unit)</text>
<rect x="390" y="5" width="10" height="10" rx="2" fill="#8b5cf6" />
<text x="405" y="14" fill="#94a3b8" font-family="Inter, sans-serif" font-size="10">M4 (Compressor)</text>
<rect x="505" y="5" width="10" height="10" rx="2" fill="#0ea5e9" />
<text x="520" y="14" fill="#94a3b8" font-family="Inter, sans-serif" font-size="10">M5 (Packaging)</text>
</svg>